# Blender 4.2.3 LTS
# www.blender.org
o cir_10
v -0.111114 0.000000 0.166294
v -0.141421 0.000000 0.141422
v 0.000000 0.000000 0.000000
v -0.076536 0.000000 0.184776
v -0.167098 0.026109 0.069214
v -0.150384 0.026109 0.100484
v -0.149371 0.027772 0.099807
v -0.165972 0.027772 0.068748
v 0.100484 0.026109 -0.150384
v 0.069214 0.026109 -0.167098
v 0.068748 0.027772 -0.165972
v 0.099807 0.027772 -0.149371
v 0.000000 0.026109 0.180866
v 0.035285 0.026109 0.177390
v 0.035047 0.027772 0.176195
v 0.000000 0.027772 0.179647
v -0.127891 0.026109 0.127891
v -0.127029 0.027772 0.127030
v 0.035285 0.026109 -0.177390
v 0.035047 0.027772 -0.176195
v 0.069214 0.026109 0.167098
v 0.068748 0.027772 0.165972
v -0.100483 0.026109 0.150384
v -0.099807 0.027772 0.149371
v 0.000000 0.026109 -0.180866
v 0.000000 0.027772 -0.179647
v 0.100484 0.026109 0.150384
v 0.099807 0.027772 0.149371
v -0.069214 0.026109 0.167098
v -0.068748 0.027772 0.165972
v -0.035285 0.026109 -0.177390
v -0.035047 0.027772 -0.176195
v 0.127891 0.026109 0.127891
v 0.127030 0.027772 0.127030
v -0.035285 0.026109 0.177390
v -0.035047 0.027772 0.176196
v -0.069214 0.026109 -0.167098
v -0.068748 0.027772 -0.165972
v 0.150384 0.026109 0.100484
v 0.149371 0.027772 0.099807
v -0.100484 0.026109 -0.150384
v -0.099807 0.027772 -0.149371
v 0.167098 0.026109 0.069214
v 0.165972 0.027772 0.068748
v -0.127891 0.026109 -0.127891
v -0.127030 0.027772 -0.127030
v 0.177390 0.026109 0.035285
v 0.176195 0.027772 0.035047
v -0.150384 0.026109 -0.100483
v -0.149371 0.027772 -0.099807
v 0.180866 0.026109 -0.000000
v 0.179647 0.027772 -0.000000
v -0.167098 0.026109 -0.069214
v -0.165972 0.027772 -0.068748
v 0.177390 0.026109 -0.035285
v 0.176195 0.027772 -0.035047
v -0.177390 0.026109 -0.035285
v -0.176196 0.027772 -0.035047
v 0.167098 0.026109 -0.069214
v 0.165972 0.027772 -0.068748
v -0.180866 0.026109 -0.000000
v -0.179647 0.027772 -0.000000
v 0.150384 0.026109 -0.100484
v 0.149371 0.027772 -0.099807
v -0.177390 0.026109 0.035285
v -0.176195 0.027772 0.035048
v 0.127891 0.026109 -0.127891
v 0.127030 0.027772 -0.127030
v 0.111114 -0.000000 -0.166294
v 0.141421 -0.000000 -0.141421
v 0.076537 -0.000000 -0.184776
v 0.000000 0.027772 -0.000000
v -0.166294 0.000000 0.111114
v -0.184776 0.000000 0.076537
v -0.196157 0.000000 0.039018
v -0.200000 0.000000 0.000000
v 0.166294 -0.000000 -0.111114
v 0.184776 -0.000000 -0.076537
v -0.196157 -0.000000 -0.039018
v -0.184776 -0.000000 -0.076537
v 0.196157 -0.000000 -0.039018
v 0.200000 0.000000 0.000000
v -0.166294 -0.000000 -0.111114
v -0.141422 -0.000000 -0.141421
v 0.196157 0.000000 0.039018
v 0.184776 0.000000 0.076537
v 0.039018 0.000000 0.196157
v 0.000000 0.000000 0.200000
v 0.076537 0.000000 0.184776
v -0.111114 -0.000000 -0.166294
v -0.076537 -0.000000 -0.184776
v 0.166294 0.000000 0.111114
v 0.141421 0.000000 0.141421
v -0.039018 0.000000 0.196157
v 0.111114 0.000000 0.166294
v 0.039018 -0.000000 -0.196157
v 0.000000 -0.000000 -0.200000
v -0.039018 -0.000000 -0.196157
v 0.140281 0.002201 -0.140281
v 0.110218 0.002201 -0.164953
v -0.194575 0.002201 0.038704
v -0.183285 0.002201 0.075920
v 0.164953 0.002201 -0.110218
v -0.198387 0.002201 -0.000000
v 0.183286 0.002201 -0.075919
v -0.194575 0.002201 -0.038703
v 0.194575 0.002201 -0.038703
v -0.183286 0.002201 -0.075919
v 0.198387 0.002201 -0.000000
v -0.164953 0.002201 -0.110218
v 0.194575 0.002201 0.038703
v -0.140281 0.002201 -0.140280
v 0.183286 0.002201 0.075919
v -0.110218 0.002201 -0.164953
v 0.164953 0.002201 0.110218
v -0.075920 0.002201 -0.183285
v -0.038703 0.002201 0.194575
v 0.000000 0.002201 0.198387
v 0.140281 0.002201 0.140281
v -0.038703 0.002201 -0.194575
v -0.075919 0.002201 0.183286
v 0.110218 0.002201 0.164953
v 0.000000 0.002201 -0.198387
v -0.110218 0.002201 0.164953
v 0.075919 0.002201 0.183286
v 0.038703 0.002201 -0.194575
v -0.140280 0.002201 0.140281
v 0.038703 0.002201 0.194575
v 0.075919 0.002201 -0.183286
v -0.164953 0.002201 0.110218
vn -0.3549 -0.7693 0.5312
vn -0.4518 -0.7693 0.4518
vn -0.0000 -1.0000 -0.0000
vn -0.2445 -0.7693 0.5902
vn -0.7452 0.5911 0.3087
vn -0.6707 0.5911 0.4481
vn -0.3001 0.9326 0.2005
vn -0.3335 0.9326 0.1381
vn 0.4481 0.5911 -0.6706
vn 0.3087 0.5911 -0.7452
vn 0.1381 0.9326 -0.3335
vn 0.2005 0.9326 -0.3001
vn -0.0000 0.5911 0.8066
vn 0.1574 0.5911 0.7911
vn 0.0704 0.9326 0.3540
vn -0.0000 0.9326 0.3609
vn -0.5703 0.5911 0.5703
vn -0.2552 0.9326 0.2552
vn 0.1574 0.5911 -0.7911
vn 0.0704 0.9326 -0.3540
vn 0.3087 0.5911 0.7452
vn 0.1381 0.9326 0.3335
vn -0.4481 0.5911 0.6707
vn -0.2005 0.9326 0.3001
vn -0.0000 0.5911 -0.8066
vn -0.0000 0.9326 -0.3609
vn 0.4481 0.5911 0.6706
vn 0.2005 0.9326 0.3001
vn -0.3087 0.5911 0.7452
vn -0.1381 0.9326 0.3335
vn -0.1574 0.5911 -0.7911
vn -0.0704 0.9326 -0.3540
vn 0.5703 0.5911 0.5703
vn 0.2552 0.9326 0.2552
vn -0.1574 0.5911 0.7911
vn -0.0704 0.9326 0.3540
vn -0.3087 0.5911 -0.7452
vn -0.1381 0.9326 -0.3335
vn 0.6706 0.5911 0.4481
vn 0.3001 0.9326 0.2005
vn -0.4481 0.5911 -0.6707
vn -0.2005 0.9326 -0.3001
vn 0.7452 0.5911 0.3087
vn 0.3335 0.9326 0.1381
vn -0.5703 0.5911 -0.5703
vn -0.2552 0.9326 -0.2552
vn 0.7911 0.5911 0.1574
vn 0.3540 0.9326 0.0704
vn -0.6706 0.5911 -0.4481
vn -0.3001 0.9326 -0.2005
vn 0.8066 0.5911 -0.0000
vn 0.3609 0.9326 -0.0000
vn -0.7452 0.5911 -0.3087
vn -0.3335 0.9326 -0.1381
vn 0.7911 0.5911 -0.1574
vn 0.3540 0.9326 -0.0704
vn -0.7911 0.5911 -0.1574
vn -0.3540 0.9326 -0.0704
vn 0.7452 0.5911 -0.3087
vn 0.3335 0.9326 -0.1381
vn -0.8066 0.5911 -0.0000
vn -0.3609 0.9326 -0.0000
vn 0.6706 0.5911 -0.4481
vn 0.3001 0.9326 -0.2005
vn -0.7911 0.5911 0.1574
vn -0.3540 0.9326 0.0704
vn 0.5703 0.5911 -0.5703
vn 0.2552 0.9326 -0.2552
vn 0.3549 -0.7693 -0.5312
vn 0.4517 -0.7693 -0.4517
vn 0.2445 -0.7693 -0.5902
vn -0.0000 1.0000 -0.0000
vn -0.5312 -0.7693 0.3549
vn -0.5902 -0.7693 0.2445
vn -0.6266 -0.7693 0.1246
vn -0.6389 -0.7693 -0.0000
vn 0.5312 -0.7693 -0.3549
vn 0.5902 -0.7693 -0.2445
vn -0.6266 -0.7693 -0.1246
vn -0.5902 -0.7693 -0.2445
vn 0.6266 -0.7693 -0.1246
vn 0.6389 -0.7693 -0.0000
vn -0.5312 -0.7693 -0.3549
vn -0.4518 -0.7693 -0.4518
vn 0.6266 -0.7693 0.1246
vn 0.5902 -0.7693 0.2445
vn 0.1246 -0.7693 0.6266
vn -0.0000 -0.7693 0.6389
vn 0.2445 -0.7693 0.5902
vn -0.3549 -0.7693 -0.5312
vn -0.2445 -0.7693 -0.5902
vn 0.5312 -0.7693 0.3549
vn 0.4517 -0.7693 0.4517
vn -0.1246 -0.7693 0.6266
vn 0.3549 -0.7693 0.5312
vn 0.1246 -0.7693 -0.6266
vn -0.0000 -0.7693 -0.6389
vn -0.1246 -0.7693 -0.6266
vn 0.5704 0.5911 -0.5704
vn 0.4481 0.5911 -0.6707
vn 0.6707 0.5911 -0.4481
vn -0.6707 0.5911 -0.4481
vn -0.4481 0.5911 -0.6706
vn 0.6707 0.5911 0.4481
vn 0.5704 0.5911 0.5704
vn 0.4481 0.5911 0.6707
vn -0.6706 0.5911 0.4481
vt 0.861770 0.733151
vt 0.861775 0.733151
vt 0.861775 0.733147
vt 0.861766 0.733151
vt 0.861766 0.733127
vt 0.861762 0.733131
vt 0.861786 0.733131
vt 0.861762 0.733135
vt 0.861766 0.733135
vt 0.861770 0.733135
vt 0.861783 0.733127
vt 0.861775 0.733135
vt 0.861778 0.733127
vt 0.861778 0.733135
vt 0.861775 0.733127
vt 0.861783 0.733135
vt 0.861770 0.733127
vt 0.861786 0.733135
vt 0.861778 0.733143
vt 0.861775 0.733143
vt 0.861783 0.733143
vt 0.013082 0.598963
vt 0.003436 0.502145
vt 0.499762 0.501584
vt 0.041432 0.692037
vt 0.912753 0.776861
vt 0.851114 0.852143
vt 0.958522 0.691000
vt 0.775973 0.913952
vt 0.690217 0.959914
vt 0.086771 0.226306
vt 0.148411 0.151025
vt 0.041003 0.312166
vt 0.597141 0.988263
vt 0.500323 0.997910
vt 0.223552 0.089215
vt 0.309308 0.043253
vt 0.775039 0.088593
vt 0.850321 0.150232
vt 0.689180 0.042824
vt 0.403484 0.988482
vt 0.310344 0.960344
vt 0.402384 0.014904
vt 0.499201 0.005258
vt 0.912130 0.225374
vt 0.958093 0.311129
vt 0.224485 0.914575
vt 0.149203 0.852936
vt 0.596040 0.014686
vt 0.986441 0.404205
vt 0.996089 0.501023
vt 0.087394 0.777794
vt 0.861778 0.733151
vt 0.861783 0.733151
vt 0.861770 0.733143
vt 0.861786 0.733151
vt 0.861766 0.733143
vt 0.861786 0.733147
vt 0.861762 0.733143
vt 0.861762 0.733151
vt 0.861762 0.733147
vt 0.861786 0.733143
vt 0.012864 0.405305
vt 0.986660 0.597862
vt 0.861762 0.733127
vt 0.861786 0.733127
s 1
f 1/1/1 2/2/2 3/3/3 4/4/4
f 5/5/5 6/6/6 7/6/7 8/5/8
f 9/7/9 10/7/10 11/7/11 12/7/12
f 13/8/13 14/9/14 15/9/15 16/8/16
f 6/6/6 17/6/17 18/6/18 7/6/7
f 10/7/10 19/7/19 20/7/20 11/7/11
f 14/9/14 21/9/21 22/9/22 15/9/15
f 17/6/17 23/6/23 24/6/24 18/6/18
f 19/7/19 25/7/25 26/7/26 20/7/20
f 21/9/21 27/10/27 28/10/28 22/9/22
f 23/6/23 29/6/29 30/6/30 24/6/24
f 25/7/25 31/11/31 32/11/32 26/7/26
f 27/10/27 33/10/33 34/10/34 28/10/28
f 29/6/29 35/6/35 36/6/36 30/6/30
f 31/11/31 37/11/37 38/11/38 32/11/32
f 33/10/33 39/12/39 40/12/40 34/10/34
f 35/6/35 13/8/13 16/8/16 36/6/36
f 37/11/37 41/13/41 42/13/42 38/11/38
f 39/12/39 43/12/43 44/12/44 40/12/40
f 41/13/41 45/13/45 46/13/46 42/13/42
f 43/12/43 47/14/47 48/14/48 44/12/44
f 45/13/45 49/15/49 50/15/50 46/13/46
f 47/14/47 51/14/51 52/14/52 48/14/48
f 49/15/49 53/15/53 54/15/54 50/15/50
f 51/14/51 55/16/55 56/16/56 52/14/52
f 53/15/53 57/17/57 58/17/58 54/15/54
f 55/16/55 59/16/59 60/16/60 56/16/56
f 57/17/57 61/17/61 62/17/62 58/17/58
f 59/16/59 63/18/63 64/18/64 60/16/60
f 61/17/61 65/5/65 66/5/66 62/17/62
f 63/18/63 67/7/67 68/7/68 64/18/64
f 65/5/65 5/5/5 8/5/8 66/5/66
f 67/7/67 9/7/9 12/7/12 68/7/68
f 69/19/69 70/20/70 3/3/3 71/21/71
f 58/22/58 62/23/62 72/24/72 54/25/54
f 64/26/64 68/27/68 72/24/72 60/28/60
f 12/29/12 11/30/11 72/24/72 68/27/68
f 7/31/7 18/32/18 72/24/72 8/33/8
f 20/34/20 26/35/26 72/24/72 11/30/11
f 24/36/24 30/37/30 72/24/72 18/32/18
f 28/38/28 34/39/34 72/24/72 22/40/22
f 32/41/32 38/42/38 72/24/72 26/35/26
f 36/43/36 16/44/16 72/24/72 30/37/30
f 40/45/40 44/46/44 72/24/72 34/39/34
f 42/47/42 46/48/46 72/24/72 38/42/38
f 15/49/15 22/40/22 72/24/72 16/44/16
f 44/46/44 48/50/48 52/51/52 72/24/72
f 46/48/46 50/52/50 54/25/54 72/24/72
f 2/2/2 73/2/73 74/53/74 3/3/3
f 74/53/74 75/54/75 76/54/76 3/3/3
f 77/20/77 78/55/78 3/3/3 70/20/70
f 79/56/79 80/56/80 3/3/3 76/54/76
f 81/57/81 82/57/82 3/3/3 78/55/78
f 83/58/83 84/58/84 3/3/3 80/56/80
f 85/59/85 86/59/86 3/3/3 82/57/82
f 87/60/87 88/60/88 3/3/3 89/61/89
f 90/58/90 91/62/91 3/3/3 84/58/84
f 92/59/92 93/61/93 3/3/3 86/59/86
f 94/4/94 4/4/4 3/3/3 88/60/88
f 95/61/95 89/61/89 3/3/3 93/61/93
f 96/21/96 71/21/71 3/3/3 97/62/97
f 66/63/66 8/33/8 72/24/72 62/23/62
f 56/64/56 60/28/60 72/24/72 52/51/52
f 98/62/98 97/62/97 3/3/3 91/62/91
f 99/7/99 100/7/100 9/7/9 67/7/67
f 101/5/65 102/65/5 5/5/5 65/5/65
f 103/18/101 99/7/99 67/7/67 63/18/63
f 104/5/61 101/5/65 65/5/65 61/17/61
f 105/18/59 103/18/101 63/18/63 59/16/59
f 106/17/57 104/5/61 61/17/61 57/17/57
f 107/16/55 105/18/59 59/16/59 55/16/55
f 108/15/53 106/17/57 57/17/57 53/15/53
f 109/16/51 107/16/55 55/16/55 51/14/51
f 110/15/102 108/15/53 53/15/53 49/15/49
f 111/14/47 109/16/51 51/14/51 47/14/47
f 112/13/45 110/15/102 49/15/49 45/13/45
f 113/12/43 111/14/47 47/14/47 43/12/43
f 114/11/103 112/13/45 45/13/45 41/13/41
f 115/12/104 113/12/43 43/12/43 39/12/39
f 116/11/37 114/11/103 41/13/41 37/11/37
f 117/6/35 118/8/13 13/8/13 35/6/35
f 119/10/105 115/12/104 39/12/39 33/10/33
f 120/66/31 116/11/37 37/11/37 31/11/31
f 121/6/29 117/6/35 35/6/35 29/6/29
f 122/9/106 119/10/105 33/10/33 27/10/27
f 123/66/25 120/66/31 31/11/31 25/7/25
f 124/6/23 121/6/29 29/6/29 23/6/23
f 125/9/21 122/9/106 27/10/27 21/9/21
f 126/7/19 123/66/25 25/7/25 19/7/19
f 127/6/17 124/6/23 23/6/23 17/6/17
f 128/8/14 125/9/21 21/9/21 14/9/14
f 129/7/10 126/7/19 19/7/19 10/7/10
f 130/65/107 127/6/17 17/6/17 6/6/6
f 118/8/13 128/8/14 14/9/14 13/8/13
f 100/7/100 129/7/10 10/7/10 9/7/9
f 102/65/5 130/65/107 6/6/6 5/5/5
f 74/53/74 73/2/73 130/65/107 102/65/5
f 69/19/69 71/21/71 129/7/10 100/7/100
f 88/60/88 87/60/87 128/8/14 118/8/13
f 73/2/73 2/2/2 127/6/17 130/65/107
f 71/21/71 96/21/96 126/7/19 129/7/10
f 87/60/87 89/61/89 125/9/21 128/8/14
f 2/2/2 1/1/1 124/6/23 127/6/17
f 96/21/96 97/62/97 123/66/25 126/7/19
f 89/61/89 95/61/95 122/9/106 125/9/21
f 1/1/1 4/4/4 121/6/29 124/6/23
f 97/62/97 98/62/98 120/66/31 123/66/25
f 95/61/95 93/61/93 119/10/105 122/9/106
f 4/4/4 94/4/94 117/6/35 121/6/29
f 98/62/98 91/62/91 116/11/37 120/66/31
f 93/61/93 92/59/92 115/12/104 119/10/105
f 94/4/94 88/60/88 118/8/13 117/6/35
f 91/62/91 90/58/90 114/11/103 116/11/37
f 92/59/92 86/59/86 113/12/43 115/12/104
f 90/58/90 84/58/84 112/13/45 114/11/103
f 86/59/86 85/59/85 111/14/47 113/12/43
f 84/58/84 83/58/83 110/15/102 112/13/45
f 85/59/85 82/57/82 109/16/51 111/14/47
f 83/58/83 80/56/80 108/15/53 110/15/102
f 82/57/82 81/57/81 107/16/55 109/16/51
f 80/56/80 79/56/79 106/17/57 108/15/53
f 81/57/81 78/55/78 105/18/59 107/16/55
f 79/56/79 76/54/76 104/5/61 106/17/57
f 78/55/78 77/20/77 103/18/101 105/18/59
f 76/54/76 75/54/75 101/5/65 104/5/61
f 77/20/77 70/20/70 99/7/99 103/18/101
f 75/54/75 74/53/74 102/65/5 101/5/65
f 70/20/70 69/19/69 100/7/100 99/7/99
o 2in_circle
v 0.000000 0.147906 -2.040000
v -0.397984 0.147906 -2.000802
v -0.780674 0.147906 -1.884714
v -1.133363 0.147906 -1.696198
v -1.442498 0.147906 -1.442498
v -1.696198 0.147906 -1.133363
v -1.884714 0.147906 -0.780674
v -2.000802 0.147906 -0.397984
v -2.040000 0.147906 0.000000
v -2.000802 0.147906 0.397984
v -1.884714 0.147906 0.780674
v -1.696198 0.147906 1.133363
v -1.442498 0.147906 1.442498
v -1.133363 0.147906 1.696198
v -0.780674 0.147906 1.884714
v -0.397984 0.147906 2.000802
v 0.000000 0.147906 2.040000
v 0.397984 0.147906 2.000802
v 0.780674 0.147906 1.884714
v 1.133363 0.147906 1.696198
v 1.442498 0.147906 1.442498
v 1.696198 0.147906 1.133363
v 1.884714 0.147906 0.780674
v 2.000802 0.147906 0.397984
v 2.040000 0.147906 0.000000
v 2.000802 0.147906 -0.397984
v 1.884714 0.147906 -0.780674
v 1.696198 0.147906 -1.133363
v 1.442498 0.147906 -1.442498
v 1.133363 0.147906 -1.696198
v 0.780674 0.147906 -1.884714
v 0.397984 0.147906 -2.000802
v 0.000000 0.147906 -1.936641
v -0.377820 0.147906 -1.899429
v -0.741120 0.147906 -1.789223
v -1.075940 0.147906 -1.610258
v -1.369412 0.147906 -1.369412
v -1.610258 0.147906 -1.075940
v -1.789223 0.147906 -0.741120
v -1.899429 0.147906 -0.377820
v -1.936641 0.147906 0.000000
v -1.899429 0.147906 0.377820
v -1.789223 0.147906 0.741120
v -1.610258 0.147906 1.075940
v -1.369412 0.147906 1.369412
v -1.075940 0.147906 1.610258
v -0.741120 0.147906 1.789223
v -0.377820 0.147906 1.899429
v 0.000000 0.147906 1.936641
v 0.377820 0.147906 1.899429
v 0.741120 0.147906 1.789223
v 1.075940 0.147906 1.610258
v 1.369412 0.147906 1.369412
v 1.610258 0.147906 1.075940
v 1.789223 0.147906 0.741120
v 1.899429 0.147906 0.377820
v 1.936641 0.147906 0.000000
v 1.899429 0.147906 -0.377820
v 1.789223 0.147906 -0.741120
v 1.610258 0.147906 -1.075940
v 1.369412 0.147906 -1.369412
v 1.075940 0.147906 -1.610258
v 0.741120 0.147906 -1.789223
v 0.377820 0.147906 -1.899429
vn -0.0000 1.0000 -0.0000
vt 0.932861 0.085618
vt 0.926045 0.081064
vt 0.927389 0.079426
vt 0.933860 0.083750
vt 0.989458 0.029022
vt 0.992595 0.036597
vt 0.990567 0.037212
vt 0.987589 0.030021
vt 0.910957 0.044637
vt 0.912556 0.036596
vt 0.914584 0.037212
vt 0.913065 0.044845
vt 0.920248 0.075267
vt 0.921886 0.073923
vt 0.994194 0.044637
vt 0.992086 0.044845
vt 0.915693 0.029022
vt 0.917562 0.030021
vt 0.915693 0.068450
vt 0.917562 0.067451
vt 0.994194 0.052835
vt 0.992086 0.052628
vt 0.920248 0.022206
vt 0.921886 0.023550
vt 0.912556 0.060876
vt 0.914584 0.060261
vt 0.992595 0.060876
vt 0.990567 0.060261
vt 0.926045 0.016409
vt 0.927389 0.018047
vt 0.910957 0.052835
vt 0.913065 0.052628
vt 0.989458 0.068450
vt 0.987589 0.067451
vt 0.932862 0.011854
vt 0.933860 0.013723
vt 0.984903 0.075267
vt 0.983265 0.073923
vt 0.940436 0.008717
vt 0.941051 0.010744
vt 0.979106 0.081064
vt 0.977762 0.079426
vt 0.948476 0.007117
vt 0.948684 0.009226
vt 0.972289 0.085618
vt 0.971291 0.083750
vt 0.956675 0.007117
vt 0.956467 0.009226
vt 0.964715 0.088756
vt 0.964100 0.086728
vt 0.964715 0.008717
vt 0.964100 0.010744
vt 0.956675 0.090355
vt 0.956467 0.088247
vt 0.972289 0.011854
vt 0.971291 0.013723
vt 0.948476 0.090355
vt 0.948684 0.088247
vt 0.979106 0.016409
vt 0.977762 0.018047
vt 0.940436 0.088756
vt 0.941051 0.086728
vt 0.984903 0.022206
vt 0.983265 0.023550
s 0
f 157/67/108 158/68/108 190/69/108 189/70/108
f 144/71/108 145/72/108 177/73/108 176/74/108
f 131/75/108 132/76/108 164/77/108 163/78/108
f 158/68/108 159/79/108 191/80/108 190/69/108
f 145/72/108 146/81/108 178/82/108 177/73/108
f 132/76/108 133/83/108 165/84/108 164/77/108
f 159/79/108 160/85/108 192/86/108 191/80/108
f 146/81/108 147/87/108 179/88/108 178/82/108
f 133/83/108 134/89/108 166/90/108 165/84/108
f 160/85/108 161/91/108 193/92/108 192/86/108
f 147/87/108 148/93/108 180/94/108 179/88/108
f 134/89/108 135/95/108 167/96/108 166/90/108
f 161/91/108 162/97/108 194/98/108 193/92/108
f 148/93/108 149/99/108 181/100/108 180/94/108
f 135/95/108 136/101/108 168/102/108 167/96/108
f 162/97/108 131/75/108 163/78/108 194/98/108
f 149/99/108 150/103/108 182/104/108 181/100/108
f 136/101/108 137/105/108 169/106/108 168/102/108
f 150/103/108 151/107/108 183/108/108 182/104/108
f 137/105/108 138/109/108 170/110/108 169/106/108
f 151/107/108 152/111/108 184/112/108 183/108/108
f 138/109/108 139/113/108 171/114/108 170/110/108
f 152/111/108 153/115/108 185/116/108 184/112/108
f 139/113/108 140/117/108 172/118/108 171/114/108
f 153/115/108 154/119/108 186/120/108 185/116/108
f 140/117/108 141/121/108 173/122/108 172/118/108
f 154/119/108 155/123/108 187/124/108 186/120/108
f 141/121/108 142/125/108 174/126/108 173/122/108
f 155/123/108 156/127/108 188/128/108 187/124/108
f 142/125/108 143/129/108 175/130/108 174/126/108
f 156/127/108 157/67/108 189/70/108 188/128/108
f 143/129/108 144/71/108 176/74/108 175/130/108
