g GameSpace
v -0 0 0
v -0 0 -24.7003
v 35.9216 0 -24.7003
v 35.9216 0 0
v -35.9216 0 -24.7003
v 35.9216 0 24.7003
v -35.9216 0 0
v -0 0 24.7003
v -35.9216 0 24.7003
vt 0.5 0.3213
vt 0.5 0.6421
vt 0.0005 0.6421
vt 0.0005 0.3213
vt 0.9995 0.6421
vt 0.0005 0.0005
vt 0.9995 0.3213
vt 0.5 0.0005
vt 0.9995 0.0005
vn -0 1 0
vn -0 1 0
vn -0 1 0
vn -0 1 0
vn -0 1 0
vn -0 1 0
vn -0 1 0
vn -0 1 0
vn -0 1 0
g GameSpace_0
f 3/3/3 2/2/2 1/1/1
f 4/4/4 3/3/3 1/1/1
f 1/1/1 2/2/2 5/5/5
f 4/4/4 1/1/1 6/6/6
f 7/7/7 1/1/1 5/5/5
f 1/1/1 8/8/8 6/6/6
f 7/7/7 9/9/9 1/1/1
f 9/9/9 8/8/8 1/1/1
