mtllib Mesh_0165.mtl
usemtl Tex_0053_0.dds
mtllib Mesh_0165.mtl
usemtl Tex_0040_1.dds
mtllib Mesh_0165.mtl
usemtl Tex_0044_2.dds
v 0.587405 8.23353 1.74929
v 1.88482 5.76803 1.74929
v 2.39459 5.76803 1.02873
v 1.0712 8.23353 1.02869
v -6.27122 8.23353 1.74929
v -6.27123 10.699 1.75348
v -6.70818 10.699 1.02873
v -6.70818 8.23353 1.02873
v -0.402586 10.699 1.80968
v 0.0606477 10.699 1.09351
v -6.27123 13.1645 1.75397
v -6.70818 13.1645 1.02873
v -1.09828 13.1645 1.80929
v -0.646983 13.1645 1.09354
v -6.27122 15.6114 1.75199
v -6.70818 15.6114 1.02873
v -1.97574 18.2983 1.74929
v -1.61071 15.6114 1.78049
v -1.16655 15.6114 1.06263
v -1.5365 18.2983 1.02872
v -6.27122 18.2983 1.74929
v -6.27122 24.5085 1.74929
v -6.70818 24.5085 1.02873
v -6.70818 18.2983 1.02873
v -2.43117 24.5085 1.74929
v -1.99303 24.5085 1.02873
v -6.70818 0 -1.03382
v -6.70818 1.50022 -1.03382
v -6.27122 1.50022 -1.75438
v -6.70818 18.2983 -1.03382
v -6.70818 15.6114 -1.03382
v -1.97574 18.2983 -1.75438
v -1.61071 15.6114 -1.72319
v -6.27122 15.6114 -1.75169
v -6.27122 18.2983 -1.75438
v -1.16655 15.6114 -0.999868
v -1.5365 18.2983 -1.03381
v -6.27122 0 1.74929
v -6.27122 1.50022 1.74929
v -6.70818 1.50022 1.02873
v -6.70818 0 1.02873
v 5.19798 1.50022 1.74929
v 7.20415 0 1.74929
v 8.01422 0 1.02873
v 5.87285 1.50022 1.02873
v -6.27122 3.69167 1.74929
v -6.70818 3.69167 1.02873
v 3.22213 3.69167 1.74929
v 3.77218 3.69167 1.02873
v -6.27122 5.76803 1.74929
v -6.70818 5.76803 1.02873
v 2.39459 5.76803 -1.03382
v 3.77218 3.69167 -1.03382
v 3.22213 3.69167 -1.75438
v 1.88482 5.76803 -1.75438
v 0.587405 8.23353 -1.75438
v 1.0712 8.23353 -1.03378
v -0.402586 10.699 -1.69399
v 0.0606477 10.699 -0.968951
v -1.09828 13.1645 -1.69438
v -0.646983 13.1645 -0.96898
v -1.61071 15.6114 -1.72319
v -1.97574 18.2983 -1.75438
v -2.43117 24.5085 -1.75438
v -1.99303 24.5085 -1.03382
v -6.27122 18.2983 -1.75438
v -6.27122 15.6114 -1.75169
v -6.27122 0 -1.75438
v -6.70818 3.69167 -1.03382
v -6.27122 3.69167 -1.75438
v -6.70818 5.76803 -1.03382
v -6.27122 5.76803 -1.75438
v -6.70818 8.23353 -1.03382
v -6.27122 8.23353 -1.75438
v -6.70818 10.699 -1.03382
v -6.27123 10.699 -1.7502
v -6.70818 13.1645 -1.03382
v -6.27123 13.1645 -1.74971
v -6.70818 24.5085 -1.03382
v -6.27122 24.5085 -1.75438
v 7.20415 0 -1.75438
v 5.19798 1.50022 -1.75438
v 5.87285 1.50022 -1.03382
v 8.01422 0 -1.03382
v 0.587405 8.23353 1.74929
v -0.402586 10.699 1.80968
v -6.27123 10.699 1.75348
v -6.27122 8.23353 1.74929
v -1.09828 13.1645 1.80929
v -6.27123 13.1645 1.75397
v -1.61071 15.6114 1.78049
v -6.27122 15.6114 1.75199
v -1.97574 18.2983 1.74929
v -2.43117 24.5085 1.74929
v -6.27122 24.5085 1.74929
v -6.27122 18.2983 1.74929
v -6.27122 0 1.74929
v -6.70818 0 1.02873
v -6.70818 0 -1.03382
v 8.01422 0 1.02873
v 7.20415 0 1.74929
v 7.20415 0 -1.75438
v 8.01422 0 -1.03382
v -6.27122 0 -1.75438
v -1.99303 24.5085 -1.03382
v -2.43117 24.5085 -1.75438
v -6.27122 24.5085 -1.75438
v -2.43117 24.5085 1.74929
v -1.99303 24.5085 1.02873
v -6.70818 24.5085 1.02873
v -6.27122 24.5085 1.74929
v -6.70818 24.5085 -1.03382
v 7.20415 0 1.74929
v 5.19798 1.50022 1.74929
v -6.27122 1.50022 1.74929
v -6.27122 0 1.74929
v 3.22213 3.69167 1.74929
v -6.27122 3.69167 1.74929
v 1.88482 5.76803 1.74929
v -6.27122 5.76803 1.74929
v -2.43117 24.5085 -1.75438
v -6.27122 0 -1.75438
v -6.27122 1.50022 -1.75438
v 5.19798 1.50022 -1.75438
v 7.20415 0 -1.75438
v -6.27122 3.69167 -1.75438
v 3.22213 3.69167 -1.75438
v -6.27122 5.76803 -1.75438
v 1.88482 5.76803 -1.75438
v -6.27122 8.23353 -1.75438
v 0.587405 8.23353 -1.75438
v -6.27123 10.699 -1.7502
v -0.402586 10.699 -1.69399
v -6.27123 13.1645 -1.74971
v -1.09828 13.1645 -1.69438
v -6.27122 24.5085 -1.75438
vn 0.438312 0.206034 0.874886
vn 0.415175 0.253189 0.873796
vn 0.82671 0.494697 0.268002
vn 0.872558 0.40733 0.269674
vn -0.491023 -0.000492925 0.871143
vn -0.494616 -0.0059626 0.869087
vn -0.963314 -0.000152089 0.268374
vn -0.963084 0 0.269199
vn 0.455148 0.156555 0.876541
vn 0.909791 0.314497 0.270871
vn -0.425102 0.00124011 0.905141
vn -0.947097 -2.13603e-05 0.320941
vn 0.559325 0.149243 0.815403
vn 0.933561 0.235502 0.270188
vn -0.492909 0.00258588 0.870073
vn -0.973256 6.23786e-05 0.229709
vn 0.414751 0.0520104 0.908444
vn 0.476553 0.0969336 0.873782
vn 0.947954 0.169658 0.269441
vn 0.957586 0.102928 0.269136
vn -0.585083 0.000347307 0.810974
vn -0.321486 0 0.946912
vn -0.933957 0 0.357384
vn -0.963158 9.00943e-05 0.268933
vn 0.640945 0.0470608 0.76614
vn 0.981257 0.0721346 0.178692
vn -0.933957 0 -0.357384
vn -0.963084 0 -0.269199
vn -0.490649 0 -0.871353
vn -0.963084 0 -0.269199
vn -0.946339 -0.000107818 -0.32317
vn 0.48945 0.042583 -0.870987
vn 0.488673 0.0702956 -0.869627
vn -0.487976 -0.00258904 -0.872849
vn -0.490409 -0.000291058 -0.871489
vn 0.949404 0.161285 -0.269477
vn 0.958001 0.0978285 -0.269562
vn -0.642972 0 0.765886
vn -0.49065 0 0.871353
vn -0.963084 0 0.269199
vn -0.983904 0 0.178692
vn 0.307204 0.36887 0.877242
vn 0.184702 0.246993 0.95125
vn 0.543463 0.760286 0.355826
vn 0.628527 0.731119 0.265365
vn -0.49065 0 0.871353
vn -0.963084 0 0.269199
vn 0.371753 0.307296 0.875992
vn 0.75222 0.603008 0.265606
vn -0.49065 0 0.871353
vn -0.963084 0 0.269199
vn 0.827044 0.491133 -0.273469
vn 0.754488 0.595137 -0.276692
vn 0.397189 0.290332 -0.870598
vn 0.427053 0.242534 -0.871089
vn 0.447487 0.208797 -0.86957
vn 0.870615 0.410408 -0.271282
vn 0.469881 0.158295 -0.868417
vn 0.909027 0.317603 -0.26981
vn 0.483588 0.108244 -0.868573
vn 0.934972 0.230384 -0.269721
vn 0.488673 0.0702956 -0.869627
vn 0.48945 0.042583 -0.870987
vn 0.320623 0.0235134 -0.946912
vn 0.931314 0.0684114 -0.357734
vn -0.490409 -0.000291058 -0.871489
vn -0.487976 -0.00258904 -0.872849
vn -0.321485 0 -0.946912
vn -0.963084 0 -0.269199
vn -0.49065 0 -0.871353
vn -0.963084 0 -0.269199
vn -0.49065 0 -0.871353
vn -0.962968 0.000151861 -0.269613
vn -0.489278 0.00518088 -0.872108
vn -0.962723 1.77236e-05 -0.270489
vn -0.485558 0.00103895 -0.8742
vn -0.972814 -6.21911e-05 -0.231576
vn -0.48544 -0.00200453 -0.874264
vn -0.983904 0 -0.178692
vn -0.642971 0 -0.765887
vn 0.378098 0.521969 -0.764581
vn 0.338743 0.355583 -0.871095
vn 0.630486 0.725032 -0.277157
vn 0.563613 0.804486 -0.187463
vn 0.438312 0.206034 0.874886
vn 0.455148 0.156555 0.876541
vn -0.494616 -0.0059626 0.869087
vn -0.491023 -0.000492925 0.871143
vn 0.559325 0.149243 0.815403
vn -0.425102 0.00124011 0.905141
vn 0.476553 0.0969336 0.873782
vn -0.492909 0.00258588 0.870073
vn 0.414751 0.0520104 0.908444
vn 0.640945 0.0470608 0.76614
vn -0.321486 0 0.946912
vn -0.585083 0.000347307 0.810974
vn 0 -0.999998 0
vn 0 -0.999996 0
vn 0 -0.999996 0
vn 0 -0.999996 0
vn 0 -0.999996 0
vn 0 -0.999998 0
vn 0 -0.999996 0
vn 0 -0.999996 0
vn 0 0.999998 0
vn 0 0.999996 0
vn 0 0.999996 0
vn 0 0.999996 0
vn 0 0.999996 0
vn 0 0.999998 0
vn 0 0.999996 0
vn 0 0.999996 0
vn 0.184702 0.246993 0.95125
vn 0.307204 0.36887 0.877242
vn -0.49065 0 0.871353
vn -0.642972 0 0.765886
vn 0.371753 0.307296 0.875992
vn -0.49065 0 0.871353
vn 0.415175 0.253189 0.873796
vn -0.49065 0 0.871353
vn 0.320623 0.0235134 -0.946912
vn -0.321485 0 -0.946912
vn -0.490649 0 -0.871353
vn 0.338743 0.355583 -0.871095
vn 0.378098 0.521969 -0.764581
vn -0.49065 0 -0.871353
vn 0.397189 0.290332 -0.870598
vn -0.49065 0 -0.871353
vn 0.427053 0.242534 -0.871089
vn -0.489278 0.00518088 -0.872108
vn 0.447487 0.208797 -0.86957
vn -0.485558 0.00103895 -0.8742
vn 0.469881 0.158295 -0.868417
vn -0.48544 -0.00200453 -0.874264
vn 0.483588 0.108244 -0.868573
vn -0.642971 0 -0.765887
vt 0.243122 0.66395
vt 0.243122 0.76446
vt 0.218857 0.764459
vt 0.218857 0.663949
vt 0.00185096 0.66395
vt 0.00184081 0.563439
vt 0.0261893 0.563439
vt 0.0261893 0.663949
vt 0.243123 0.563439
vt 0.21887 0.563439
vt 0.00183963 0.462929
vt 0.0261893 0.462928
vt 0.243123 0.462929
vt 0.21887 0.462928
vt 0.00184443 0.363177
vt 0.0261893 0.363176
vt 0.243122 0.253644
vt 0.243123 0.363177
vt 0.218864 0.363176
vt 0.218857 0.253643
vt 0.00185095 0.253644
vt 0.00185095 0.000474691
vt 0.0261893 0.000474095
vt 0.0261893 0.253643
vt 0.243122 0.000474691
vt 0.218857 0.000474095
vt 0.0957517 0.9996
vt 0.0957517 0.938441
vt 0.120054 0.93844
vt 0.0957513 0.253641
vt 0.0957514 0.363174
vt 0.432339 0.253637
vt 0.448334 0.363155
vt 0.244117 0.363155
vt 0.244117 0.253637
vt 0.149299 0.363174
vt 0.149299 0.253641
vt 0.00185098 0.999603
vt 0.00185097 0.938444
vt 0.0261893 0.938443
vt 0.0261893 0.999602
vt 0.243122 0.938444
vt 0.243122 0.999603
vt 0.218857 0.999602
vt 0.218857 0.938443
vt 0.00185097 0.849106
vt 0.0261893 0.849105
vt 0.243122 0.849106
vt 0.218857 0.849105
vt 0.00185097 0.76446
vt 0.0261893 0.764459
vt 0.149299 0.764457
vt 0.149299 0.849103
vt 0.124917 0.849102
vt 0.124917 0.764456
vt 0.124917 0.663946
vt 0.149299 0.663947
vt 0.125073 0.563436
vt 0.1493 0.563437
vt 0.125072 0.462926
vt 0.1493 0.462926
vt 0.124997 0.363173
vt 0.124917 0.253641
vt 0.124917 0.000471175
vt 0.149299 0.00047189
vt 0.120054 0.253641
vt 0.119963 0.363173
vt 0.120054 0.999599
vt 0.0957516 0.849103
vt 0.120054 0.849102
vt 0.0957515 0.764457
vt 0.120054 0.764456
vt 0.0957515 0.663947
vt 0.120054 0.663946
vt 0.0957515 0.563437
vt 0.119913 0.563436
vt 0.0957514 0.462926
vt 0.119896 0.462925
vt 0.0957512 0.00047189
vt 0.120053 0.000471175
vt 0.124917 0.999599
vt 0.124917 0.93844
vt 0.149299 0.938441
vt 0.149299 0.9996
vt 0.544652 0.66389
vt 0.501272 0.563393
vt 0.244117 0.563393
vt 0.244117 0.66389
vt 0.470788 0.462895
vt 0.244117 0.462895
vt 0.448334 0.363155
vt 0.244117 0.363155
vt 0.432339 0.253637
vt 0.412382 0.000499487
vt 0.244117 0.000499487
vt 0.244117 0.253637
vt 0.571233 0.0242915
vt 0.601848 0.00683117
vt 0.689479 0.00683236
vt 0.601847 0.595133
vt 0.571233 0.562762
vt 0.720092 0.562764
vt 0.689478 0.595134
vt 0.720093 0.0242937
vt 0.465438 0.284782
vt 0.438109 0.258672
vt 0.438112 0.0298346
vt 0.570993 0.258673
vt 0.543664 0.284782
vt 0.543668 0.00379598
vt 0.570996 0.0298357
vt 0.465442 0.00379527
vt 0.834588 0.999501
vt 0.74668 0.938349
vt 0.244117 0.938349
vt 0.244117 0.999501
vt 0.660102 0.849023
vt 0.244117 0.849023
vt 0.601503 0.764387
vt 0.244117 0.764387
vt 0.412382 0.000499487
vt 0.244117 0.999501
vt 0.244117 0.938349
vt 0.74668 0.938349
vt 0.834588 0.999501
vt 0.244117 0.849023
vt 0.660102 0.849023
vt 0.244117 0.764387
vt 0.601503 0.764387
vt 0.244117 0.66389
vt 0.544652 0.66389
vt 0.244117 0.563393
vt 0.501272 0.563393
vt 0.244117 0.462895
vt 0.470788 0.462895
vt 0.244117 0.000499487
f 1/1/1 2/2/2 3/3/3
f 3/3/3 4/4/4 1/1/1
f 5/5/5 6/6/6 7/7/7
f 7/7/7 8/8/8 5/5/5
f 9/9/9 1/1/1 4/4/4
f 4/4/4 10/10/10 9/9/9
f 6/6/6 11/11/11 12/12/12
f 12/12/12 7/7/7 6/6/6
f 13/13/13 9/9/9 10/10/10
f 10/10/10 14/14/14 13/13/13
f 11/11/11 15/15/15 16/16/16
f 16/16/16 12/12/12 11/11/11
f 17/17/17 18/18/18 19/19/19
f 19/19/19 20/20/20 17/17/17
f 21/21/21 22/22/22 23/23/23
f 23/23/23 24/24/24 21/21/21
f 25/25/25 17/17/17 20/20/20
f 20/20/20 26/26/26 25/25/25
f 27/27/27 28/28/28 29/29/29
f 30/30/30 31/31/31 16/16/16
f 16/16/16 24/24/24 30/30/30
f 32/32/32 33/33/33 34/34/34
f 34/34/34 35/35/35 32/32/32
f 20/20/20 19/19/19 36/36/36
f 36/36/36 37/37/37 20/20/20
f 38/38/38 39/39/39 40/40/40
f 40/40/40 41/41/41 38/38/38
f 42/42/42 43/43/43 44/44/44
f 44/44/44 45/45/45 42/42/42
f 39/39/39 46/46/46 47/47/47
f 47/47/47 40/40/40 39/39/39
f 48/48/48 42/42/42 45/45/45
f 45/45/45 49/49/49 48/48/48
f 46/46/46 50/50/50 51/51/51
f 51/51/51 47/47/47 46/46/46
f 2/2/2 48/48/48 49/49/49
f 49/49/49 3/3/3 2/2/2
f 50/50/50 5/5/5 8/8/8
f 8/8/8 51/51/51 50/50/50
f 52/52/52 53/53/53 54/54/54
f 55/55/55 56/56/56 57/57/57
f 57/57/57 52/52/52 55/55/55
f 56/56/56 58/58/58 59/59/59
f 59/59/59 57/57/57 56/56/56
f 58/58/58 60/60/60 61/61/61
f 61/61/61 59/59/59 58/58/58
f 60/60/60 62/62/62 36/36/36
f 36/36/36 61/61/61 60/60/60
f 63/63/63 64/64/64 65/65/65
f 65/65/65 37/37/37 63/63/63
f 15/15/15 21/21/21 24/24/24
f 24/24/24 16/16/16 15/15/15
f 18/18/18 13/13/13 14/14/14
f 14/14/14 19/19/19 18/18/18
f 31/31/31 30/30/30 66/66/66
f 66/66/66 67/67/67 31/31/31
f 62/62/62 63/63/63 37/37/37
f 37/37/37 36/36/36 62/62/62
f 29/29/29 68/68/68 27/27/27
f 28/28/28 69/69/69 70/70/70
f 70/70/70 29/29/29 28/28/28
f 69/69/69 71/71/71 72/72/72
f 72/72/72 70/70/70 69/69/69
f 71/71/71 73/73/73 74/74/74
f 74/74/74 72/72/72 71/71/71
f 73/73/73 75/75/75 76/76/76
f 76/76/76 74/74/74 73/73/73
f 75/75/75 77/77/77 78/78/78
f 78/78/78 76/76/76 75/75/75
f 77/77/77 31/31/31 67/67/67
f 67/67/67 78/78/78 77/77/77
f 30/30/30 79/79/79 80/80/80
f 80/80/80 66/66/66 30/30/30
f 81/81/81 82/82/82 83/83/83
f 83/83/83 84/84/84 81/81/81
f 82/82/82 54/54/54 53/53/53
f 53/53/53 83/83/83 82/82/82
f 54/54/54 55/55/55 52/52/52
f 85/85/85 86/86/86 87/87/87
f 87/87/87 88/88/88 85/85/85
f 86/86/86 89/89/89 90/90/90
f 90/90/90 87/87/87 86/86/86
f 90/90/90 89/89/89 91/91/91
f 91/91/91 92/92/92 90/90/90
f 93/93/93 94/94/94 95/95/95
f 95/95/95 96/96/96 93/93/93
f 41/41/41 40/40/40 28/28/28
f 28/28/28 27/27/27 41/41/41
f 40/40/40 47/47/47 69/69/69
f 69/69/69 28/28/28 40/40/40
f 47/47/47 51/51/51 71/71/71
f 71/71/71 69/69/69 47/47/47
f 51/51/51 8/8/8 73/73/73
f 73/73/73 71/71/71 51/51/51
f 8/8/8 7/7/7 75/75/75
f 75/75/75 73/73/73 8/8/8
f 7/7/7 12/12/12 77/77/77
f 97/97/97 98/98/98 99/99/99
f 100/100/100 101/101/101 97/97/97
f 100/100/100 97/97/97 99/99/99
f 102/102/102 103/103/103 100/100/100
f 102/102/102 100/100/100 99/99/99
f 104/104/104 102/102/102 99/99/99
f 105/105/105 106/106/106 107/107/107
f 108/108/108 109/109/109 105/105/105
f 108/108/108 105/105/105 107/107/107
f 110/110/110 111/111/111 108/108/108
f 110/110/110 108/108/108 107/107/107
f 112/112/112 110/110/110 107/107/107
f 113/113/113 114/114/114 115/115/115
f 115/115/115 116/116/116 113/113/113
f 114/114/114 117/117/117 118/118/118
f 118/118/118 115/115/115 114/114/114
f 117/117/117 119/119/119 120/120/120
f 120/120/120 118/118/118 117/117/117
f 119/119/119 85/85/85 88/88/88
f 88/88/88 120/120/120 119/119/119
f 121/121/121 32/32/32 35/35/35
f 84/84/84 83/83/83 45/45/45
f 45/45/45 44/44/44 84/84/84
f 83/83/83 53/53/53 49/49/49
f 49/49/49 45/45/45 83/83/83
f 53/53/53 52/52/52 3/3/3
f 3/3/3 49/49/49 53/53/53
f 52/52/52 57/57/57 4/4/4
f 4/4/4 3/3/3 52/52/52
f 57/57/57 59/59/59 10/10/10
f 10/10/10 4/4/4 57/57/57
f 59/59/59 61/61/61 14/14/14
f 14/14/14 10/10/10 59/59/59
f 61/61/61 36/36/36 19/19/19
f 19/19/19 14/14/14 61/61/61
f 37/37/37 65/65/65 26/26/26
f 26/26/26 20/20/20 37/37/37
f 92/92/92 91/91/91 93/93/93
f 93/93/93 96/96/96 92/92/92
f 77/77/77 75/75/75 7/7/7
f 77/77/77 12/12/12 16/16/16
f 16/16/16 31/31/31 77/77/77
f 24/24/24 23/23/23 79/79/79
f 79/79/79 30/30/30 24/24/24
f 122/122/122 123/123/123 124/124/124
f 124/124/124 125/125/125 122/122/122
f 123/123/123 126/126/126 127/127/127
f 127/127/127 124/124/124 123/123/123
f 126/126/126 128/128/128 129/129/129
f 129/129/129 127/127/127 126/126/126
f 128/128/128 130/130/130 131/131/131
f 131/131/131 129/129/129 128/128/128
f 130/130/130 132/132/132 133/133/133
f 133/133/133 131/131/131 130/130/130
f 132/132/132 134/134/134 135/135/135
f 135/135/135 133/133/133 132/132/132
f 134/134/134 34/34/34 33/33/33
f 33/33/33 135/135/135 134/134/134
f 35/35/35 136/136/136 121/121/121
