# This file uses centimeters as units for non-parametric coordinates.

g default
v 4.470587 0.000000 -6.595776
v 3.574621 0.000000 -4.891810
v 4.581297 0.103718 -6.444741
v 3.726673 0.103718 -4.811915
v 2.506742 0.103718 -3.580571
v 2.432907 0.000000 -3.762199
v 5.666683 0.103718 -6.592985
v 6.646566 0.103718 -5.930915
v 5.760132 0.000000 -6.716319
v 6.812410 0.000000 -6.024070
v 6.838678 0.000000 -4.360844
v 6.641773 0.103718 -4.317763
v 7.279623 0.103718 -2.347034
v 7.474773 -0.000000 -2.392070
v 7.313162 0.000000 -1.079261
v 7.121914 0.103718 -1.089982
v 6.734083 0.000000 0.381371
v 6.593857 0.103718 0.254365
v 5.426434 0.000000 1.282769
v 5.371401 0.103718 1.106490
v 3.731834 -0.000000 1.415212
v 2.105232 0.103718 1.403939
v 2.198231 -0.000000 1.637084
v 1.308756 0.103718 2.265981
v 1.453409 -0.000000 2.428372
v 0.474205 0.103718 4.131619
v 0.690619 0.000000 4.128358
v -0.485847 0.000000 5.985825
v -0.627701 0.103718 5.776566
v -1.263741 0.103718 6.416252
v -1.199432 0.000000 6.639359
v -2.633026 0.000000 6.478573
v -2.614250 0.103718 6.276512
v -4.000565 0.103718 6.533737
v -4.121849 0.000000 6.716320
v -5.241327 -0.000000 5.723816
v -5.068138 0.103718 5.532623
v -6.173973 0.000000 4.471658
v -5.983450 0.103718 4.310803
v -7.301651 0.103718 3.743447
v -7.474773 0.000000 3.881444
v -7.389057 -0.000000 1.957358
v -7.188828 0.103718 1.997766
v -6.498352 -0.000000 -0.074742
v -6.346409 0.103718 0.022086
v -4.996735 -0.000000 -1.936994
v -4.930088 0.103718 -1.728475
v -2.396961 0.000000 -2.201398
v -2.352718 0.103718 -1.999379
v -0.837706 0.103718 -2.699929
v -0.860733 0.000000 -2.951949
v 1.341984 0.103718 -3.081847
v 1.305267 0.000000 -3.279671
vt 0.434217 0.433363
vt 0.407651 0.486877
vt 0.428356 0.432852
vt 0.402826 0.484023
vt 0.394186 0.538515
vt 0.400140 0.537491
vt 0.412089 0.400354
vt 0.377277 0.384445
vt 0.413484 0.395690
vt 0.376574 0.378289
vt 0.334031 0.405628
vt 0.336573 0.411797
vt 0.274975 0.427422
vt 0.272515 0.421269
vt 0.242298 0.447887
vt 0.246096 0.452991
vt 0.216041 0.488536
vt 0.221839 0.490269
vt 0.217362 0.539885
vt 0.222834 0.538432
vt 0.245263 0.588954
vt 0.275545 0.633718
vt 0.267934 0.635081
vt 0.268434 0.670275
vt 0.261660 0.669018
vt 0.236647 0.724820
vt 0.232738 0.718784
vt 0.207463 0.782639
vt 0.215371 0.783029
vt 0.210924 0.811401
vt 0.204096 0.813388
vt 0.234599 0.850295
vt 0.239363 0.846366
vt 0.258423 0.889020
vt 0.256043 0.895453
vt 0.301786 0.909645
vt 0.303426 0.901632
vt 0.350649 0.914292
vt 0.351203 0.906312
vt 0.389859 0.933170
vt 0.389562 0.940283
vt 0.436636 0.905448
vt 0.431922 0.900596
vt 0.471597 0.846543
vt 0.466347 0.843977
vt 0.490997 0.773620
vt 0.484495 0.775297
vt 0.449740 0.697309
vt 0.443816 0.699495
vt 0.433592 0.645804
vt 0.440390 0.642188
vt 0.403054 0.579120
vt 0.408733 0.576797
vn -0.274674 0.855556 -0.438837
vn -0.417988 0.853899 -0.310070
vn -0.039233 0.997061 -0.065808
vn -0.019162 0.999725 -0.013501
vn -0.007367 0.999913 -0.010922
vn -0.285012 0.877664 -0.385322
vn 0.006444 0.994645 -0.103152
vn 0.110088 0.992692 -0.049432
vn 0.113628 0.831588 -0.543645
vn 0.435581 0.877340 -0.201354
vn 0.453092 0.888022 -0.078263
vn 0.031241 0.999496 -0.005707
vn 0.033185 0.999440 -0.004332
vn 0.454693 0.887583 -0.073828
vn 0.468457 0.875384 0.119377
vn 0.022587 0.999724 0.006416
vn 0.368501 0.876998 0.308353
vn 0.020276 0.999663 0.016215
vn 0.153587 0.872323 0.464180
vn 0.006003 0.999823 0.017843
vn 0.049612 0.841216 0.538419
vn 0.003245 0.999964 0.007816
vn 0.166967 0.923571 0.345163
vn 0.011761 0.999903 0.007423
vn 0.390966 0.893127 0.222418
vn 0.016677 0.999816 0.009529
vn 0.424345 0.878522 0.219389
vn 0.316636 0.915100 0.249666
vn 0.021380 0.999646 0.015845
vn 0.014145 0.998225 0.057847
vn 0.086927 0.912713 0.399247
vn 0.023022 0.887630 0.459981
vn 0.003571 0.993382 0.114805
vn -0.025225 0.993267 0.113067
vn -0.164646 0.900612 0.402231
vn -0.280638 0.925994 0.252541
vn -0.018712 0.999690 0.016446
vn -0.238355 0.919336 0.313063
vn -0.006345 0.999953 0.007347
vn -0.096520 0.994401 0.043027
vn -0.372019 0.903592 0.212421
vn -0.440961 0.890139 -0.114917
vn -0.017109 0.999843 -0.004593
vn -0.423978 0.867526 -0.260080
vn -0.013165 0.999881 -0.008004
vn -0.171559 0.902747 -0.394482
vn -0.010044 0.999782 -0.018322
vn -0.105482 0.895232 -0.432935
vn -0.003078 0.999907 -0.013273
vn -0.007477 0.999702 -0.023237
vn -0.105735 0.921840 -0.372869
vn -0.004636 0.999805 -0.019195
vn -0.113087 0.888441 -0.444841
s 1
g Trees05_Collision
f 1/1/1 2/2/2 3/3/3
f 3/3/3 2/2/2 4/4/4
f 4/4/4 2/2/2 5/5/5
f 2/2/2 6/6/6 5/5/5
f 7/7/7 8/8/8 9/9/9
f 9/9/9 8/8/8 10/10/10
f 10/10/10 8/8/8 11/11/11
f 8/8/8 12/12/12 11/11/11
f 12/12/12 13/13/13 11/11/11
f 11/11/11 13/13/13 14/14/14
f 14/14/14 13/13/13 15/15/15
f 13/13/13 16/16/16 15/15/15
f 15/15/15 16/16/16 17/17/17
f 16/16/16 18/18/18 17/17/17
f 17/17/17 18/18/18 19/19/19
f 18/18/18 20/20/20 19/19/19
f 19/19/19 20/20/20 21/21/21
f 20/20/20 22/22/22 21/21/21
f 21/21/21 22/22/22 23/23/23
f 22/22/22 24/24/24 23/23/23
f 23/23/23 24/24/24 25/25/25
f 24/24/24 26/26/26 25/25/25
f 25/25/25 26/26/26 27/27/27
f 27/27/27 26/26/26 28/28/28
f 26/26/26 29/29/29 28/28/28
f 29/29/29 30/30/30 28/28/28
f 28/28/28 30/30/30 31/31/31
f 31/31/31 30/30/30 32/32/32
f 30/30/30 33/33/33 32/32/32
f 33/33/33 34/34/34 32/32/32
f 32/32/32 34/34/34 35/35/35
f 35/35/35 34/34/34 36/36/36
f 34/34/34 37/37/37 36/36/36
f 36/36/36 37/37/37 38/38/38
f 37/37/37 39/39/39 38/38/38
f 39/39/39 40/40/40 38/38/38
f 38/38/38 40/40/40 41/41/41
f 41/41/41 40/40/40 42/42/42
f 40/40/40 43/43/43 42/42/42
f 42/42/42 43/43/43 44/44/44
f 43/43/43 45/45/45 44/44/44
f 44/44/44 45/45/45 46/46/46
f 45/45/45 47/47/47 46/46/46
f 46/46/46 47/47/47 48/48/48
f 47/47/47 49/49/49 48/48/48
f 49/49/49 50/50/50 48/48/48
f 48/48/48 50/50/50 51/51/51
f 50/50/50 52/52/52 51/51/51
f 51/51/51 52/52/52 53/53/53
f 52/52/52 5/5/5 53/53/53
f 5/5/5 6/6/6 53/53/53
f 1/1/1 3/3/3 7/7/7 9/9/9
f 40/40/40 39/39/39 43/43/43
f 8/8/8 7/7/7 12/12/12
f 7/7/7 3/3/3 12/12/12
f 3/3/3 4/4/4 12/12/12
f 12/12/12 4/4/4 13/13/13
f 4/4/4 5/5/5 13/13/13
f 13/13/13 5/5/5 16/16/16
f 16/16/16 5/5/5 18/18/18
f 18/18/18 5/5/5 20/20/20
f 20/20/20 5/5/5 22/22/22
f 5/5/5 52/52/52 22/22/22
f 52/52/52 50/50/50 22/22/22
f 50/50/50 49/49/49 22/22/22
f 22/22/22 49/49/49 24/24/24
f 24/24/24 49/49/49 26/26/26
f 49/49/49 47/47/47 26/26/26
f 47/47/47 45/45/45 26/26/26
f 45/45/45 43/43/43 26/26/26
f 43/43/43 39/39/39 26/26/26
f 39/39/39 37/37/37 26/26/26
f 26/26/26 37/37/37 29/29/29
f 29/29/29 37/37/37 30/30/30
f 30/30/30 37/37/37 33/33/33
f 37/37/37 34/34/34 33/33/33
