# This file uses centimeters as units for non-parametric coordinates.

g default
v -0.711262 -0.000002 2.161347
v -0.639286 0.141661 1.896571
v -2.939808 -0.000002 1.245673
v -2.770710 0.141661 1.018527
v -3.678463 -0.000002 0.340627
v -3.402225 0.141661 0.319631
v -3.541447 0.000000 -1.318053
v -3.282215 0.141668 -1.155259
v -2.438953 -0.000000 -2.002048
v -2.361271 0.141668 -1.767106
v -0.175251 0.000000 -2.161347
v -0.187168 0.141668 -1.911189
v 2.461819 -0.000000 -1.498366
v 2.372723 0.141668 -1.247998
v 3.678463 -0.000000 -0.270621
v 3.449932 0.141668 -0.203259
v 3.554882 -0.000000 1.649230
v 3.351025 0.141668 1.485629
v 1.360928 0.000000 2.098420
v 1.340755 0.141668 1.859551
vt 0.040593 0.555869
vt 0.049263 0.554339
vt 0.060742 0.636323
vt 0.068607 0.631296
vt 0.086470 0.665175
vt 0.088232 0.655691
vt 0.139540 0.666458
vt 0.135413 0.656895
vt 0.165577 0.630786
vt 0.158445 0.627244
vt 0.179608 0.553019
vt 0.171639 0.552523
vt 0.169083 0.459344
vt 0.160801 0.461518
vt 0.135034 0.412778
vt 0.131993 0.420442
vt 0.073747 0.410081
vt 0.078119 0.417730
vt 0.050812 0.484380
vt 0.058297 0.485946
vn -0.094542 0.888245 0.449536
vn -0.004576 0.999699 0.024090
vn -0.236767 0.893605 0.381330
vn -0.014223 0.999628 0.023284
vn -0.444926 0.892908 0.068963
vn -0.067901 0.997534 0.017751
vn -0.365686 0.907457 -0.206871
vn -0.067558 0.997022 -0.037178
vn -0.117524 0.869385 -0.479955
vn -0.006517 0.999620 -0.026803
vn 0.050826 0.869757 -0.490856
vn 0.002867 0.999666 -0.025692
vn 0.199074 0.880902 -0.429395
vn 0.013987 0.999549 -0.026588
vn 0.485912 0.861660 -0.146395
vn 0.041664 0.999030 -0.014275
vn 0.336566 0.878556 0.338913
vn 0.040349 0.998202 0.044322
vn 0.052194 0.860455 0.506846
vn 0.002361 0.999738 0.022773
s 1
g Shrubs02_Collision
f 1/1/1 2/2/2 3/3/3
f 2/2/2 4/4/4 3/3/3
f 3/3/3 4/4/4 5/5/5
f 4/4/4 6/6/6 5/5/5
f 5/5/5 6/6/6 7/7/7
f 6/6/6 8/8/8 7/7/7
f 7/7/7 8/8/8 9/9/9
f 8/8/8 10/10/10 9/9/9
f 9/9/9 10/10/10 11/11/11
f 10/10/10 12/12/12 11/11/11
f 11/11/11 12/12/12 13/13/13
f 12/12/12 14/14/14 13/13/13
f 13/13/13 14/14/14 15/15/15
f 14/14/14 16/16/16 15/15/15
f 15/15/15 16/16/16 17/17/17
f 16/16/16 18/18/18 17/17/17
f 17/17/17 18/18/18 19/19/19
f 18/18/18 20/20/20 19/19/19
f 14/14/14 20/20/20 18/18/18 16/16/16
f 1/1/1 19/19/19 2/2/2
f 2/2/2 19/19/19 20/20/20
f 4/4/4 10/10/10 8/8/8 6/6/6
f 2/2/2 12/12/12 10/10/10 4/4/4
f 2/2/2 20/20/20 14/14/14 12/12/12
