# This file uses centimeters as units for non-parametric coordinates.

g default
v -2.376152 0.000000 0.591427
v -1.992821 0.000008 2.579304
v -2.119804 0.119822 0.562206
v -1.751915 0.119822 2.399338
v -1.134666 0.000008 2.931908
v -1.054436 0.119822 2.651463
v -0.428429 0.000000 2.594570
v -0.512917 0.119822 2.436209
v 0.485527 0.000000 2.067554
v 0.346336 0.119822 1.887255
v 1.756477 -0.000000 0.950758
v 1.581764 0.119822 0.782825
v 2.254723 -0.000000 -0.243029
v 2.049797 0.119822 -0.313671
v 2.376152 0.000000 -1.846287
v 2.140343 0.119822 -1.761473
v 1.156914 0.000000 -2.630487
v 1.033272 0.119822 -2.420412
v -0.149803 0.000000 -2.931908
v -0.107933 0.119822 -2.714457
v -1.673759 -0.000000 -2.227562
v -1.488060 0.119822 -2.027561
v -2.329369 -0.000000 -0.913366
v -2.106712 0.119822 -0.808062
vt 0.682490 0.635541
vt 0.695307 0.574723
vt 0.691062 0.636434
vt 0.703362 0.580229
vt 0.724001 0.563935
vt 0.726684 0.572515
vt 0.747615 0.574256
vt 0.744790 0.579101
vt 0.778176 0.590379
vt 0.773522 0.595896
vt 0.820672 0.624547
vt 0.814831 0.629685
vt 0.837332 0.661070
vt 0.830480 0.663231
vt 0.841393 0.710121
vt 0.833508 0.707526
vt 0.800625 0.734113
vt 0.796490 0.727686
vt 0.756933 0.743335
vt 0.758333 0.736682
vt 0.705977 0.721786
vt 0.712186 0.715667
vt 0.684054 0.681579
vt 0.691499 0.678357
vn -0.420793 0.905964 0.046500
vn -0.330860 0.926932 0.177000
vn -0.216893 0.975908 0.023693
vn -0.042782 0.998787 0.024373
vn -0.022482 0.918609 0.394528
vn 0.004864 0.998949 0.045588
vn 0.250350 0.838246 0.484426
vn 0.166062 0.931768 0.322848
vn 0.288824 0.882920 0.370181
vn 0.115698 0.982208 0.147924
vn 0.350483 0.894886 0.276299
vn 0.074432 0.995740 0.054421
vn 0.472569 0.874633 0.108145
vn 0.025551 0.999659 0.005365
vn 0.398755 0.900676 -0.172563
vn 0.113937 0.991521 -0.062487
vn 0.172945 0.893485 -0.414457
vn 0.009171 0.999678 -0.023679
vn -0.080203 0.881528 -0.465269
vn -0.005161 0.999309 -0.036813
vn -0.281935 0.913907 -0.292039
vn -0.030079 0.999086 -0.030363
vn -0.425967 0.897122 -0.117154
vn -0.077882 0.996815 -0.017164
s 1
g Trees03_Collision
f 1/1/1 2/2/2 3/3/3
f 3/3/3 2/2/2 4/4/4
f 2/2/2 5/5/5 4/4/4
f 4/4/4 5/5/5 6/6/6
f 5/5/5 7/7/7 6/6/6
f 6/6/6 7/7/7 8/8/8
f 7/7/7 9/9/9 8/8/8
f 8/8/8 9/9/9 10/10/10
f 9/9/9 11/11/11 10/10/10
f 10/10/10 11/11/11 12/12/12
f 11/11/11 13/13/13 12/12/12
f 12/12/12 13/13/13 14/14/14
f 13/13/13 15/15/15 14/14/14
f 14/14/14 15/15/15 16/16/16
f 15/15/15 17/17/17 16/16/16
f 16/16/16 17/17/17 18/18/18
f 17/17/17 19/19/19 18/18/18
f 18/18/18 19/19/19 20/20/20
f 19/19/19 21/21/21 20/20/20
f 20/20/20 21/21/21 22/22/22
f 21/21/21 23/23/23 22/22/22
f 23/23/23 24/24/24 22/22/22
f 16/16/16 18/18/18 14/14/14
f 8/8/8 10/10/10 6/6/6
f 10/10/10 12/12/12 6/6/6
f 3/3/3 4/4/4 24/24/24
f 24/24/24 4/4/4 22/22/22
f 12/12/12 14/14/14 6/6/6
f 6/6/6 14/14/14 4/4/4
f 22/22/22 4/4/4 20/20/20
f 20/20/20 4/4/4 18/18/18
f 4/4/4 14/14/14 18/18/18
f 3/3/3 24/24/24 1/1/1
f 1/1/1 24/24/24 23/23/23
