# This file uses centimeters as units for non-parametric coordinates.

g default
v -0.349865 0.118345 4.654332
v -2.169537 0.118345 5.119187
v -0.282162 0.000000 5.014379
v -2.098202 -0.000000 5.485852
v -3.849911 -0.000000 5.405393
v -3.738247 0.118345 5.079808
v -5.607357 0.000000 4.200437
v -5.360851 0.118345 3.970147
v -6.990383 0.000000 1.775926
v -6.671917 0.118345 1.700742
v -7.285244 0.000000 -0.731093
v -6.947689 0.118345 -0.682296
v 1.539448 0.118345 3.906907
v 1.524372 0.000000 4.220319
v 4.895023 0.118345 4.339780
v 3.091740 0.000000 4.378373
v 4.922718 0.000000 4.644002
v 6.475971 0.000000 4.122670
v 6.303730 0.118345 3.856622
v 7.265461 0.000000 2.644895
v 6.929691 0.118345 2.528092
v 6.970722 -0.000000 0.676805
v 6.637272 0.118345 0.771592
v 5.849247 0.000000 -0.689143
v 5.717319 0.118345 -0.313262
v 4.293858 -0.000000 -0.747638
v 4.414158 0.118345 -0.428016
v 3.354237 -0.000000 0.643571
v 3.613117 0.118345 0.801328
v -6.923748 0.000000 -2.987914
v -6.631512 0.118345 -2.832004
v -5.616497 0.000000 -4.763539
v -5.327679 0.118345 -4.581624
v -3.748394 0.000008 -5.485852
v -3.731441 0.118345 -5.091264
v -1.051739 0.000008 -4.377841
v -1.305325 0.118345 -4.123652
v -0.758114 0.000000 -3.456717
v -1.099834 0.118345 -3.229728
v 0.143559 0.118345 -1.653590
v 0.529438 0.000000 -1.801795
v 0.983982 0.118345 0.108560
v 1.328419 -0.000000 -0.025889
v 1.604435 0.000000 1.696977
v 1.228458 0.118345 1.979276
v 2.563053 0.118345 2.514005
v 2.472538 0.000000 2.083268
vt 0.718777 0.298390
vt 0.657933 0.284168
vt 0.721039 0.287375
vt 0.660318 0.272951
vt 0.601746 0.275412
vt 0.605481 0.285373
vt 0.542983 0.312276
vt 0.551226 0.319322
vt 0.496740 0.386453
vt 0.507388 0.388753
vt 0.486880 0.463153
vt 0.498167 0.461660
vt 0.781948 0.321257
vt 0.781444 0.311669
vt 0.894148 0.308013
vt 0.833851 0.306833
vt 0.895074 0.298706
vt 0.947011 0.314656
vt 0.941251 0.322795
vt 0.973407 0.359868
vt 0.962181 0.363441
vt 0.963553 0.420079
vt 0.952404 0.417179
vt 0.926054 0.461870
vt 0.921643 0.450370
vt 0.874047 0.463660
vt 0.878070 0.453881
vt 0.842629 0.421097
vt 0.851286 0.416270
vt 0.498966 0.532199
vt 0.508739 0.527429
vt 0.542678 0.586523
vt 0.552335 0.580958
vt 0.605140 0.608622
vt 0.605708 0.596550
vt 0.695307 0.574723
vt 0.686828 0.566946
vt 0.705125 0.546542
vt 0.693699 0.539597
vt 0.735276 0.491376
vt 0.748178 0.495911
vt 0.763375 0.437465
vt 0.774892 0.441578
vt 0.784121 0.388868
vt 0.771550 0.380231
vt 0.816175 0.363872
vt 0.813149 0.377050
vn 0.005463 0.999865 0.015520
vn 0.016249 0.987724 0.155362
vn 0.099404 0.950807 0.293403
vn 0.035648 0.953060 0.300676
vn -0.113214 0.946416 0.302455
vn -0.020328 0.998281 0.054966
vn -0.251827 0.943557 0.215137
vn -0.026346 0.999402 0.022415
vn -0.323908 0.940275 0.104721
vn -0.021460 0.999742 0.007454
vn -0.329804 0.944001 -0.009599
vn -0.141137 0.989989 -0.001106
vn 0.001647 0.998662 0.051688
vn 0.032018 0.935295 0.352418
vn 0.004195 0.998322 0.057751
vn -0.048119 0.884524 0.464006
vn 0.027273 0.932456 0.360252
vn 0.223551 0.935762 0.272716
vn 0.033129 0.998837 0.035023
vn 0.322635 0.945373 0.046651
vn 0.042536 0.999090 0.003049
vn 0.301883 0.945000 -0.125862
vn 0.046409 0.998678 -0.022119
vn 0.111890 0.957941 -0.264254
vn 0.031346 0.997600 -0.061736
vn -0.141465 0.947199 -0.287754
vn -0.060912 0.992919 -0.101987
vn -0.308911 0.930841 -0.195215
vn -0.026800 0.999498 -0.016897
vn -0.308282 0.941899 -0.133376
vn -0.048373 0.998643 -0.019306
vn -0.227747 0.940579 -0.251878
vn -0.020266 0.999364 -0.029335
vn 0.034235 0.955567 -0.292780
vn 0.003484 0.999728 -0.023058
vn 0.176836 0.948759 -0.261889
vn 0.014335 0.999698 -0.019982
vn 0.244264 0.959353 -0.141342
vn 0.011133 0.999915 -0.006806
vn 0.010689 0.999920 -0.006834
vn 0.240647 0.959688 -0.145217
vn 0.126837 0.991199 -0.037919
vn 0.291346 0.952206 -0.091774
vn 0.208404 0.968793 -0.134193
vn 0.004652 0.999985 -0.003000
vn -0.004772 0.999942 -0.009670
vn -0.165808 0.959278 -0.228680
s 1
g Trees04_Collision
f 1/1/1 2/2/2 3/3/3
f 3/3/3 2/2/2 4/4/4
f 4/4/4 2/2/2 5/5/5
f 2/2/2 6/6/6 5/5/5
f 5/5/5 6/6/6 7/7/7
f 6/6/6 8/8/8 7/7/7
f 7/7/7 8/8/8 9/9/9
f 8/8/8 10/10/10 9/9/9
f 9/9/9 10/10/10 11/11/11
f 10/10/10 12/12/12 11/11/11
f 13/13/13 14/14/14 15/15/15
f 14/14/14 16/16/16 15/15/15
f 16/16/16 17/17/17 15/15/15
f 17/17/17 18/18/18 15/15/15
f 15/15/15 18/18/18 19/19/19
f 18/18/18 20/20/20 19/19/19
f 19/19/19 20/20/20 21/21/21
f 20/20/20 22/22/22 21/21/21
f 21/21/21 22/22/22 23/23/23
f 22/22/22 24/24/24 23/23/23
f 23/23/23 24/24/24 25/25/25
f 24/24/24 26/26/26 25/25/25
f 25/25/25 26/26/26 27/27/27
f 26/26/26 28/28/28 27/27/27
f 27/27/27 28/28/28 29/29/29
f 11/11/11 12/12/12 30/30/30
f 12/12/12 31/31/31 30/30/30
f 30/30/30 31/31/31 32/32/32
f 31/31/31 33/33/33 32/32/32
f 32/32/32 33/33/33 34/34/34
f 33/33/33 35/35/35 34/34/34
f 34/34/34 35/35/35 36/36/36
f 35/35/35 37/37/37 36/36/36
f 36/36/36 37/37/37 38/38/38
f 37/37/37 39/39/39 38/38/38
f 39/39/39 40/40/40 38/38/38
f 38/38/38 40/40/40 41/41/41
f 40/40/40 42/42/42 41/41/41
f 41/41/41 42/42/42 43/43/43
f 43/43/43 42/42/42 44/44/44
f 42/42/42 45/45/45 44/44/44
f 45/45/45 46/46/46 44/44/44
f 44/44/44 46/46/46 47/47/47
f 46/46/46 29/29/29 47/47/47
f 29/29/29 28/28/28 47/47/47
f 27/27/27 29/29/29 25/25/25
f 25/25/25 29/29/29 23/23/23
f 23/23/23 29/29/29 21/21/21
f 29/29/29 46/46/46 21/21/21
f 21/21/21 46/46/46 19/19/19
f 19/19/19 46/46/46 15/15/15
f 15/15/15 46/46/46 13/13/13
f 46/46/46 45/45/45 13/13/13
f 13/13/13 45/45/45 1/1/1
f 42/42/42 40/40/40 45/45/45
f 45/45/45 40/40/40 10/10/10
f 12/12/12 10/10/10 31/31/31
f 2/2/2 1/1/1 6/6/6
f 6/6/6 1/1/1 8/8/8
f 31/31/31 10/10/10 33/33/33
f 1/1/1 45/45/45 10/10/10
f 8/8/8 1/1/1 10/10/10
f 33/33/33 10/10/10 35/35/35
f 39/39/39 10/10/10 40/40/40
f 35/35/35 10/10/10 37/37/37
f 39/39/39 37/37/37 10/10/10
f 13/13/13 1/1/1 14/14/14
f 14/14/14 1/1/1 3/3/3
