# Blender 4.2.3 LTS
# www.blender.org
o rec_50x75
v -1.000000 0.003986 1.500000
v -0.948614 0.128861 1.422920
v -1.000000 0.003986 -1.500000
v -0.948614 0.128861 -1.422920
v 1.000000 0.003986 1.500000
v 0.948614 0.128861 1.422920
v 1.000000 0.003986 -1.500000
v 0.948614 0.128861 -1.422920
vn -0.9248 0.3805 -0.0000
vn -0.0000 0.5253 -0.8509
vn 0.9248 0.3805 -0.0000
vn -0.0000 0.5253 0.8509
vn -0.0000 -1.0000 -0.0000
vn -0.0000 1.0000 -0.0000
vt 0.254273 0.001296
vt 0.251165 0.001390
vt 0.251165 0.004875
vt 0.254273 0.004970
vt 0.254198 0.001288
vt 0.251090 0.001382
vt 0.251090 0.004875
vt 0.254198 0.004970
vt 0.254145 0.001280
vt 0.251037 0.001375
vt 0.251037 0.004860
vt 0.254145 0.004954
vt 0.254152 0.001319
vt 0.251045 0.001413
vt 0.251045 0.004906
vt 0.254152 0.005001
vt 0.194358 0.190101
vt 0.194358 0.204551
vt 0.179941 0.204551
vt 0.179941 0.190101
vt 0.000884 0.248185
vt 0.000884 0.000886
vt 0.249129 0.000886
vt 0.249129 0.248185
s 0
f 1/1/1 2/2/1 4/3/1 3/4/1
f 3/5/2 4/6/2 8/7/2 7/8/2
f 7/9/3 8/10/3 6/11/3 5/12/3
f 5/13/4 6/14/4 2/15/4 1/16/4
f 3/17/5 7/18/5 5/19/5 1/20/5
f 8/21/6 4/22/6 2/23/6 6/24/6
o mtt
v -0.006419 0.486350 1.202389
v -0.174072 0.514621 1.162713
v -0.006419 0.429299 1.191177
v -0.148741 0.558781 1.178225
v -0.243518 0.720608 1.093992
v -0.207694 0.733645 1.119887
v -0.148741 0.908509 1.061550
v -0.174072 0.926594 1.025272
v -0.006419 0.980940 1.037385
v -0.006419 1.011917 0.996807
v -0.006419 0.611356 1.200052
v -0.086564 0.652144 1.186444
v -0.119762 0.750615 1.153593
v -0.086564 0.849087 1.120741
v -0.006419 0.889875 1.107133
v -0.006419 0.756156 1.164598
v -0.006419 0.429299 1.191177
v 0.161234 0.514621 1.162713
v -0.006419 0.486350 1.202389
v 0.135903 0.558781 1.178225
v -0.006419 0.611356 1.200052
v 0.073725 0.652144 1.186444
v -0.006419 0.756156 1.164598
v 0.106923 0.750615 1.153593
v 0.073725 0.849086 1.120741
v -0.006419 0.889875 1.107133
v 0.230680 0.720608 1.093992
v 0.194856 0.733645 1.119887
v 0.135903 0.908509 1.061550
v -0.006419 0.980940 1.037385
v 0.161234 0.926594 1.025272
v -0.006419 1.011917 0.996807
v -0.124226 0.947718 1.004866
v -0.006419 1.011917 0.996807
v -0.006419 1.007673 0.984864
v -0.174072 0.926594 1.025272
v -0.174944 0.921907 1.013477
v -0.244751 0.714849 1.082554
v -0.243518 0.720608 1.093992
v -0.174072 0.514621 1.162713
v -0.174944 0.507791 1.151632
v -0.006419 0.429299 1.191177
v -0.006419 0.422025 1.180245
v -0.006419 1.007673 0.984864
v -0.006419 1.011917 0.996807
v 0.111387 0.947718 1.004866
v 0.161234 0.926594 1.025272
v 0.162106 0.921907 1.013477
v 0.231913 0.714849 1.082554
v 0.230680 0.720608 1.093992
v 0.161234 0.514621 1.162713
v 0.162106 0.507791 1.151632
v -0.006419 0.429299 1.191177
v -0.006419 0.422025 1.180245
v -0.126540 0.341132 -1.324469
v -0.126541 0.340925 -1.344223
v -0.126467 0.298221 -1.344220
v 0.114989 0.341381 -1.344236
v 0.114990 0.341587 -1.324482
v 0.115063 0.298676 -1.344233
v 0.419613 0.363724 0.492420
v 0.390980 0.273443 0.492426
v 0.173331 0.242957 0.492439
v 0.405875 0.431482 0.437401
v 0.405871 0.431478 0.393003
v 0.334971 0.440499 0.393006
v 0.335279 0.264175 0.393015
v 0.406147 0.273464 0.393011
v 0.406151 0.273467 0.437410
v 0.215555 0.436127 -1.267994
v 0.114990 0.341587 -1.324482
v 0.207443 0.432144 -1.234719
v 0.200556 0.464072 0.230284
v 0.397210 0.464442 0.230274
v 0.222317 0.645185 0.691078
v 0.391000 0.273465 0.771586
v 0.419633 0.363746 0.771579
v 0.173351 0.242980 0.771599
v -0.417482 0.429926 0.393046
v -0.417479 0.429929 0.437445
v -0.346613 0.439214 0.393042
v -0.417206 0.271911 0.393054
v -0.346305 0.262890 0.393051
v -0.417203 0.271914 0.437453
v -0.126540 0.341132 -1.324469
v -0.227426 0.435291 -1.267970
v -0.219296 0.431339 -1.234697
v -0.408960 0.462921 0.230316
v -0.212305 0.463293 0.230306
v -0.234632 0.644323 0.691102
v -0.408960 0.462921 0.230316
v -0.207333 0.204025 0.230320
v -0.212305 0.463293 0.230306
v -0.402024 0.271947 0.492468
v -0.430972 0.362120 0.492464
v -0.184270 0.242283 0.492458
v -0.430951 0.362142 0.771624
v -0.402003 0.271970 0.771627
v -0.184249 0.242305 0.771618
v 0.161825 0.509021 1.153455
v -0.005734 0.454270 1.141619
v -0.005677 0.423594 1.182348
v 0.136459 0.526791 1.117092
v -0.005900 0.544821 1.071428
v 0.074172 0.585659 1.057616
v -0.006139 0.678113 1.013312
v 0.107195 0.683949 1.024282
v 0.073822 0.782114 0.990953
v -0.006395 0.822650 0.977153
v 0.230904 0.714628 1.083726
v 0.195101 0.701333 1.057898
v 0.135837 0.875653 0.998713
v -0.006613 0.947636 0.974206
v 0.161093 0.919974 1.014007
v -0.006712 1.004769 0.985139
v -0.173481 0.508389 1.153480
v -0.005677 0.423594 1.182348
v -0.005734 0.454270 1.141619
v -0.148185 0.526254 1.117113
v -0.243293 0.713734 1.083761
v -0.207449 0.700574 1.057927
v -0.148806 0.875116 0.998734
v -0.174213 0.919341 1.014032
v -0.006613 0.947636 0.974206
v -0.006712 1.004769 0.985139
v -0.005900 0.544821 1.071428
v -0.086117 0.585357 1.057628
v -0.119490 0.683522 1.024299
v -0.086467 0.781812 0.990965
v -0.006395 0.822650 0.977153
v -0.006139 0.678113 1.013312
v -0.006712 1.004769 0.985139
v 0.111189 0.952539 1.016321
v -0.006724 1.012123 0.996036
v 0.161093 0.919974 1.014007
v 0.161953 0.926887 1.025054
v 0.232128 0.720474 1.095135
v 0.230904 0.714628 1.083726
v 0.161825 0.509021 1.153455
v 0.162689 0.513797 1.165227
v -0.005677 0.423594 1.182348
v -0.005683 0.427925 1.194271
v -0.006712 1.004769 0.985139
v -0.006724 1.012123 0.996036
v -0.124423 0.952094 1.016338
v -0.174213 0.919341 1.014032
v -0.175096 0.926251 1.025079
v -0.244535 0.719575 1.095171
v -0.243293 0.713734 1.083761
v -0.173481 0.508389 1.153480
v -0.174360 0.513161 1.165252
v -0.005677 0.423594 1.182348
v -0.005683 0.427925 1.194271
v 0.187426 0.848428 -0.979722
v -0.005927 0.431742 -1.234708
v -0.006635 0.848063 -0.979712
v 0.207443 0.432144 -1.234719
v 0.114990 0.341587 -1.324482
v -0.005775 0.341360 -1.324475
v -0.005927 0.431742 -1.234708
v -0.200696 0.847697 -0.979702
v -0.006635 0.848063 -0.979712
v -0.219296 0.431339 -1.234697
v -0.126540 0.341132 -1.324469
v -0.005775 0.341360 -1.324475
v 0.321460 0.227478 1.284043
v 0.329166 0.219521 1.421662
v 0.329156 0.219510 1.284043
v 0.321470 0.227489 1.421662
v 0.329166 0.219521 1.421662
v 0.321498 0.211523 1.421663
v 0.329156 0.219510 1.284043
v 0.321488 0.211512 1.284044
v 0.313792 0.219481 1.284044
v 0.321470 0.227489 1.421662
v 0.321460 0.227478 1.284043
v 0.313802 0.219492 1.421663
v 0.321498 0.211523 1.421663
v 0.313802 0.219492 1.421663
v 0.321488 0.211512 1.284044
v 0.313792 0.219481 1.284044
v -0.324522 0.218288 1.421696
v -0.324532 0.218277 1.284078
v -0.332218 0.226256 1.421696
v -0.332228 0.226245 1.284078
v -0.324522 0.218288 1.421696
v -0.332200 0.210279 1.284078
v -0.324532 0.218277 1.284078
v -0.332190 0.210290 1.421697
v -0.332218 0.226256 1.421696
v -0.332228 0.226245 1.284078
v -0.339885 0.218259 1.421697
v -0.339896 0.218248 1.284078
v -0.332190 0.210290 1.421697
v -0.339896 0.218248 1.284078
v -0.332200 0.210279 1.284078
v -0.339885 0.218259 1.421697
v 0.329746 0.219527 1.480608
v 0.321503 0.210929 1.480609
v 0.334621 0.219532 1.433325
v 0.321509 0.205856 1.433326
v 0.329166 0.219521 1.421662
v 0.321470 0.227489 1.421662
v 0.321461 0.233158 1.433325
v 0.329746 0.219527 1.480608
v 0.321473 0.228093 1.480608
v 0.321498 0.211523 1.421663
v 0.313802 0.219492 1.421663
v 0.321461 0.233158 1.433325
v 0.321470 0.227489 1.421662
v 0.308349 0.219483 1.433326
v 0.321473 0.228093 1.480608
v 0.313231 0.219496 1.480608
v 0.321498 0.211523 1.421663
v 0.321509 0.205856 1.433326
v 0.313231 0.219496 1.480608
v 0.321503 0.210929 1.480609
v -0.340457 0.218263 1.480643
v -0.345339 0.218250 1.433361
v -0.332184 0.209696 1.480643
v -0.332179 0.204623 1.433361
v -0.339885 0.218259 1.421697
v -0.332190 0.210290 1.421697
v -0.332218 0.226256 1.421696
v -0.332227 0.231925 1.433359
v -0.340457 0.218263 1.480643
v -0.332214 0.226860 1.480642
v -0.332227 0.231925 1.433359
v -0.324522 0.218288 1.421696
v -0.332218 0.226256 1.421696
v -0.319067 0.218299 1.433359
v -0.332190 0.210290 1.421697
v -0.332179 0.204623 1.433361
v -0.323942 0.218294 1.480642
v -0.332184 0.209696 1.480643
v -0.332214 0.226860 1.480642
v -0.323942 0.218294 1.480642
v -0.332296 0.273398 1.480640
v -0.332281 0.264816 1.480640
v -0.324038 0.273413 1.480639
v -0.332311 0.281979 1.480639
v -0.332296 0.273398 1.480640
v -0.340553 0.273382 1.480640
v -0.332281 0.264816 1.480640
v -0.332311 0.281979 1.480639
v -0.332199 0.218278 1.480643
v -0.332184 0.209696 1.480643
v -0.323942 0.218294 1.480642
v -0.332214 0.226860 1.480642
v -0.332199 0.218278 1.480643
v -0.340457 0.218263 1.480643
v -0.332184 0.209696 1.480643
v -0.332214 0.226860 1.480642
v 0.321407 0.266049 1.480606
v 0.321392 0.274631 1.480605
v 0.313134 0.274615 1.480605
v 0.321377 0.283212 1.480605
v 0.329650 0.274646 1.480605
v 0.321392 0.274631 1.480605
v 0.321407 0.266049 1.480606
v 0.321377 0.283212 1.480605
v 0.329746 0.219527 1.480608
v 0.321488 0.219511 1.480608
v 0.321503 0.210929 1.480609
v 0.321473 0.228093 1.480608
v 0.321503 0.210929 1.480609
v 0.321488 0.219511 1.480608
v 0.313231 0.219496 1.480608
v 0.321473 0.228093 1.480608
v -0.116694 1.035984 0.744332
v -0.180751 0.824864 0.715467
v -0.150771 0.989691 0.868848
v -0.224946 0.824793 0.868861
v -0.241183 0.824770 0.964092
v -0.198857 0.929320 1.010863
v -0.129065 0.975570 0.995651
v -0.263820 0.669337 0.868871
v -0.272714 0.686857 0.993462
v -0.249585 0.824761 1.045322
v -0.234632 0.644323 0.691102
v -0.279055 0.549634 0.868879
v -0.274339 0.530318 1.032655
v -0.267637 0.712477 1.081661
v -0.298926 0.472643 1.012721
v -0.301337 0.369145 1.193247
v -0.217543 0.508443 1.148667
v -0.218732 1.095818 -0.136264
v -0.137450 1.370357 0.037666
v -0.007006 1.096216 -0.137087
v -0.007473 1.370603 0.037659
v -0.066755 1.459663 0.085474
v -0.007648 1.473186 0.092547
v -0.007648 1.473186 0.092547
v 0.051505 1.459886 0.085467
v -0.007473 1.370603 0.037659
v 0.122504 1.370848 0.037652
v -0.007006 1.096216 -0.137087
v 0.204720 1.096616 -0.136286
v -0.006741 0.988933 0.921562
v -0.165878 0.988633 0.921570
v -0.006789 1.014915 0.884924
v -0.165926 1.014614 0.884933
v -0.006880 1.066884 0.884921
v -0.166017 1.066584 0.884930
v -0.006923 1.092871 0.921556
v -0.166060 1.092571 0.921565
v -0.006875 1.066890 0.958194
v -0.166011 1.066590 0.958202
v -0.006784 1.014920 0.958197
v -0.165921 1.014620 0.958205
v -0.006741 0.988933 0.921562
v -0.165878 0.988633 0.921570
v -0.006741 0.988933 0.921562
v -0.006789 1.014915 0.884924
v 0.152395 0.989233 0.921553
v 0.152347 1.015215 0.884916
v -0.006880 1.066884 0.884921
v 0.152257 1.067184 0.884913
v -0.006923 1.092871 0.921556
v 0.152214 1.093172 0.921548
v -0.006875 1.066890 0.958194
v 0.152262 1.067190 0.958186
v -0.006784 1.014920 0.958197
v 0.152353 1.015221 0.958189
v -0.006741 0.988933 0.921562
v 0.152395 0.989233 0.921553
v -0.085202 0.273689 -1.144240
v -0.005613 0.273874 -0.713237
v -0.085170 0.273724 -0.713232
v -0.005644 0.273839 -1.144244
v -0.085213 0.273676 -1.298800
v -0.005655 0.273827 -1.298804
v -0.085288 0.314518 -1.344224
v -0.005730 0.314668 -1.344228
v -0.005776 0.341153 -1.344229
v -0.126541 0.340925 -1.344223
v -0.126467 0.298221 -1.344220
v -0.085259 0.298298 -1.344223
v -0.085092 0.204132 -1.298796
v -0.126299 0.204054 -1.298794
v -0.005613 0.273874 -0.713237
v 0.073913 0.273989 -1.144249
v 0.073945 0.274024 -0.713241
v -0.005644 0.273839 -1.144244
v 0.073902 0.273977 -1.298808
v -0.005655 0.273827 -1.298804
v 0.073827 0.314818 -1.344232
v -0.005730 0.314668 -1.344228
v -0.005776 0.341153 -1.344229
v 0.114989 0.341381 -1.344236
v 0.115063 0.298676 -1.344233
v 0.073856 0.298599 -1.344231
v 0.074024 0.204432 -1.298805
v 0.115231 0.204510 -1.298807
v -0.126540 0.341132 -1.324469
v -0.005775 0.341360 -1.324475
v -0.126541 0.340925 -1.344223
v -0.005776 0.341153 -1.344229
v 0.114990 0.341587 -1.324482
v 0.114989 0.341381 -1.344236
v -0.005775 0.341360 -1.324475
v -0.005776 0.341153 -1.344229
v 0.301674 0.219454 1.233639
v 0.321438 0.240068 1.282617
v 0.321434 0.240064 1.233637
v 0.301677 0.219458 1.282619
v 0.321506 0.198918 1.233639
v 0.301677 0.219458 1.282619
v 0.301674 0.219454 1.233639
v 0.321510 0.198922 1.282619
v 0.321438 0.240068 1.282617
v 0.341271 0.219532 1.282617
v 0.321434 0.240064 1.233637
v 0.341267 0.219528 1.233637
v 0.341271 0.219532 1.282617
v 0.321510 0.198922 1.282619
v 0.341267 0.219528 1.233637
v 0.321506 0.198918 1.233639
v 0.321392 0.266632 1.284041
v 0.313706 0.274611 1.421660
v 0.313696 0.274600 1.284041
v 0.321402 0.266643 1.421660
v 0.313706 0.274611 1.421660
v 0.321374 0.282609 1.421659
v 0.313696 0.274600 1.284041
v 0.321364 0.282598 1.284040
v 0.321374 0.282609 1.421659
v 0.329070 0.274640 1.421659
v 0.321364 0.282598 1.284040
v 0.329059 0.274629 1.284040
v 0.329070 0.274640 1.421659
v 0.321402 0.266643 1.421660
v 0.329059 0.274629 1.284040
v 0.321392 0.266632 1.284041
v 0.321338 0.295184 1.233634
v 0.341174 0.274652 1.282614
v 0.341171 0.274648 1.233634
v 0.321342 0.295188 1.282614
v 0.341174 0.274652 1.282614
v 0.321413 0.254041 1.282616
v 0.341171 0.274648 1.233634
v 0.321410 0.254037 1.233636
v 0.321413 0.254041 1.282616
v 0.301581 0.274577 1.282616
v 0.321410 0.254037 1.233636
v 0.301577 0.274573 1.233636
v 0.301581 0.274577 1.282616
v 0.321342 0.295188 1.282614
v 0.301577 0.274573 1.233636
v 0.321338 0.295184 1.233634
v -0.332250 0.238835 1.282651
v -0.312421 0.218296 1.233672
v -0.332253 0.238831 1.233672
v -0.312417 0.218300 1.282651
v -0.312417 0.218300 1.282651
v -0.332181 0.197685 1.233674
v -0.312421 0.218296 1.233672
v -0.332178 0.197689 1.282654
v -0.332250 0.238835 1.282651
v -0.332253 0.238831 1.233672
v -0.352011 0.218225 1.282653
v -0.352014 0.218221 1.233674
v -0.352011 0.218225 1.282653
v -0.352014 0.218221 1.233674
v -0.332178 0.197689 1.282654
v -0.332181 0.197685 1.233674
v -0.324618 0.273407 1.421693
v -0.332296 0.265399 1.284076
v -0.324628 0.273396 1.284075
v -0.332286 0.265410 1.421694
v -0.324618 0.273407 1.421693
v -0.324628 0.273396 1.284075
v -0.332314 0.281376 1.421693
v -0.332324 0.281365 1.284075
v -0.332314 0.281376 1.421693
v -0.332324 0.281365 1.284075
v -0.339982 0.273378 1.421694
v -0.339992 0.273367 1.284075
v -0.339982 0.273378 1.421694
v -0.339992 0.273367 1.284075
v -0.332286 0.265410 1.421694
v -0.332296 0.265399 1.284076
v -0.352107 0.273344 1.282650
v -0.332350 0.293951 1.233669
v -0.352110 0.273340 1.233671
v -0.332346 0.293955 1.282648
v -0.352107 0.273344 1.282650
v -0.352110 0.273340 1.233671
v -0.332274 0.252809 1.282650
v -0.332278 0.252805 1.233671
v -0.332274 0.252809 1.282650
v -0.332278 0.252805 1.233671
v -0.312513 0.273419 1.282648
v -0.312517 0.273415 1.233669
v -0.312513 0.273419 1.282648
v -0.312517 0.273415 1.233669
v -0.332346 0.293955 1.282648
v -0.332350 0.293951 1.233669
v -0.332296 0.265399 1.284076
v -0.352107 0.273344 1.282650
v -0.332274 0.252809 1.282650
v -0.339992 0.273367 1.284075
v -0.332346 0.293955 1.282648
v -0.332324 0.281365 1.284075
v -0.312513 0.273419 1.282648
v -0.324628 0.273396 1.284075
v -0.332274 0.252809 1.282650
v -0.332296 0.265399 1.284076
v -0.332311 0.281979 1.480639
v -0.332323 0.287045 1.433356
v -0.340553 0.273382 1.480640
v -0.345435 0.273369 1.433358
v -0.332314 0.281376 1.421693
v -0.339982 0.273378 1.421694
v -0.332275 0.259743 1.433358
v -0.332281 0.264816 1.480640
v -0.340553 0.273382 1.480640
v -0.332286 0.265410 1.421694
v -0.332323 0.287045 1.433356
v -0.324618 0.273407 1.421693
v -0.332314 0.281376 1.421693
v -0.319163 0.273419 1.433356
v -0.332286 0.265410 1.421694
v -0.332275 0.259743 1.433358
v -0.324038 0.273413 1.480639
v -0.332281 0.264816 1.480640
v -0.332311 0.281979 1.480639
v -0.324038 0.273413 1.480639
v 0.200438 1.141132 0.230248
v 0.204720 1.096616 -0.136286
v 0.122504 1.370848 0.037652
v 0.112186 1.448523 0.685988
v 0.178122 1.201978 0.717208
v 0.146122 1.216588 0.827672
v 0.076582 1.472584 0.764368
v 0.084694 1.289829 0.860150
v -0.007297 1.305309 0.873835
v 0.051505 1.459886 0.085467
v 0.054659 1.513960 0.692614
v -0.007699 1.528008 0.701363
v -0.007617 1.484396 0.782011
v -0.091777 1.472266 0.764377
v -0.099236 1.289482 0.860159
v -0.160413 1.216010 0.827688
v -0.007648 1.473186 0.092547
v -0.007699 1.528008 0.701363
v -0.070008 1.513725 0.692621
v -0.127308 1.448071 0.686001
v -0.192377 1.201280 0.717228
v -0.214552 1.140349 0.230270
v -0.137450 1.370357 0.037666
v -0.218732 1.095818 -0.136264
v -0.007648 1.473186 0.092547
v -0.066755 1.459663 0.085474
v 0.115639 0.976031 0.995638
v 0.185595 0.930045 1.010843
v 0.137277 0.990234 0.868833
v 0.228278 0.825655 0.964068
v 0.212027 0.825617 0.868838
v 0.167810 0.825521 0.715448
v 0.103020 1.036398 0.744321
v 0.236693 0.825678 1.045296
v 0.260295 0.687862 0.993434
v 0.251444 0.670309 0.868844
v 0.222317 0.645185 0.691078
v 0.267097 0.550664 0.868850
v 0.262473 0.531331 1.032627
v 0.287259 0.473748 1.012690
v 0.290058 0.370261 1.193216
v 0.255141 0.713463 1.081634
v 0.205771 0.509241 1.148644
v 0.290058 0.370261 1.193216
v 0.319053 0.367111 1.189987
v 0.287259 0.473748 1.012690
v 0.390878 0.418956 0.995667
v 0.354923 0.492427 0.868848
v 0.267097 0.550664 0.868850
v 0.222317 0.645185 0.691078
v 0.385852 0.397973 0.868852
v 0.347515 0.337229 0.868857
v 0.285690 0.205006 0.868867
v 0.409886 0.334111 1.162483
v 0.418801 0.321192 0.972450
v 0.441341 0.245443 1.125599
v 0.379370 0.260574 0.958577
v 0.402104 0.160210 1.115743
v 0.296407 0.205033 0.952271
v 0.319563 0.125023 1.135496
v 0.321041 0.135769 1.120984
v 0.239253 0.161661 1.158412
v 0.245462 0.168136 1.120986
v 0.321059 0.126627 1.158409
v 0.245467 0.168142 1.195835
v 0.214048 0.246567 1.195833
v 0.205245 0.246548 1.158409
v 0.245193 0.325111 1.195827
v 0.238957 0.331563 1.158402
v 0.320659 0.357762 1.195821
v 0.320640 0.366905 1.158396
v 0.321046 0.135775 1.195833
v 0.263158 0.186593 1.227561
v 0.239110 0.246617 1.227559
v 0.262948 0.306732 1.227554
v 0.320706 0.331722 1.227550
v 0.378552 0.306950 1.227548
v 0.396237 0.325396 1.195819
v 0.402446 0.331871 1.158394
v 0.321003 0.161821 1.227559
v 0.402599 0.246926 1.227550
v 0.427657 0.246970 1.195822
v 0.436454 0.246984 1.158397
v 0.396232 0.325390 1.120970
v 0.427651 0.246964 1.120973
v 0.402742 0.161969 1.158403
v 0.396505 0.168420 1.112600
v 0.321041 0.135769 1.120984
v 0.378762 0.186811 1.227554
v 0.396511 0.168427 1.195827
v 0.321046 0.135775 1.195833
v 0.321059 0.126627 1.158409
v 0.321003 0.161821 1.227559
v -0.249810 0.160738 1.158437
v -0.331512 0.134539 1.121018
v -0.256047 0.167190 1.121013
v -0.331493 0.125397 1.158443
v -0.256041 0.167196 1.195862
v -0.331506 0.134545 1.195867
v -0.273791 0.185580 1.227589
v -0.331550 0.160590 1.227593
v -0.224896 0.245739 1.195856
v -0.249953 0.245695 1.227584
v -0.216099 0.245753 1.158431
v -0.256315 0.324165 1.195853
v -0.274001 0.305719 1.227582
v -0.250107 0.330640 1.158428
v -0.331894 0.356532 1.195855
v -0.331846 0.330491 1.227584
v -0.331913 0.365674 1.158430
v -0.407359 0.323880 1.195861
v -0.389605 0.305501 1.227588
v -0.413596 0.330332 1.158437
v -0.438505 0.245336 1.195867
v -0.413442 0.245386 1.227593
v -0.447307 0.245317 1.158443
v -0.407085 0.166911 1.195870
v -0.389395 0.185362 1.227595
v -0.407365 0.323874 1.121012
v -0.438510 0.245330 1.121018
v -0.413299 0.160430 1.158446
v -0.331506 0.134545 1.195867
v -0.331550 0.160590 1.227593
v -0.407091 0.166905 1.112642
v -0.331512 0.134539 1.121018
v -0.331493 0.125397 1.158443
v 0.321377 0.283212 1.480605
v 0.329650 0.274646 1.480605
v 0.321365 0.288278 1.433322
v 0.334524 0.274652 1.433322
v 0.321374 0.282609 1.421659
v 0.329070 0.274640 1.421659
v 0.321413 0.260976 1.433323
v 0.321402 0.266643 1.421660
v 0.321407 0.266049 1.480606
v 0.329650 0.274646 1.480605
v 0.313706 0.274611 1.421660
v 0.321365 0.288278 1.433322
v 0.321374 0.282609 1.421659
v 0.308253 0.274602 1.433323
v 0.321377 0.283212 1.480605
v 0.313134 0.274615 1.480605
v 0.321402 0.266643 1.421660
v 0.321413 0.260976 1.433323
v 0.313134 0.274615 1.480605
v 0.321407 0.266049 1.480606
v 0.341174 0.274652 1.282614
v 0.321392 0.266632 1.284041
v 0.321413 0.254041 1.282616
v 0.329059 0.274629 1.284040
v 0.321342 0.295188 1.282614
v 0.321364 0.282598 1.284040
v 0.301581 0.274577 1.282616
v 0.313696 0.274600 1.284041
v 0.321413 0.254041 1.282616
v 0.321392 0.266632 1.284041
v -0.330322 0.365886 1.190022
v -0.301337 0.369145 1.193247
v -0.298926 0.472643 1.012721
v -0.402356 0.417460 0.995709
v -0.421043 0.332544 1.162527
v -0.429942 0.319591 0.972494
v -0.452194 0.243757 1.125646
v -0.390301 0.259123 0.958618
v -0.412661 0.158673 1.115785
v -0.366677 0.491066 0.868886
v -0.397276 0.396496 0.868893
v -0.358727 0.335897 0.868894
v -0.296440 0.203908 0.868898
v -0.307145 0.203895 0.952303
v -0.329995 0.123797 1.135530
v -0.279055 0.549634 0.868879
v -0.234632 0.644323 0.691102
v 0.215555 0.436127 -1.267994
v 0.115063 0.298676 -1.344233
v 0.114990 0.341587 -1.324482
v 0.277848 0.436244 -1.267997
v 0.277084 0.885239 -0.987952
v 0.486259 0.725284 -0.990384
v 0.574122 0.364389 -1.229742
v 0.198183 0.885090 -0.990155
v 0.198215 1.026546 -0.947290
v -0.006944 1.026158 -0.947279
v -0.006700 0.884703 -0.996221
v -0.211582 0.884317 -0.990133
v -0.006944 1.026158 -0.947279
v -0.006700 0.884703 -0.996221
v -0.212102 1.025772 -0.947268
v -0.290483 0.884168 -0.987922
v -0.227426 0.435291 -1.267970
v -0.289719 0.435174 -1.267967
v -0.499099 0.723426 -0.990333
v -0.585735 0.362201 -1.229681
v -0.126467 0.298221 -1.344220
v -0.126540 0.341132 -1.324469
v 0.111143 0.947951 1.008405
v 0.161908 0.922183 1.016910
v 0.115639 0.976031 0.995638
v 0.185595 0.930045 1.010843
v 0.236693 0.825678 1.045296
v 0.232081 0.714842 1.085153
v 0.255141 0.713463 1.081634
v 0.205771 0.509241 1.148644
v 0.162642 0.507238 1.153404
v 0.242916 0.329861 1.204454
v 0.290058 0.370261 1.193216
v -0.005569 0.329392 1.204467
v 0.208612 0.248498 1.224553
v -0.005425 0.248094 1.224564
v -0.005276 0.161271 1.198497
v 0.237975 0.161730 1.198484
v -0.005216 0.124410 1.135512
v 0.319563 0.125023 1.135496
v -0.005730 0.420982 1.181682
v -0.329995 0.123797 1.135530
v -0.005216 0.124410 1.135512
v -0.248526 0.160812 1.198509
v -0.005276 0.161271 1.198497
v -0.219463 0.247691 1.224575
v -0.005425 0.248094 1.224564
v -0.005569 0.329392 1.204467
v -0.254053 0.328923 1.204480
v -0.174407 0.506602 1.153422
v -0.217543 0.508443 1.148667
v -0.301337 0.369145 1.193247
v -0.005730 0.420982 1.181682
v -0.244581 0.713943 1.085178
v -0.267637 0.712477 1.081661
v -0.249585 0.824761 1.045322
v -0.175142 0.921547 1.016927
v -0.198857 0.929320 1.010863
v -0.129065 0.975570 0.995651
v -0.124469 0.947506 1.008417
v -0.005613 0.273874 -0.713237
v -0.085049 0.204179 -0.713229
v -0.085170 0.273724 -0.713232
v -0.005491 0.204329 -0.713233
v -0.005491 0.204329 -0.713233
v -0.005613 0.273874 -0.713237
v 0.074066 0.204479 -0.713237
v 0.073945 0.274024 -0.713241
v -0.124469 0.947506 1.008417
v -0.006769 1.007803 0.988650
v -0.129065 0.975570 0.995651
v -0.143807 1.065596 0.968538
v -0.006872 1.065855 0.970807
v -0.070143 1.108391 0.948519
v -0.161836 1.097340 0.932220
v -0.161087 1.096888 0.891497
v -0.006947 1.108511 0.958056
v -0.006769 1.007803 0.988650
v 0.111143 0.947951 1.008405
v 0.115639 0.976031 0.995638
v 0.130062 1.066113 0.968524
v -0.006872 1.065855 0.970807
v 0.056247 1.108630 0.948512
v -0.006947 1.108511 0.958056
v 0.147975 1.097925 0.932204
v 0.147222 1.097470 0.891481
v -0.085080 0.204144 -1.144237
v -0.085170 0.273724 -0.713232
v -0.085049 0.204179 -0.713229
v -0.085202 0.273689 -1.144240
v -0.085092 0.204132 -1.298796
v -0.085213 0.273676 -1.298800
v -0.085259 0.298298 -1.344223
v -0.085288 0.314518 -1.344224
v -0.161087 1.096888 0.891497
v -0.153806 1.055276 0.868845
v -0.161836 1.097340 0.932220
v -0.143807 1.065596 0.968538
v -0.150771 0.989691 0.868848
v -0.129065 0.975570 0.995651
v 0.574122 0.364389 -1.229742
v 0.486259 0.725284 -0.990384
v 0.604212 0.205444 -1.144273
v 0.601697 0.205472 -0.739686
v 0.584893 0.328078 -0.658842
v 0.486548 0.725336 -0.353182
v 0.584958 0.328151 0.230272
v 0.531587 0.205349 -0.628870
v 0.584958 0.328151 0.230272
v 0.531650 0.205418 0.230281
v 0.584893 0.328078 -0.658842
v 0.601697 0.205472 -0.739686
v -0.290483 0.884168 -0.987922
v -0.290441 0.886925 -0.353150
v -0.212102 1.025772 -0.947268
v -0.218732 1.095818 -0.136264
v -0.408960 0.462921 0.230316
v -0.214552 1.140349 0.230270
v 0.397210 0.464442 0.230274
v 0.531650 0.205418 0.230281
v 0.584958 0.328151 0.230272
v 0.196489 0.204786 0.230299
v 0.200556 0.464072 0.230284
v -0.234632 0.644323 0.691102
v -0.180751 0.824864 0.715467
v -0.408960 0.462921 0.230316
v -0.214552 1.140349 0.230270
v -0.116694 1.035984 0.744332
v 0.604212 0.205444 -1.144273
v 0.278261 0.204830 -1.144256
v 0.574122 0.364389 -1.229742
v 0.277848 0.436244 -1.267997
v 0.115231 0.204510 -1.298807
v 0.115063 0.298676 -1.344233
v 0.084974 1.252371 0.865483
v 0.147222 1.097470 0.891481
v 0.146122 1.216588 0.827672
v 0.056247 1.108630 0.948512
v -0.007234 1.269224 0.879957
v -0.006947 1.108511 0.958056
v -0.007234 1.269224 0.879957
v -0.070143 1.108391 0.948519
v -0.006947 1.108511 0.958056
v -0.099384 1.252023 0.865493
v -0.161087 1.096888 0.891497
v -0.160413 1.216010 0.827688
v 0.147222 1.097470 0.891481
v 0.140083 1.055831 0.868829
v 0.146122 1.216588 0.827672
v 0.103020 1.036398 0.744321
v 0.137277 0.990234 0.868833
v -0.085080 0.204144 -1.144237
v -0.126299 0.204054 -1.298794
v -0.085092 0.204132 -1.298796
v -0.289306 0.203759 -1.144226
v -0.085049 0.204179 -0.713229
v -0.612683 0.203182 -0.739622
v -0.615257 0.203144 -1.144209
v -0.542557 0.203323 -0.628814
v -0.207333 0.204025 0.230320
v -0.542494 0.203392 0.230337
v -0.005422 0.204405 0.230309
v -0.005375 0.204457 0.868883
v -0.296440 0.203908 0.868898
v -0.005369 0.204464 0.952287
v -0.307145 0.203895 0.952303
v -0.005216 0.124410 1.135512
v -0.329995 0.123797 1.135530
v -0.005491 0.204329 -0.713233
v 0.319563 0.125023 1.135496
v -0.005216 0.124410 1.135512
v 0.296407 0.205033 0.952271
v -0.005369 0.204464 0.952287
v 0.285690 0.205006 0.868867
v -0.005375 0.204457 0.868883
v 0.196489 0.204786 0.230299
v -0.005422 0.204405 0.230309
v 0.074066 0.204479 -0.713237
v 0.531587 0.205349 -0.628870
v 0.531650 0.205418 0.230281
v -0.005491 0.204329 -0.713233
v 0.601697 0.205472 -0.739686
v 0.278261 0.204830 -1.144256
v 0.604212 0.205444 -1.144273
v 0.074035 0.204444 -1.144245
v 0.115231 0.204510 -1.298807
v 0.074024 0.204432 -1.298805
v 0.073945 0.274024 -0.713241
v 0.074035 0.204444 -1.144245
v 0.074066 0.204479 -0.713237
v 0.073913 0.273989 -1.144249
v 0.074024 0.204432 -1.298805
v 0.073902 0.273977 -1.298808
v 0.073856 0.298599 -1.344231
v 0.073827 0.314818 -1.344232
v 0.147975 1.097925 0.932204
v 0.140083 1.055831 0.868829
v 0.147222 1.097470 0.891481
v 0.130062 1.066113 0.968524
v 0.137277 0.990234 0.868833
v 0.115639 0.976031 0.995638
v 0.167810 0.825521 0.715448
v 0.200438 1.141132 0.230248
v 0.103020 1.036398 0.744321
v 0.397210 0.464442 0.230274
v 0.222317 0.645185 0.691078
v 0.277084 0.885239 -0.987952
v 0.198215 1.026546 -0.947290
v 0.277126 0.887996 -0.353180
v 0.204720 1.096616 -0.136286
v 0.397210 0.464442 0.230274
v 0.200438 1.141132 0.230248
v -0.150771 0.989691 0.868848
v -0.153806 1.055276 0.868845
v -0.116694 1.035984 0.744332
v -0.160413 1.216010 0.827688
v -0.161087 1.096888 0.891497
v 0.084974 1.252371 0.865483
v 0.146122 1.216588 0.827672
v 0.084694 1.289829 0.860150
v -0.007234 1.269224 0.879957
v -0.007297 1.305309 0.873835
v -0.099236 1.289482 0.860159
v -0.007234 1.269224 0.879957
v -0.007297 1.305309 0.873835
v -0.099384 1.252023 0.865493
v -0.160413 1.216010 0.827688
v -0.585735 0.362201 -1.229681
v -0.289306 0.203759 -1.144226
v -0.615257 0.203144 -1.144209
v -0.289719 0.435174 -1.267967
v -0.126299 0.204054 -1.298794
v -0.126467 0.298221 -1.344220
v -0.612683 0.203182 -0.739622
v -0.542557 0.203323 -0.628814
v -0.596295 0.325851 -0.658779
v -0.596230 0.325923 0.230334
v -0.542494 0.203392 0.230337
v -0.585735 0.362201 -1.229681
v -0.615257 0.203144 -1.144209
v -0.499099 0.723426 -0.990333
v -0.612683 0.203182 -0.739622
v -0.596295 0.325851 -0.658779
v -0.499294 0.723477 -0.353130
v -0.596230 0.325923 0.230334
v 0.198183 0.885090 -0.990155
v 0.187426 0.848428 -0.979722
v -0.006700 0.884703 -0.996221
v -0.006635 0.848063 -0.979712
v -0.200696 0.847697 -0.979702
v -0.006700 0.884703 -0.996221
v -0.006635 0.848063 -0.979712
v -0.211582 0.884317 -0.990133
v -0.499099 0.723426 -0.990333
v -0.499294 0.723477 -0.353130
v -0.290483 0.884168 -0.987922
v -0.290441 0.886925 -0.353150
v -0.290441 0.886925 -0.353150
v -0.499294 0.723477 -0.353130
v -0.408960 0.462921 0.230316
v -0.596230 0.325923 0.230334
v -0.207333 0.204025 0.230320
v -0.408960 0.462921 0.230316
v -0.542494 0.203392 0.230337
v -0.596230 0.325923 0.230334
v -0.212305 0.463293 0.230306
v -0.207333 0.204025 0.230320
v -0.234632 0.644323 0.691102
v -0.296440 0.203908 0.868898
v -0.184658 0.460440 0.393032
v -0.346613 0.439214 0.393042
v -0.184655 0.460443 0.437431
v -0.417479 0.429929 0.437445
v -0.006944 1.026158 -0.947279
v -0.212102 1.025772 -0.947268
v -0.007006 1.096216 -0.137087
v -0.218732 1.095818 -0.136264
v -0.227426 0.435291 -1.267970
v -0.211582 0.884317 -0.990133
v -0.219296 0.431339 -1.234697
v -0.200696 0.847697 -0.979702
v -0.116694 1.035984 0.744332
v -0.192377 1.201280 0.717228
v -0.214552 1.140349 0.230270
v -0.160413 1.216010 0.827688
v -0.346310 0.262884 0.324625
v -0.346618 0.439208 0.324615
v -0.184288 0.242263 0.242680
v -0.184669 0.460428 0.242668
v -0.417206 0.271911 0.393054
v -0.417482 0.429926 0.393046
v -0.346305 0.262890 0.393051
v -0.346613 0.439214 0.393042
v -0.417203 0.271914 0.437453
v -0.346305 0.262890 0.393051
v -0.184274 0.242278 0.437443
v -0.184277 0.242275 0.393044
v -0.184669 0.460428 0.242668
v -0.346618 0.439208 0.324615
v -0.184658 0.460440 0.393032
v -0.346613 0.439214 0.393042
v -0.346310 0.262884 0.324625
v -0.346305 0.262890 0.393051
v -0.346618 0.439208 0.324615
v -0.346613 0.439214 0.393042
v -0.184288 0.242263 0.242680
v -0.184277 0.242275 0.393044
v -0.346310 0.262884 0.324625
v -0.346305 0.262890 0.393051
v -0.383337 0.295979 0.495635
v -0.383342 0.295974 0.436461
v -0.365119 0.296014 0.495634
v -0.365123 0.296009 0.436460
v -0.374257 0.312393 0.495633
v -0.374261 0.312388 0.436460
v -0.383337 0.295979 0.495635
v -0.383342 0.295974 0.436461
v -0.365119 0.296014 0.495634
v -0.365123 0.296009 0.436460
v -0.374257 0.312393 0.495633
v -0.374261 0.312388 0.436460
v -0.339642 0.417181 0.495626
v -0.339646 0.417176 0.436453
v -0.321423 0.417215 0.495625
v -0.321428 0.417211 0.436452
v -0.330561 0.433595 0.495625
v -0.330565 0.433590 0.436451
v -0.339642 0.417181 0.495626
v -0.339646 0.417176 0.436453
v -0.321423 0.417215 0.495625
v -0.321428 0.417211 0.436452
v -0.330561 0.433595 0.495625
v -0.330565 0.433590 0.436451
v -0.315874 0.384760 0.492676
v -0.315878 0.384755 0.434872
v -0.347785 0.384700 0.492677
v -0.347789 0.384695 0.434874
v -0.299868 0.356070 0.492676
v -0.299872 0.356065 0.434873
v -0.315874 0.384760 0.492676
v -0.315878 0.384755 0.434872
v -0.315774 0.327320 0.492679
v -0.315778 0.327315 0.434875
v -0.299868 0.356070 0.492676
v -0.299872 0.356065 0.434873
v -0.347685 0.327260 0.492680
v -0.347689 0.327255 0.434877
v -0.315774 0.327320 0.492679
v -0.315778 0.327315 0.434875
v -0.363690 0.355950 0.492680
v -0.363695 0.355945 0.434876
v -0.347685 0.327260 0.492680
v -0.347689 0.327255 0.434877
v -0.347785 0.384700 0.492677
v -0.347789 0.384695 0.434874
v -0.363690 0.355950 0.492680
v -0.363695 0.355945 0.434876
v -0.184270 0.242283 0.492458
v -0.430972 0.362120 0.492464
v -0.184677 0.475668 0.492445
v -0.402326 0.445182 0.492458
v -0.402326 0.445182 0.492458
v -0.430972 0.362120 0.492464
v -0.402306 0.445205 0.771618
v -0.430951 0.362142 0.771624
v -0.402306 0.445205 0.771618
v -0.430951 0.362142 0.771624
v -0.184657 0.475691 0.771605
v -0.184249 0.242305 0.771618
v 0.405875 0.431482 0.437401
v 0.172946 0.461118 0.437412
v 0.406151 0.273467 0.437410
v 0.173327 0.242953 0.437424
v 0.405875 0.431482 0.437401
v 0.334971 0.440499 0.393006
v 0.172946 0.461118 0.437412
v 0.172943 0.461114 0.393013
v 0.335274 0.264170 0.324589
v 0.173313 0.242937 0.242661
v 0.334966 0.440494 0.324580
v 0.172932 0.461102 0.242649
v 0.406151 0.273467 0.437410
v 0.173327 0.242953 0.437424
v 0.335279 0.264175 0.393015
v 0.173324 0.242949 0.393025
v 0.405871 0.431478 0.393003
v 0.405875 0.431482 0.437401
v 0.406147 0.273464 0.393011
v 0.406151 0.273467 0.437410
v 0.390677 0.446678 0.492417
v 0.172923 0.476342 0.492426
v 0.390698 0.446700 0.771576
v 0.172944 0.476365 0.771586
v 0.391000 0.273465 0.771586
v 0.173351 0.242980 0.771599
v 0.390980 0.273443 0.492426
v 0.173331 0.242957 0.492439
v 0.419613 0.363724 0.492420
v 0.419633 0.363746 0.771579
v 0.390980 0.273443 0.492426
v 0.391000 0.273465 0.771586
v 0.486259 0.725284 -0.990384
v 0.277084 0.885239 -0.987952
v 0.486548 0.725336 -0.353182
v 0.277126 0.887996 -0.353180
v 0.584958 0.328151 0.230272
v 0.486548 0.725336 -0.353182
v 0.397210 0.464442 0.230274
v 0.277126 0.887996 -0.353180
v 0.285690 0.205006 0.868867
v 0.196489 0.204786 0.230299
v 0.222317 0.645185 0.691078
v 0.200556 0.464072 0.230284
v -0.417482 0.429926 0.393046
v -0.417206 0.271911 0.393054
v -0.417479 0.429929 0.437445
v -0.417203 0.271914 0.437453
v 0.146122 1.216588 0.827672
v 0.103020 1.036398 0.744321
v 0.178122 1.201978 0.717208
v 0.200438 1.141132 0.230248
v 0.204720 1.096616 -0.136286
v 0.198215 1.026546 -0.947290
v -0.007006 1.096216 -0.137087
v -0.006944 1.026158 -0.947279
v 0.215555 0.436127 -1.267994
v 0.207443 0.432144 -1.234719
v 0.198183 0.885090 -0.990155
v 0.187426 0.848428 -0.979722
v 0.406147 0.273464 0.393011
v 0.335279 0.264175 0.393015
v 0.405871 0.431478 0.393003
v 0.334971 0.440499 0.393006
v -0.417479 0.429929 0.437445
v -0.417203 0.271914 0.437453
v -0.184655 0.460443 0.437431
v -0.184274 0.242278 0.437443
v -0.402326 0.445182 0.492458
v -0.402306 0.445205 0.771618
v -0.184677 0.475668 0.492445
v -0.184657 0.475691 0.771605
v 0.334971 0.440499 0.393006
v 0.334966 0.440494 0.324580
v 0.172943 0.461114 0.393013
v 0.172932 0.461102 0.242649
v 0.335274 0.264170 0.324589
v 0.334966 0.440494 0.324580
v 0.335279 0.264175 0.393015
v 0.334971 0.440499 0.393006
v 0.173313 0.242937 0.242661
v 0.335274 0.264170 0.324589
v 0.173324 0.242949 0.393025
v 0.335279 0.264175 0.393015
v 0.372210 0.297404 0.495595
v 0.353992 0.297370 0.495596
v 0.372206 0.297399 0.436422
v 0.353987 0.297365 0.436423
v 0.363072 0.313783 0.495595
v 0.372210 0.297404 0.495595
v 0.363068 0.313779 0.436421
v 0.372206 0.297399 0.436422
v 0.353992 0.297370 0.495596
v 0.363072 0.313783 0.495595
v 0.353987 0.297365 0.436423
v 0.363068 0.313779 0.436421
v 0.328091 0.418440 0.495591
v 0.309873 0.418406 0.495592
v 0.328087 0.418436 0.436417
v 0.309869 0.418401 0.436418
v 0.318953 0.434820 0.495591
v 0.328091 0.418440 0.495591
v 0.318949 0.434815 0.436417
v 0.328087 0.418436 0.436417
v 0.309873 0.418406 0.495592
v 0.318953 0.434820 0.495591
v 0.309869 0.418401 0.436418
v 0.318949 0.434815 0.436417
v 0.304436 0.385930 0.492643
v 0.336347 0.385990 0.492641
v 0.304432 0.385925 0.434840
v 0.336343 0.385985 0.434838
v 0.288531 0.357180 0.492645
v 0.304436 0.385930 0.492643
v 0.288527 0.357175 0.434842
v 0.304432 0.385925 0.434840
v 0.304537 0.328490 0.492646
v 0.288531 0.357180 0.492645
v 0.304533 0.328485 0.434843
v 0.288527 0.357175 0.434842
v 0.336448 0.328550 0.492644
v 0.304537 0.328490 0.492646
v 0.336444 0.328546 0.434841
v 0.304533 0.328485 0.434843
v 0.352353 0.357300 0.492642
v 0.336448 0.328550 0.492644
v 0.352349 0.357296 0.434839
v 0.336444 0.328546 0.434841
v 0.336347 0.385990 0.492641
v 0.352353 0.357300 0.492642
v 0.336343 0.385985 0.434838
v 0.352349 0.357296 0.434839
v -0.402003 0.271970 0.771627
v -0.402024 0.271947 0.492468
v -0.184249 0.242305 0.771618
v -0.184270 0.242283 0.492458
v 0.390677 0.446678 0.492417
v 0.390698 0.446700 0.771576
v 0.419613 0.363724 0.492420
v 0.419633 0.363746 0.771579
v -0.430972 0.362120 0.492464
v -0.402024 0.271947 0.492468
v -0.430951 0.362142 0.771624
v -0.402003 0.271970 0.771627
v 0.390698 0.446700 0.771576
v 0.172944 0.476365 0.771586
v 0.419633 0.363746 0.771579
v 0.173351 0.242980 0.771599
v 0.390677 0.446678 0.492417
v 0.419613 0.363724 0.492420
v 0.172923 0.476342 0.492426
v 0.173331 0.242957 0.492439
v -0.363035 0.277993 1.248788
v -0.331846 0.330491 1.227584
v -0.389605 0.305501 1.227588
v -0.331777 0.291517 1.248785
v -0.274001 0.305719 1.227582
v -0.300471 0.278111 1.248784
v -0.249953 0.245695 1.227584
v -0.287457 0.245626 1.248785
v -0.273791 0.185580 1.227589
v -0.375936 0.245459 1.248790
v -0.331696 0.245543 1.256232
v -0.300357 0.213092 1.248788
v -0.331550 0.160590 1.227593
v -0.331616 0.199567 1.248790
v -0.389395 0.185362 1.227595
v -0.413442 0.245386 1.227593
v -0.362922 0.212974 1.248791
v 0.263158 0.186593 1.227561
v 0.276616 0.246689 1.248756
v 0.239110 0.246617 1.227559
v 0.289631 0.214205 1.248757
v 0.320857 0.246774 1.256198
v 0.289517 0.279223 1.248753
v 0.262948 0.306732 1.227554
v 0.320776 0.292748 1.248751
v 0.320706 0.331722 1.227550
v 0.321003 0.161821 1.227559
v 0.320937 0.200798 1.248756
v 0.352195 0.214323 1.248754
v 0.365096 0.246856 1.248751
v 0.352082 0.279341 1.248750
v 0.378762 0.186811 1.227554
v 0.402599 0.246926 1.227550
v 0.378552 0.306950 1.227548
v 0.402104 0.160210 1.115743
v 0.312944 0.251411 1.140889
v 0.319563 0.125023 1.135496
v 0.441341 0.245443 1.125599
v 0.409886 0.334111 1.162483
v 0.319053 0.367111 1.189987
v 0.290058 0.370261 1.193216
v 0.242916 0.329861 1.204454
v 0.208612 0.248498 1.224553
v 0.237975 0.161730 1.198484
v -0.323816 0.250210 1.140922
v -0.412661 0.158673 1.115785
v -0.329995 0.123797 1.135530
v -0.452194 0.243757 1.125646
v -0.421043 0.332544 1.162527
v -0.330322 0.365886 1.190022
v -0.301337 0.369145 1.193247
v -0.254053 0.328923 1.204480
v -0.219463 0.247691 1.224575
v -0.248526 0.160812 1.198509
v -0.324532 0.218277 1.284078
v -0.312417 0.218300 1.282651
v -0.332228 0.226245 1.284078
v -0.332178 0.197689 1.282654
v -0.332200 0.210279 1.284078
v -0.352011 0.218225 1.282653
v -0.339896 0.218248 1.284078
v -0.332250 0.238835 1.282651
v 0.321460 0.227478 1.284043
v 0.329156 0.219510 1.284043
v 0.321438 0.240068 1.282617
v 0.341271 0.219532 1.282617
v 0.321488 0.211512 1.284044
v 0.321510 0.198922 1.282619
v 0.313792 0.219481 1.284044
v 0.301677 0.219458 1.282619
v 0.152395 0.989233 0.921553
v 0.170373 1.041236 0.921550
v 0.152353 1.015221 0.958189
v 0.152347 1.015215 0.884916
v 0.152257 1.067184 0.884913
v 0.152214 1.093172 0.921548
v 0.152262 1.067190 0.958186
v -0.184037 1.040568 0.921568
v -0.166011 1.066590 0.958202
v -0.166060 1.092571 0.921565
v -0.165921 1.014620 0.958205
v -0.165878 0.988633 0.921570
v -0.165926 1.014614 0.884933
v -0.166017 1.066584 0.884930
vn -0.2214 -0.1119 0.9687
vn -0.4133 -0.0815 0.9069
vn -0.2559 -0.1864 0.9486
vn -0.3730 0.0014 0.9278
vn -0.6251 0.2470 0.7404
vn -0.5293 0.2685 0.8048
vn -0.4028 0.5713 0.7151
vn -0.4525 0.6308 0.6304
vn -0.2472 0.7068 0.6628
vn -0.2887 0.7610 0.5809
vn -0.1193 0.0952 0.9883
vn -0.2019 0.1638 0.9656
vn -0.2766 0.3041 0.9116
vn -0.2108 0.4541 0.8657
vn -0.1273 0.5298 0.8385
vn -0.0806 0.3154 0.9455
vn 0.2559 -0.1864 0.9486
vn 0.4133 -0.0815 0.9069
vn 0.2214 -0.1119 0.9687
vn 0.3730 0.0014 0.9278
vn 0.1193 0.0952 0.9883
vn 0.2019 0.1638 0.9656
vn 0.0806 0.3154 0.9455
vn 0.2766 0.3041 0.9116
vn 0.2108 0.4541 0.8657
vn 0.1273 0.5298 0.8385
vn 0.6251 0.2470 0.7404
vn 0.5293 0.2685 0.8048
vn 0.4028 0.5713 0.7151
vn 0.2472 0.7068 0.6628
vn 0.4525 0.6308 0.6304
vn 0.2887 0.7610 0.5809
vn -0.4727 0.8304 -0.2951
vn -0.7729 0.6072 -0.1842
vn -0.7669 0.6139 -0.1873
vn -0.9953 0.0306 0.0919
vn -0.9953 0.0307 0.0919
vn -0.7578 -0.5272 0.3846
vn -0.7516 -0.5334 0.3880
vn -0.4598 -0.7393 0.4919
vn 0.4727 0.8304 -0.2951
vn 0.7729 0.6072 -0.1842
vn 0.7669 0.6139 -0.1873
vn 0.9953 0.0306 0.0919
vn 0.7578 -0.5272 0.3846
vn 0.7516 -0.5334 0.3880
vn 0.4598 -0.7393 0.4919
vn -1.0000 -0.0017 0.0001
vn 1.0000 0.0017 -0.0001
vn -0.0001 -0.0001 -1.0000
vn 0.1262 0.9920 -0.0001
vn 0.1300 -0.9915 0.0001
vn -0.6614 0.7465 -0.0719
vn 0.0018 -0.9307 0.3657
vn 0.0001 0.0001 1.0000
vn -0.1300 0.9915 -0.0001
vn -0.1262 -0.9920 0.0001
vn 0.6587 0.7490 -0.0720
vn -0.4541 0.6336 0.6264
vn -0.2488 0.7104 0.6583
vn -0.2904 0.7642 0.5760
vn -0.4042 0.5747 0.7116
vn -0.1284 0.5343 0.8355
vn -0.2118 0.4584 0.8632
vn -0.0812 0.3201 0.9439
vn -0.2773 0.3083 0.9100
vn -0.2022 0.1682 0.9648
vn -0.1195 0.0999 0.9878
vn -0.6258 0.2496 0.7390
vn -0.5300 0.2716 0.8033
vn -0.3729 0.0053 0.9279
vn -0.2211 -0.1075 0.9693
vn -0.4130 -0.0778 0.9074
vn -0.2554 -0.1821 0.9495
vn 0.4518 0.6353 0.6263
vn 0.2876 0.7652 0.5760
vn 0.2462 0.7113 0.6583
vn 0.4022 0.5761 0.7116
vn 0.6250 0.2518 0.7389
vn 0.5292 0.2735 0.8032
vn 0.3730 0.0066 0.9278
vn 0.4135 -0.0763 0.9073
vn 0.2216 -0.1067 0.9693
vn 0.2562 -0.1812 0.9495
vn 0.1265 0.5347 0.8355
vn 0.2102 0.4591 0.8631
vn 0.2763 0.3093 0.9099
vn 0.2017 0.1690 0.9648
vn 0.1192 0.1003 0.9878
vn 0.0801 0.3204 0.9439
vn -0.4580 -0.7371 0.4969
vn -0.7564 -0.5264 0.3883
vn -0.7502 -0.5326 0.3918
vn -0.9954 0.0294 0.0917
vn -0.7738 0.6047 -0.1885
vn -0.7678 0.6114 -0.1916
vn -0.4740 0.8275 -0.3009
vn 0.4608 -0.7354 0.4968
vn 0.4608 -0.7355 0.4968
vn 0.7584 -0.5237 0.3882
vn 0.7522 -0.5299 0.3916
vn 0.9953 0.0328 0.0915
vn 0.7716 0.6075 -0.1887
vn 0.7655 0.6141 -0.1918
vn 0.4708 0.8293 -0.3011
vn -0.0010 0.5223 -0.8528
vn -0.0012 0.6155 -0.7882
vn -0.0012 0.5950 -0.8037
vn -0.0014 0.7047 -0.7095
vn 0.7193 0.6947 -0.0001
vn 0.7218 -0.6921 -0.0000
vn -0.7218 0.6921 -0.0000
vn -0.7193 -0.6947 0.0001
vn 0.7198 -0.6902 0.0741
vn 0.9879 0.0017 -0.1549
vn 0.7173 -0.6877 -0.1122
vn 0.9058 0.0016 -0.4237
vn 0.6816 0.6583 -0.3194
vn 0.7148 0.6903 -0.1123
vn 0.7173 0.6928 0.0740
vn 0.6840 -0.6559 -0.3193
vn -0.9059 -0.0016 -0.4235
vn -0.7173 0.6877 -0.1122
vn -0.6841 0.6558 -0.3193
vn -0.9879 -0.0018 -0.1548
vn -0.7198 0.6902 0.0741
vn -0.6817 -0.6583 -0.3192
vn -0.7148 -0.6903 -0.1121
vn -0.7173 -0.6928 0.0742
vn -0.9879 -0.0017 -0.1548
vn 0.7199 -0.6902 0.0741
vn -0.0000 -0.0000 1.0000
vn -0.0000 0.0001 1.0000
vn -0.9413 0.3053 -0.1441
vn -0.9246 0.3140 -0.2156
vn -0.8854 0.4459 -0.1312
vn -0.9239 0.3194 -0.2108
vn -0.9418 0.3134 -0.1215
vn -0.8265 0.5621 -0.0306
vn -0.5154 0.8375 0.1815
vn -0.9700 0.1854 -0.1572
vn -0.9934 0.1128 -0.0228
vn -0.9599 0.2715 -0.0705
vn -0.9477 0.2553 -0.1915
vn -0.9895 0.1245 -0.0733
vn -0.9571 0.1967 0.2129
vn -0.9903 0.0612 0.1244
vn -0.9275 0.3518 0.1263
vn -0.7777 0.5043 0.3753
vn -0.8139 0.3493 0.4643
vn -0.0043 0.5361 -0.8442
vn -0.0017 0.5145 -0.8575
vn -0.0035 0.5363 -0.8440
vn -0.0012 0.5048 -0.8632
vn -0.0017 0.4721 -0.8815
vn -0.0024 0.4718 -0.8817
vn 0.0005 0.4718 -0.8817
vn -0.0001 0.4721 -0.8815
vn -0.0007 0.5048 -0.8632
vn -0.0003 0.5145 -0.8575
vn 0.0014 0.5363 -0.8440
vn 0.0022 0.5361 -0.8442
vn 0.0015 -0.8157 -0.5785
vn 0.0008 -0.4254 -0.9050
vn -0.0008 0.4253 -0.9051
vn -0.0019 1.0000 -0.0001
vn -0.0008 0.4254 0.9050
vn 0.0008 -0.4253 0.9051
vn 0.0016 -0.8156 0.5786
vn 0.0019 -1.0000 0.0001
vn 0.0017 -0.9280 -0.3726
vn 0.0003 -0.1800 -0.9837
vn 0.0007 -0.3817 -0.9243
vn -0.0000 -0.0001 -1.0000
vn 0.0004 -0.2178 -0.9760
vn 0.0008 -0.4345 -0.9007
vn -0.0019 0.9999 -0.0105
vn -0.1159 -0.1119 0.9869
vn -0.1168 -0.0001 0.9932
vn -0.0002 0.1126 0.9936
vn 0.1169 0.0003 0.9931
vn 0.1164 -0.1115 0.9869
vn 0.9543 0.2982 -0.0182
vn 0.9530 0.3019 -0.0255
vn 0.9099 0.4131 -0.0370
vn 0.8780 0.4695 0.0929
vn 0.9545 0.2710 0.1244
vn 0.8675 0.3153 0.3848
vn 0.5665 0.6056 0.5589
vn 0.5182 0.4150 0.7479
vn -0.0008 0.4675 0.8840
vn 0.5698 0.8181 -0.0780
vn 0.4869 0.8653 0.1188
vn 0.2325 0.9495 0.2105
vn -0.0012 0.6742 0.7385
vn -0.5687 0.6035 0.5589
vn -0.5196 0.4131 0.7479
vn -0.8685 0.3123 0.3849
vn 0.2084 0.9741 -0.0878
vn -0.2361 0.9487 0.2105
vn -0.4901 0.8635 0.1189
vn -0.8797 0.4663 0.0930
vn -0.9554 0.2677 0.1245
vn -0.9554 0.2949 -0.0181
vn -0.9114 0.4099 -0.0368
vn -0.9541 0.2986 -0.0254
vn -0.2121 0.9733 -0.0878
vn -0.5728 0.8160 -0.0779
vn 0.5124 0.8394 0.1814
vn 0.8245 0.5651 -0.0307
vn 0.8838 0.4491 -0.1313
vn 0.9407 0.3167 -0.1217
vn 0.9227 0.3227 -0.2109
vn 0.9235 0.3173 -0.2157
vn 0.9402 0.3086 -0.1442
vn 0.9589 0.2749 -0.0707
vn 0.9930 0.1163 -0.0229
vn 0.9693 0.1888 -0.1574
vn 0.9468 0.2587 -0.1917
vn 0.9891 0.1280 -0.0735
vn 0.9564 0.2001 0.2127
vn 0.9263 0.3550 0.1261
vn 0.7760 0.5070 0.3753
vn 0.9901 0.0646 0.1243
vn 0.8127 0.3522 0.4642
vn 0.1479 0.8590 0.4901
vn 0.2964 0.8479 0.4396
vn 0.4762 0.7995 0.3661
vn 0.7920 0.5862 0.1703
vn 0.8112 0.5844 -0.0199
vn 0.5250 0.7917 0.3125
vn 0.8166 0.2769 -0.5065
vn 0.8370 -0.0643 -0.5433
vn 0.6237 -0.3308 -0.7082
vn 0.6781 -0.4860 -0.5514
vn 0.7368 0.6369 0.2269
vn 0.9552 -0.0923 -0.2812
vn 0.9810 -0.0447 -0.1888
vn 0.7182 -0.5211 -0.4611
vn 0.5913 -0.6799 -0.4337
vn 0.5185 -0.8060 -0.2856
vn 0.2714 -0.8690 -0.4138
vn -0.3841 -0.8970 -0.2189
vn -0.6151 -0.7845 0.0794
vn -0.3937 -0.9193 0.0001
vn -0.6497 -0.6275 0.4291
vn -0.9064 -0.0016 0.4225
vn -0.9734 -0.0017 0.2290
vn -0.6520 0.6252 0.4290
vn -0.7020 0.6730 0.2330
vn -0.0017 0.9000 0.4359
vn -0.0018 0.9714 0.2373
vn -0.3597 -0.8398 0.4066
vn -0.5603 -0.5411 0.6271
vn -0.7847 -0.0013 0.6199
vn -0.5623 0.5392 0.6270
vn -0.0014 0.7730 0.6344
vn 0.5604 0.5412 0.6270
vn 0.6498 0.6275 0.4290
vn 0.8046 0.5886 0.0784
vn -0.3143 -0.7340 0.6021
vn 0.7848 0.0014 0.6198
vn 0.9064 0.0016 0.4224
vn 0.9069 0.3633 -0.2135
vn 0.9752 -0.0092 -0.2213
vn 0.7218 -0.6920 0.0140
vn 0.7084 -0.6792 -0.1921
vn 0.3829 -0.9007 -0.2053
vn 0.5624 -0.5391 0.6270
vn 0.6521 -0.6251 0.4290
vn 0.3628 -0.8385 0.4065
vn 0.3971 -0.9178 -0.0000
vn 0.3171 -0.7328 0.6020
vn 0.6180 -0.7822 0.0793
vn 0.3874 -0.8955 -0.2189
vn 0.3874 -0.8955 -0.2190
vn 0.9735 0.0017 0.2288
vn 0.6995 0.6756 0.2329
vn -0.0017 0.9000 0.4358
vn -0.8067 0.5857 0.0785
vn -0.9082 0.3601 -0.2133
vn -0.9751 -0.0126 -0.2212
vn -0.7192 -0.6946 0.0141
vn -0.7059 -0.6818 -0.1920
vn -0.3795 -0.9021 -0.2053
vn -0.1168 -0.0002 0.9932
vn -0.2995 0.8468 0.4396
vn -0.1511 0.8585 0.4901
vn -0.4792 0.7977 0.3662
vn -0.7941 0.5834 0.1704
vn -0.7391 0.6343 0.2270
vn -0.9549 -0.0956 -0.2810
vn -0.9809 -0.0481 -0.1887
vn -0.7163 -0.5237 -0.4611
vn -0.5889 -0.6820 -0.4337
vn -0.8133 0.5815 -0.0198
vn -0.8369 -0.0672 -0.5432
vn -0.6226 -0.3330 -0.7082
vn -0.6764 -0.4884 -0.5514
vn -0.5155 -0.8079 -0.2856
vn -0.2682 -0.8700 -0.4138
vn -0.5279 0.7897 0.3125
vn -0.8176 0.2741 -0.5064
vn 0.0050 0.5006 -0.8657
vn 0.0826 0.4366 -0.8959
vn 0.1162 0.4155 -0.9022
vn 0.1149 0.5359 -0.8364
vn 0.1228 0.4544 -0.8823
vn 0.3306 0.5188 -0.7884
vn 0.2406 0.5765 -0.7809
vn 0.0198 0.3739 -0.9273
vn 0.0059 0.2900 -0.9570
vn 0.0163 0.3125 -0.9498
vn 0.0273 0.3269 -0.9447
vn -0.0213 0.3738 -0.9273
vn -0.0176 0.3124 -0.9498
vn -0.0287 0.3268 -0.9447
vn -0.0071 0.2900 -0.9570
vn -0.1246 0.4539 -0.8823
vn -0.0070 0.5006 -0.8657
vn -0.1171 0.5355 -0.8364
vn -0.3326 0.5176 -0.7883
vn -0.2429 0.5756 -0.7808
vn -0.0843 0.4363 -0.8959
vn -0.1179 0.4150 -0.9021
vn 0.0533 0.4062 0.9122
vn 0.0927 0.3968 0.9132
vn 0.0624 0.4126 0.9088
vn 0.1056 0.3882 0.9155
vn 0.0844 0.3363 0.9380
vn 0.1498 0.3013 0.9417
vn 0.1614 0.3011 0.9398
vn 0.0833 0.2965 0.9514
vn 0.0593 0.2871 0.9560
vn -0.0015 0.2716 0.9624
vn -0.0229 0.2927 0.9559
vn 0.0091 0.2498 0.9682
vn 0.0001 -0.0180 0.9998
vn 0.0001 -0.0238 0.9997
vn 0.0012 -0.5964 0.8027
vn 0.0013 -0.6892 0.7246
vn 0.0017 -0.8631 0.5051
vn 0.0392 0.2413 0.9697
vn -0.0099 0.2498 0.9682
vn 0.0006 0.2716 0.9624
vn -0.0603 0.2869 0.9561
vn -0.0843 0.2963 0.9514
vn 0.0219 0.2927 0.9559
vn -0.0400 0.2411 0.9697
vn -0.1509 0.3008 0.9417
vn -0.1625 0.3006 0.9398
vn -0.0855 0.3360 0.9380
vn -0.0941 0.3965 0.9132
vn -0.1070 0.3878 0.9155
vn -0.0638 0.4124 0.9088
vn -0.0548 0.4060 0.9122
vn -0.0220 0.3038 0.9525
vn -0.0386 0.3496 0.9361
vn -0.0941 0.4826 0.8708
vn -0.0542 0.3224 0.9451
vn -0.0861 0.5519 0.8294
vn -0.1676 0.9366 0.3077
vn -0.1173 0.9930 -0.0132
vn -0.1436 0.2832 0.9482
vn 0.0210 0.3039 0.9525
vn 0.0373 0.3497 0.9361
vn 0.0924 0.4830 0.8708
vn 0.0530 0.3226 0.9451
vn 0.0841 0.5522 0.8294
vn 0.1427 0.2837 0.9482
vn 0.1641 0.9372 0.3077
vn 0.1136 0.9934 -0.0132
vn -0.9864 -0.1637 -0.0163
vn -0.9883 -0.1256 0.0871
vn -0.9376 -0.3324 0.1018
vn -0.9744 -0.1756 0.1403
vn -0.9896 -0.0725 0.1243
vn -0.9813 -0.1139 0.1553
vn 0.9770 0.2086 0.0440
vn 0.9752 0.2212 0.0002
vn 0.9764 0.2149 0.0223
vn 0.9791 0.2000 -0.0362
vn 0.9758 0.2166 -0.0307
vn 0.9707 0.2405 -0.0002
vn 0.9707 0.2404 -0.0001
vn 0.9142 -0.3453 0.2121
vn 0.9172 -0.3984 -0.0000
vn 0.9087 -0.3333 0.2512
vn 0.8225 -0.2302 0.5201
vn -0.8747 0.4847 -0.0020
vn -0.9373 0.3482 -0.0150
vn -0.8840 0.4673 -0.0074
vn -0.9525 0.3045 -0.0036
vn -0.9581 0.2864 -0.0028
vn -0.9610 0.2758 -0.0225
vn -0.9349 0.2443 0.2575
vn -0.9363 0.2559 0.2404
vn -0.9337 0.2634 0.2427
vn -0.9348 0.2646 0.2371
vn -0.9395 0.2536 0.2303
vn 0.0008 -0.4735 -0.8808
vn 0.2797 -0.4528 -0.8466
vn 0.0003 -0.4727 -0.8812
vn 0.3298 -0.4404 -0.8350
vn 0.6316 -0.3513 -0.6911
vn 0.6191 -0.3403 -0.7078
vn 0.4250 0.4132 0.8054
vn 0.5605 0.3511 0.7500
vn 0.6354 0.3692 0.6782
vn 0.3052 0.4107 0.8592
vn 0.1990 0.4502 0.8705
vn 0.1338 0.4333 0.8912
vn -0.2006 0.4495 0.8705
vn -0.3066 0.4096 0.8592
vn -0.1353 0.4329 0.8912
vn -0.4264 0.4117 0.8054
vn -0.5617 0.3491 0.7500
vn -0.6367 0.3669 0.6783
vn 0.9832 -0.0791 -0.1645
vn 0.9658 -0.0742 -0.2483
vn 0.9651 -0.0984 -0.2428
vn 0.9585 -0.0849 -0.2721
vn 0.9594 -0.0411 -0.2792
vn 0.0018 -0.9783 -0.2073
vn 0.0018 -0.9753 -0.2208
vn 0.0017 -0.9164 -0.4004
vn 0.9388 -0.3291 0.1017
vn 0.9887 -0.1221 0.0869
vn 0.9869 -0.1602 -0.0165
vn 0.9750 -0.1722 0.1402
vn 0.9899 -0.0690 0.1242
vn 0.9817 -0.1105 0.1551
vn 0.9355 0.2592 0.2403
vn 0.9339 0.2678 0.2370
vn 0.9386 0.2569 0.2302
vn 0.9328 0.2667 0.2426
vn 0.9341 0.2475 0.2574
vn 0.8729 0.4878 -0.0022
vn 0.8824 0.4705 -0.0075
vn 0.9361 0.3515 -0.0152
vn 0.9514 0.3079 -0.0038
vn 0.9571 0.2897 -0.0029
vn 0.9600 0.2791 -0.0227
vn -0.9593 -0.0444 -0.2790
vn -0.9656 -0.0776 -0.2482
vn -0.9583 -0.0883 -0.2719
vn -0.9648 -0.1018 -0.2427
vn -0.9829 -0.0825 -0.1644
vn 0.4072 0.1317 0.9038
vn 0.5719 0.1198 0.8115
vn 0.3148 0.1398 0.9388
vn 0.1737 0.1594 0.9718
vn 0.1723 0.1651 0.9711
vn -0.3152 0.1387 0.9388
vn -0.1742 0.1588 0.9718
vn -0.1728 0.1645 0.9711
vn -0.4076 0.1303 0.9038
vn -0.5723 0.1178 0.8116
vn 0.0014 -0.4727 -0.8812
vn -0.2781 -0.4538 -0.8466
vn -0.3282 -0.4416 -0.8350
vn -0.6304 -0.3536 -0.6911
vn -0.6179 -0.3425 -0.7077
vn -0.8216 -0.2331 0.5202
vn -0.9130 -0.3485 0.2123
vn -0.9075 -0.3365 0.2514
vn -0.9158 -0.4016 0.0001
vn -0.9777 0.2052 0.0442
vn -0.9771 0.2115 0.0224
vn -0.9760 0.2178 0.0003
vn -0.9798 0.1965 -0.0361
vn -0.9765 0.2132 -0.0305
vn -0.9715 0.2370 -0.0001
vn -0.9715 0.2370 0.0001
vn 0.0289 -0.2814 -0.9591
vn 0.0259 -0.2957 -0.9549
vn 0.0042 -0.3951 -0.9186
vn 0.0007 -0.4108 -0.9117
vn -0.0249 -0.2958 -0.9549
vn -0.0028 -0.3951 -0.9186
vn -0.0280 -0.2815 -0.9591
vn -0.6104 0.7921 -0.0003
vn -0.6150 0.7885 -0.0027
vn -0.6116 0.7912 -0.0009
vn -0.6163 0.7875 -0.0034
vn -0.5626 0.7189 0.4082
vn -0.5590 0.7214 0.4087
vn -0.5421 0.7328 0.4112
vn -0.5380 0.7355 0.4118
vn -0.9990 -0.0192 -0.0409
vn -0.9963 0.0240 -0.0820
vn -0.9910 0.0623 -0.1183
vn -0.9870 0.0829 -0.1377
vn -0.0019 0.9963 -0.0861
vn -0.0022 0.9963 -0.0861
vn 0.9689 0.1046 -0.2243
vn 0.9240 0.1694 -0.3429
vn 0.9677 0.1067 -0.2282
vn 0.9202 0.1737 -0.3507
vn -0.9059 -0.3864 0.1730
vn -0.9041 -0.3829 0.1895
vn -0.9110 -0.4021 0.0918
vn -0.8843 -0.3551 0.3032
vn -0.4514 -0.0008 -0.8923
vn -0.8750 0.4841 -0.0000
vn 0.8733 0.4872 -0.0001
vn 0.8750 -0.4841 -0.0000
vn -0.8733 -0.4872 0.0001
vn -0.9454 0.3260 -0.0000
vn 0.4513 0.0007 -0.8924
vn 0.1350 0.9908 -0.0001
vn 0.1387 -0.9903 0.0001
vn 0.9532 -0.3023 -0.0000
vn 0.6074 0.7944 -0.0003
vn 0.6087 0.7934 -0.0010
vn 0.6121 0.7907 -0.0028
vn 0.6134 0.7898 -0.0035
vn 0.5354 0.7375 0.4117
vn 0.5564 0.7235 0.4087
vn 0.5394 0.7348 0.4112
vn 0.5600 0.7210 0.4081
vn 0.9867 0.0864 -0.1379
vn 0.9962 0.0275 -0.0821
vn 0.9908 0.0658 -0.1184
vn 0.9990 -0.0157 -0.0410
vn 0.8856 -0.3520 0.3031
vn 0.9073 -0.3832 0.1728
vn 0.9055 -0.3797 0.1894
vn 0.9124 -0.3988 0.0917
vn -0.0016 0.9963 -0.0861
vn -0.0018 0.9963 -0.0861
vn -0.9693 0.1012 -0.2242
vn -0.9681 0.1034 -0.2281
vn -0.9246 0.1661 -0.3427
vn -0.9209 0.1704 -0.3505
vn -0.1387 0.9903 -0.0001
vn -0.1350 -0.9908 0.0001
vn 0.9442 0.3294 -0.0001
vn -0.9521 -0.3057 0.0001
vn -0.2605 0.2499 0.9326
vn -0.0009 0.4779 0.8784
vn -0.3501 0.3358 0.8745
vn -0.0006 0.3549 0.9349
vn 0.3489 0.3370 0.8745
vn 0.2597 0.2508 0.9326
vn 0.4921 0.0009 0.8705
vn 0.3670 0.0007 0.9302
vn 0.3502 -0.3357 0.8745
vn -0.3669 -0.0006 0.9303
vn 0.2606 -0.2498 0.9326
vn 0.0010 -0.4778 0.8785
vn 0.0007 -0.3548 0.9349
vn -0.3488 -0.3369 0.8745
vn -0.4920 -0.0008 0.8706
vn -0.2596 -0.2507 0.9326
vn -0.0008 0.4779 0.8784
vn 0.0009 -0.4777 0.8785
vn 0.1747 -0.0993 0.9796
vn 0.3537 -0.1793 0.9180
vn 0.4254 -0.0163 0.9049
vn 0.1025 -0.2570 0.9610
vn 0.1131 -0.3730 0.9209
vn 0.0898 -0.3931 0.9151
vn 0.2582 -0.3472 0.9015
vn 0.5419 -0.1812 0.8207
vn 0.6257 -0.0465 0.7787
vn 0.6193 -0.0135 0.7850
vn -0.3529 -0.1805 0.9181
vn -0.1742 -0.0999 0.9796
vn -0.4252 -0.0178 0.9049
vn -0.1014 -0.2574 0.9610
vn -0.1116 -0.3734 0.9209
vn -0.0882 -0.3934 0.9151
vn -0.2568 -0.3481 0.9016
vn -0.5412 -0.1831 0.8207
vn -0.6254 -0.0486 0.7787
vn -0.6191 -0.0157 0.7851
vn 0.1169 0.0002 0.9931
vn 0.0003 -0.1125 0.9937
vn 0.9451 -0.3267 -0.0000
vn 0.9260 -0.1593 0.3423
vn 0.9259 -0.1593 -0.3424
vn 0.9254 0.1625 -0.3425
vn 0.9440 0.3301 -0.0001
vn 0.9254 0.1626 0.3423
vn -0.9259 0.1593 0.3424
vn -0.9451 0.3267 -0.0000
vn -0.9254 -0.1625 0.3425
vn -0.9440 -0.3300 0.0001
vn -0.9254 -0.1626 -0.3423
vn -0.9260 0.1593 -0.3423
vt 0.013263 0.857373
vt 0.058690 0.863728
vt 0.013263 0.845435
vt 0.049824 0.872226
vt 0.075425 0.915679
vt 0.064070 0.915736
vt 0.050160 0.959359
vt 0.059144 0.967793
vt 0.013263 0.974406
vt 0.013263 0.986369
vt 0.013263 0.883700
vt 0.033280 0.891456
vt 0.040746 0.915823
vt 0.033468 0.940240
vt 0.013263 0.948121
vt 0.013263 0.915922
vt 0.045224 0.977036
vt 0.013263 0.990160
vt 0.061881 0.969431
vt 0.078630 0.915654
vt 0.061353 0.861970
vt 0.013263 0.842875
vt 0.761004 0.643059
vt 0.759627 0.647634
vt 0.749648 0.647634
vt 0.549613 0.620440
vt 0.554191 0.606603
vt 0.588860 0.601972
vt 0.988345 0.649024
vt 0.988345 0.659806
vt 0.973653 0.659806
vt 0.954557 0.722771
vt 0.939865 0.722771
vt 0.939865 0.733552
vt 0.719906 0.841986
vt 0.750760 0.817537
vt 0.728378 0.850543
vt 0.461079 0.577023
vt 0.474253 0.619694
vt 0.330263 0.619694
vt 0.527882 0.599505
vt 0.532454 0.613342
vt 0.493214 0.594861
vt 0.509523 0.577173
vt 0.461079 0.516911
vt 0.732717 0.971352
vt 0.779851 0.850543
vt 0.779851 0.971352
vt 0.779851 0.817537
vt 0.081692 0.539930
vt 0.077327 0.595376
vt 0.077346 0.539930
vt 0.081229 0.595376
vt 0.073427 0.595376
vt 0.073002 0.539930
vt 0.077294 0.619312
vt 0.073223 0.619312
vt 0.077321 0.600242
vt 0.071268 0.600242
vt 0.083376 0.600242
vt 0.081366 0.619312
vt 0.077294 0.619312
vt 0.073223 0.619312
vt 0.077325 0.625600
vt 0.072852 0.625600
vt 0.077325 0.621126
vt 0.081799 0.625600
vt 0.209673 0.790731
vt 0.240016 0.748395
vt 0.183106 0.763505
vt 0.201552 0.725507
vt 0.178126 0.712267
vt 0.154445 0.729496
vt 0.148970 0.748726
vt 0.218066 0.692310
vt 0.184690 0.679154
vt 0.158504 0.701598
vt 0.265920 0.710567
vt 0.230953 0.667491
vt 0.191222 0.642025
vt 0.159355 0.673820
vt 0.205542 0.631363
vt 0.178182 0.584061
vt 0.161131 0.621147
vt 0.852073 0.982849
vt 0.832468 0.902198
vt 0.801073 0.982937
vt 0.801160 0.902158
vt 0.815440 0.877419
vt 0.801203 0.873691
vt 0.289825 0.767665
vt 0.325226 0.767665
vt 0.289825 0.756404
vt 0.325226 0.756404
vt 0.289825 0.745481
vt 0.325226 0.745481
vt 0.289825 0.734558
vt 0.325226 0.734558
vt 0.289825 0.723634
vt 0.325226 0.723634
vt 0.289825 0.712709
vt 0.325226 0.712709
vt 0.289825 0.701786
vt 0.325226 0.701786
vt 0.698407 0.656524
vt 0.588395 0.674281
vt 0.588287 0.656524
vt 0.698407 0.674281
vt 0.738209 0.656524
vt 0.738209 0.674281
vt 0.752812 0.656524
vt 0.752812 0.674281
vt 0.759627 0.674281
vt 0.749648 0.656524
vt 0.730670 0.656524
vt 0.730670 0.647634
vt 0.763399 0.647634
vt 0.763399 0.674281
vt 0.077312 0.516843
vt 0.085941 0.536103
vt 0.087093 0.516843
vt 0.077342 0.536103
vt 0.067533 0.516843
vt 0.068746 0.536103
vt 0.081366 0.619312
vt 0.779311 0.515442
vt 0.884227 0.515442
vt 0.828723 0.577139
vt 0.643984 0.577618
vt 0.639069 0.515442
vt 0.605415 0.522630
vt 0.622008 0.584319
vt 0.593219 0.544227
vt 0.576171 0.559402
vt 0.812377 0.603078
vt 0.639526 0.597474
vt 0.633868 0.611732
vt 0.608358 0.599181
vt 0.809110 0.617666
vt 0.184277 0.580757
vt 0.230247 0.612270
vt 0.246904 0.645230
vt 0.258771 0.629457
vt 0.271216 0.621499
vt 0.297068 0.603655
vt 0.205827 0.570922
vt 0.248222 0.599105
vt 0.227427 0.560248
vt 0.263054 0.592518
vt 0.245361 0.548086
vt 0.283313 0.584288
vt 0.261987 0.535416
vt 0.047829 0.671908
vt 0.036438 0.651909
vt 0.047829 0.651909
vt 0.036438 0.671908
vt 0.025651 0.651909
vt 0.025651 0.632525
vt 0.036438 0.632525
vt 0.025651 0.613091
vt 0.036438 0.613091
vt 0.025651 0.593181
vt 0.036438 0.593181
vt 0.025651 0.671908
vt 0.014874 0.651909
vt 0.014874 0.632525
vt 0.014874 0.613091
vt 0.014874 0.593181
vt 0.014874 0.574059
vt 0.025651 0.574059
vt 0.036438 0.574059
vt 0.014874 0.671908
vt 0.014874 0.554996
vt 0.025651 0.554996
vt 0.036438 0.554996
vt 0.047829 0.574059
vt 0.047829 0.554996
vt 0.036438 0.535645
vt 0.047829 0.535645
vt 0.047829 0.516337
vt 0.014874 0.535645
vt 0.025651 0.535645
vt 0.025651 0.516337
vt 0.036438 0.516337
vt 0.014874 0.516337
vt 0.936488 0.819100
vt 0.962199 0.784007
vt 0.961016 0.795119
vt 0.919134 0.819100
vt 0.917579 0.946641
vt 0.858542 0.913205
vt 0.845235 0.807238
vt 0.936488 0.946641
vt 0.936488 0.984111
vt 0.986285 0.984111
vt 0.986285 0.946641
vt 0.143133 0.743451
vt 0.148009 0.729652
vt 0.153191 0.673879
vt 0.150287 0.619114
vt 0.167539 0.575028
vt 0.107772 0.575028
vt 0.159327 0.555619
vt 0.107772 0.555619
vt 0.107772 0.534192
vt 0.166470 0.534192
vt 0.107772 0.514238
vt 0.186212 0.514238
vt 0.107772 0.598628
vt 0.554020 0.671190
vt 0.536815 0.656723
vt 0.536815 0.671190
vt 0.554020 0.656723
vt 0.310520 0.650083
vt 0.326230 0.678094
vt 0.317936 0.648780
vt 0.340100 0.644800
vt 0.340618 0.677757
vt 0.351929 0.662354
vt 0.352191 0.639750
vt 0.363596 0.637613
vt 0.351111 0.677751
vt 0.426674 0.656723
vt 0.426674 0.671190
vt 0.387442 0.656723
vt 0.387442 0.671190
vt 0.374689 0.677361
vt 0.374689 0.680730
vt 0.812402 0.792395
vt 0.818633 0.782494
vt 0.800858 0.792917
vt 0.790157 0.784883
vt 0.818590 0.767285
vt 0.782131 0.763835
vt 0.770393 0.738560
vt 0.701033 0.825818
vt 0.746944 0.697500
vt 0.631877 0.697500
vt 0.607116 0.729562
vt 0.515836 0.825818
vt 0.350073 0.729562
vt 0.597594 0.697500
vt 0.350073 0.697500
vt 0.696490 0.888914
vt 0.515836 0.888914
vt 0.684932 0.927178
vt 0.453839 0.940201
vt 0.350073 0.785789
vt 0.350073 0.949946
vt 0.541777 0.516911
vt 0.554680 0.545473
vt 0.216420 0.838076
vt 0.209534 0.881915
vt 0.201333 0.933264
vt 0.842541 0.769359
vt 0.918409 0.759492
vt 0.961025 0.760633
vt 0.923230 0.568112
vt 0.942547 0.533478
vt 0.943113 0.566515
vt 0.915794 0.527356
vt 0.900369 0.569373
vt 0.900385 0.525984
vt 0.953366 0.528774
vt 0.986841 0.544142
vt 0.961527 0.515895
vt 0.104006 0.966878
vt 0.108595 0.987230
vt 0.104006 0.987230
vt 0.126748 0.966878
vt 0.104006 0.910125
vt 0.162760 0.913604
vt 0.163044 0.966878
vt 0.154953 0.899013
vt 0.117631 0.785884
vt 0.154953 0.785884
vt 0.095147 0.785884
vt 0.095147 0.701800
vt 0.127559 0.701800
vt 0.095147 0.690817
vt 0.128751 0.690817
vt 0.095147 0.666692
vt 0.131313 0.666692
vt 0.095147 0.910125
vt 0.589339 0.536480
vt 0.571556 0.551898
vt 0.724939 0.981159
vt 0.779851 0.981159
vt 0.278074 0.516911
vt 0.940150 0.659806
vt 0.940150 0.649024
vt 0.701789 0.991374
vt 0.701789 0.952647
vt 0.461627 0.991374
vt 0.461627 0.951407
vt 0.213446 0.974671
vt 0.181061 0.978051
vt 0.945893 0.591612
vt 0.945895 0.624994
vt 0.983017 0.587653
vt 0.983015 0.628956
vt 0.916040 0.593351
vt 0.916047 0.623266
vt 0.929982 0.591614
vt 0.929988 0.624996
vt 0.988060 0.733552
vt 0.988060 0.722771
vt 0.940150 0.696324
vt 0.973653 0.676493
vt 0.988060 0.686255
vt 0.954557 0.706079
vt 0.364274 0.971033
vt 0.390272 0.971033
vt 0.364274 0.964281
vt 0.390272 0.964281
vt 0.364274 0.977785
vt 0.390272 0.977785
vt 0.364274 0.984536
vt 0.390272 0.984536
vt 0.410367 0.971033
vt 0.436280 0.971033
vt 0.410367 0.964281
vt 0.436280 0.964281
vt 0.410367 0.977785
vt 0.436280 0.977785
vt 0.410367 0.984536
vt 0.436280 0.984536
vt 0.957067 0.907354
vt 0.982421 0.907354
vt 0.957067 0.895509
vt 0.982421 0.895509
vt 0.957067 0.919197
vt 0.982421 0.919197
vt 0.957067 0.859815
vt 0.982421 0.859815
vt 0.957067 0.847973
vt 0.982421 0.847973
vt 0.957067 0.871657
vt 0.982421 0.871657
vt 0.957067 0.883497
vt 0.982421 0.883497
vt 0.588884 0.637750
vt 0.554209 0.633164
vt 0.834927 0.727939
vt 0.852610 0.727942
vt 0.834930 0.648427
vt 0.852615 0.648428
vt 0.527857 0.626063
vt 0.493179 0.630640
vt 0.905725 0.623268
vt 0.859923 0.628972
vt 0.905718 0.593352
vt 0.859913 0.587669
vt 0.789188 0.727939
vt 0.789188 0.648427
vt 0.871665 0.648428
vt 0.917406 0.648428
vt 0.871664 0.727942
vt 0.917406 0.727942
vt 0.059747 0.734918
vt 0.049444 0.754108
vt 0.070295 0.745469
vt 0.049444 0.739187
vt 0.028592 0.745468
vt 0.039140 0.734917
vt 0.019955 0.724610
vt 0.034872 0.724610
vt 0.028592 0.703752
vt 0.064016 0.724611
vt 0.049444 0.724610
vt 0.039140 0.714303
vt 0.049444 0.695112
vt 0.049444 0.710034
vt 0.070296 0.703752
vt 0.078932 0.724611
vt 0.059747 0.714303
vt 0.070984 0.781752
vt 0.047979 0.802218
vt 0.049998 0.773094
vt 0.079050 0.802827
vt 0.068312 0.825155
vt 0.044358 0.832151
vt 0.036770 0.831863
vt 0.024696 0.822025
vt 0.013528 0.803243
vt 0.023120 0.782284
vt 0.184565 0.807531
vt 0.184565 0.820084
vt 0.173698 0.813807
vt 0.195433 0.813807
vt 0.195433 0.826360
vt 0.184566 0.832636
vt 0.173698 0.826361
s 1
f 9/25/7 10/26/8 11/27/9
f 12/28/10 10/26/8 9/25/7
f 12/28/10 13/29/11 10/26/8
f 14/30/12 13/29/11 12/28/10
f 14/30/12 15/31/13 13/29/11
f 13/29/11 15/31/13 16/32/14
f 15/31/13 17/33/15 16/32/14
f 16/32/14 17/33/15 18/34/16
f 9/25/7 19/35/17 12/28/10
f 12/28/10 19/35/17 20/36/18
f 12/28/10 20/36/18 14/30/12
f 14/30/12 20/36/18 21/37/19
f 21/37/19 22/38/20 14/30/12
f 14/30/12 22/38/20 15/31/13
f 22/38/20 23/39/21 15/31/13
f 15/31/13 23/39/21 17/33/15
f 20/36/18 19/35/17 24/40/22
f 20/36/18 24/40/22 21/37/19
f 22/38/20 21/37/19 24/40/22
f 22/38/20 24/40/22 23/39/21
f 25/27/23 26/26/24 27/25/25
f 27/25/25 26/26/24 28/28/26
f 28/28/26 29/35/27 27/25/25
f 30/36/28 29/35/27 28/28/26
f 29/35/27 30/36/28 31/40/29
f 31/40/29 30/36/28 32/37/30
f 32/37/30 33/38/31 31/40/29
f 31/40/29 33/38/31 34/39/32
f 35/29/33 28/28/26 26/26/24
f 36/30/34 28/28/26 35/29/33
f 36/30/34 30/36/28 28/28/26
f 32/37/30 30/36/28 36/30/34
f 32/37/30 36/30/34 33/38/31
f 33/38/31 36/30/34 37/31/35
f 33/38/31 37/31/35 34/39/32
f 34/39/32 37/31/35 38/33/36
f 39/32/37 38/33/36 37/31/35
f 40/34/38 38/33/36 39/32/37
f 36/30/34 35/29/33 37/31/35
f 37/31/35 35/29/33 39/32/37
f 41/41/39 42/34/39 43/42/39
f 44/32/40 42/34/39 41/41/39
f 44/32/40 41/41/39 45/43/41
f 46/44/42 44/32/40 45/43/41
f 47/29/43 44/32/40 46/44/42
f 47/29/43 46/44/42 48/26/44
f 48/26/44 46/44/42 49/45/45
f 48/26/44 49/45/45 50/27/46
f 50/27/46 49/45/45 51/46/46
f 52/42/47 53/34/47 54/41/47
f 54/41/47 53/34/47 55/32/48
f 54/41/47 55/32/48 56/43/49
f 55/32/48 57/44/50 56/43/49
f 58/29/50 57/44/50 55/32/48
f 58/29/50 59/26/51 57/44/50
f 57/44/50 59/26/51 60/45/52
f 61/27/53 60/45/52 59/26/51
f 62/46/53 60/45/52 61/27/53
f 63/47/54 64/48/54 65/49/54
f 66/48/55 67/47/55 68/49/55
f 69/50/56 70/51/56 71/52/56
f 72/53/57 73/54/57 74/55/57
f 75/56/58 76/57/58 77/58/58
f 78/59/59 79/60/59 80/61/59
f 81/62/60 82/63/60 83/64/60
f 84/65/61 85/66/61 86/67/61
f 87/54/62 88/53/62 89/55/62
f 90/57/63 91/56/63 92/58/63
f 93/60/64 94/59/64 95/61/64
f 96/63/60 97/62/60 98/64/60
f 99/68/61 100/69/61 101/62/61
f 102/51/56 103/50/56 104/52/56
f 105/66/61 106/65/61 107/67/61
f 108/26/65 109/25/66 110/27/67
f 108/26/65 111/28/68 109/25/66
f 112/35/69 109/25/66 111/28/68
f 112/35/69 111/28/68 113/36/70
f 112/35/69 113/36/70 114/40/71
f 114/40/71 113/36/70 115/37/72
f 115/37/72 116/38/73 114/40/71
f 114/40/71 116/38/73 117/39/74
f 118/29/75 111/28/68 108/26/65
f 118/29/75 119/30/76 111/28/68
f 113/36/70 111/28/68 119/30/76
f 113/36/70 119/30/76 115/37/72
f 116/38/73 115/37/72 119/30/76
f 116/38/73 119/30/76 120/31/77
f 117/39/74 116/38/73 120/31/77
f 117/39/74 120/31/77 121/33/78
f 121/33/78 120/31/77 122/32/79
f 121/33/78 122/32/79 123/34/80
f 120/31/77 119/30/76 118/29/75
f 120/31/77 118/29/75 122/32/79
f 124/26/81 125/27/82 126/25/83
f 124/26/81 126/25/83 127/28/84
f 127/28/84 128/29/85 124/26/81
f 127/28/84 129/30/86 128/29/85
f 128/29/85 129/30/86 130/31/87
f 128/29/85 130/31/87 131/32/88
f 132/33/89 131/32/88 130/31/87
f 132/33/89 133/34/90 131/32/88
f 134/35/91 127/28/84 126/25/83
f 134/35/91 135/36/92 127/28/84
f 135/36/92 129/30/86 127/28/84
f 135/36/92 136/37/93 129/30/86
f 129/30/86 136/37/93 137/38/94
f 129/30/86 137/38/94 130/31/87
f 130/31/87 137/38/94 138/39/95
f 130/31/87 138/39/95 132/33/89
f 135/36/92 134/35/91 139/40/96
f 135/36/92 139/40/96 136/37/93
f 137/38/94 136/37/93 139/40/96
f 137/38/94 139/40/96 138/39/95
f 140/34/97 141/41/97 142/42/97
f 140/34/97 143/32/98 141/41/97
f 141/41/97 143/32/98 144/43/99
f 143/32/98 145/44/100 144/43/99
f 143/32/98 146/29/100 145/44/100
f 145/44/100 146/29/100 147/26/101
f 145/44/100 147/26/101 148/45/102
f 148/45/102 147/26/101 149/27/103
f 148/45/102 149/27/103 150/46/103
f 151/34/104 152/42/105 153/41/104
f 151/34/104 153/41/104 154/32/106
f 154/32/106 153/41/104 155/43/107
f 156/44/108 154/32/106 155/43/107
f 156/44/108 157/29/108 154/32/106
f 158/26/109 157/29/108 156/44/108
f 158/26/109 156/44/108 159/45/110
f 159/45/110 160/27/111 158/26/109
f 159/45/110 161/46/111 160/27/111
f 162/70/112 163/71/113 164/72/112
f 165/61/114 163/71/113 162/70/112
f 165/61/114 166/60/115 163/71/113
f 163/71/113 166/60/115 167/73/115
f 168/71/113 169/70/112 170/72/112
f 171/61/114 169/70/112 168/71/113
f 168/71/113 172/60/115 171/61/114
f 173/73/115 172/60/115 168/71/113
f 174/74/116 175/75/116 176/76/116
f 177/77/116 175/75/116 174/74/116
f 178/75/117 179/78/117 180/76/117
f 180/76/117 179/78/117 181/79/117
f 182/76/118 183/77/118 184/74/118
f 185/75/118 183/77/118 182/76/118
f 186/78/119 187/75/119 188/79/119
f 188/79/119 187/75/119 189/76/119
f 190/75/116 191/76/116 192/77/116
f 192/77/116 191/76/116 193/74/116
f 194/75/117 195/79/117 196/76/117
f 197/78/117 195/79/117 194/75/117
f 198/77/118 199/74/118 200/75/118
f 200/75/118 199/74/118 201/76/118
f 202/78/119 203/76/119 204/79/119
f 205/75/119 203/76/119 202/78/119
f 206/80/120 207/81/120 208/82/121
f 208/82/121 207/81/120 209/83/122
f 208/82/121 209/83/122 210/75/123
f 211/77/124 208/82/121 210/75/123
f 212/84/125 208/82/121 211/77/124
f 212/84/125 213/80/126 208/82/121
f 214/85/126 213/80/126 212/84/125
f 210/75/123 209/83/122 215/78/127
f 216/75/128 217/84/129 218/77/130
f 219/82/131 217/84/129 216/75/128
f 219/82/131 220/85/132 217/84/129
f 221/86/132 220/85/132 219/82/131
f 222/78/133 219/82/131 216/75/128
f 223/83/134 219/82/131 222/78/133
f 223/83/134 224/86/135 219/82/131
f 225/87/135 224/86/135 223/83/134
f 226/80/135 227/82/136 228/81/135
f 228/81/135 227/82/136 229/83/134
f 227/82/136 230/75/128 229/83/134
f 229/83/134 230/75/128 231/78/133
f 227/82/136 232/77/130 230/75/128
f 233/84/129 232/77/130 227/82/136
f 234/80/132 233/84/129 227/82/136
f 235/85/132 233/84/129 234/80/132
f 236/84/125 237/75/123 238/77/124
f 239/82/121 237/75/123 236/84/125
f 239/82/121 240/78/127 237/75/123
f 241/83/122 240/78/127 239/82/121
f 242/86/137 241/83/122 239/82/121
f 243/87/137 241/83/122 242/86/137
f 244/85/126 239/82/121 236/84/125
f 245/86/126 239/82/121 244/85/126
f 246/88/138 247/89/138 248/90/138
f 246/88/138 248/90/138 249/91/138
f 250/88/139 251/90/139 252/89/138
f 250/88/139 253/91/139 251/90/139
f 254/88/138 255/89/138 256/90/138
f 254/88/138 256/90/138 257/91/138
f 258/88/139 259/90/139 260/89/139
f 258/88/139 261/91/139 259/90/139
f 262/89/138 263/88/138 264/90/138
f 264/90/138 263/88/138 265/91/139
f 266/90/139 267/88/139 268/89/139
f 269/91/138 267/88/139 266/90/139
f 270/90/139 271/88/139 272/89/139
f 273/91/138 271/88/139 270/90/139
f 274/89/139 275/88/139 276/90/139
f 276/90/139 275/88/139 277/91/139
f 278/92/140 279/93/141 280/94/142
f 280/94/142 279/93/141 281/95/143
f 281/95/143 282/96/144 280/94/142
f 282/96/144 283/97/145 280/94/142
f 283/97/145 284/98/146 280/94/142
f 279/93/141 285/99/147 281/95/143
f 285/99/147 282/96/144 281/95/143
f 286/100/148 282/96/144 285/99/147
f 286/100/148 287/101/149 282/96/144
f 282/96/144 287/101/149 283/97/145
f 288/102/150 285/99/147 279/93/141
f 289/103/151 285/99/147 288/102/150
f 285/99/147 289/103/151 286/100/148
f 286/100/148 289/103/151 290/104/152
f 286/100/148 290/104/152 291/105/153
f 291/105/153 287/101/149 286/100/148
f 290/104/152 289/103/151 292/106/154
f 290/104/152 292/106/154 293/107/155
f 294/108/156 290/104/152 293/107/155
f 291/105/153 290/104/152 294/108/156
f 295/109/157 296/110/158 297/111/159
f 297/111/159 296/110/158 298/112/160
f 299/113/161 298/112/160 296/110/158
f 300/114/162 298/112/160 299/113/161
f 301/114/163 302/113/164 303/112/165
f 303/112/165 302/113/164 304/110/166
f 304/110/166 305/111/167 303/112/165
f 306/109/168 305/111/167 304/110/166
f 307/115/169 308/116/169 309/117/170
f 309/117/170 308/116/169 310/118/170
f 309/117/170 310/118/170 311/119/171
f 311/119/171 310/118/170 312/120/171
f 311/119/171 312/120/171 313/121/172
f 313/121/172 312/120/171 314/122/172
f 313/121/172 314/122/172 315/123/173
f 315/123/173 314/122/172 316/124/173
f 315/123/173 316/124/173 317/125/174
f 317/125/174 316/124/173 318/126/174
f 317/125/174 318/126/174 319/127/175
f 319/127/175 318/126/174 320/128/175
f 321/115/169 322/117/170 323/116/169
f 323/116/169 322/117/170 324/118/170
f 322/117/170 325/119/171 324/118/170
f 324/118/170 325/119/171 326/120/171
f 325/119/171 327/121/172 326/120/171
f 326/120/171 327/121/172 328/122/172
f 327/121/172 329/123/173 328/122/172
f 328/122/172 329/123/173 330/124/173
f 329/123/173 331/125/174 330/124/173
f 330/124/173 331/125/174 332/126/174
f 331/125/174 333/127/175 332/126/174
f 332/126/174 333/127/175 334/128/175
f 335/129/176 336/130/176 337/131/176
f 338/132/176 336/130/176 335/129/176
f 335/129/176 339/133/177 338/132/176
f 338/132/176 339/133/177 340/134/177
f 339/133/177 341/135/178 340/134/177
f 340/134/177 341/135/178 342/136/179
f 341/135/178 343/137/180 342/136/179
f 344/48/56 343/137/180 341/135/178
f 341/135/178 345/49/181 344/48/56
f 346/138/181 345/49/181 341/135/178
f 347/139/182 345/49/181 346/138/181
f 348/140/182 345/49/181 347/139/182
f 349/130/176 350/129/176 351/131/176
f 352/132/176 350/129/176 349/130/176
f 350/129/176 352/132/176 353/133/177
f 353/133/177 352/132/176 354/134/177
f 353/133/177 354/134/177 355/135/178
f 355/135/178 354/134/177 356/136/179
f 357/137/56 355/135/178 356/136/179
f 358/48/56 355/135/178 357/137/56
f 358/48/56 359/49/181 355/135/178
f 355/135/178 359/49/181 360/138/181
f 359/49/181 361/139/182 360/138/181
f 362/140/182 361/139/182 359/49/181
f 363/141/183 364/142/183 365/48/183
f 365/48/183 364/142/183 366/137/183
f 367/141/183 368/48/183 369/142/183
f 369/142/183 368/48/183 370/137/183
f 371/143/118 372/144/118 373/145/118
f 374/146/118 372/144/118 371/143/118
f 375/147/119 376/146/119 377/143/119
f 378/148/119 376/146/119 375/147/119
f 379/144/116 380/146/116 381/145/116
f 381/145/116 380/146/116 382/143/116
f 383/146/117 384/148/117 385/143/117
f 385/143/117 384/148/117 386/147/117
f 387/79/119 388/75/119 389/76/119
f 390/78/119 388/75/119 387/79/119
f 391/75/118 392/77/118 393/76/118
f 393/76/118 392/77/118 394/74/118
f 395/77/116 396/75/116 397/74/116
f 397/74/116 396/75/116 398/76/116
f 399/75/117 400/78/117 401/76/117
f 401/76/117 400/78/117 402/79/117
f 403/145/116 404/146/116 405/143/116
f 406/144/116 404/146/116 403/145/116
f 407/146/117 408/148/117 409/143/117
f 409/143/117 408/148/117 410/147/117
f 411/148/119 412/146/119 413/147/119
f 413/147/119 412/146/119 414/143/119
f 415/146/118 416/144/118 417/143/118
f 417/143/118 416/144/118 418/145/118
f 419/144/116 420/143/116 421/145/116
f 422/146/116 420/143/116 419/144/116
f 423/146/117 424/147/117 425/143/117
f 426/148/117 424/147/117 423/146/117
f 427/144/118 428/145/118 429/146/118
f 429/146/118 428/145/118 430/143/118
f 431/146/119 432/143/119 433/148/119
f 433/148/119 432/143/119 434/147/119
f 435/75/117 436/79/117 437/76/117
f 438/78/117 436/79/117 435/75/117
f 439/75/116 440/76/116 441/77/116
f 441/77/116 440/76/116 442/74/116
f 443/77/118 444/74/118 445/75/118
f 445/75/118 444/74/118 446/76/118
f 447/75/119 448/76/119 449/78/119
f 449/78/119 448/76/119 450/79/119
f 451/146/118 452/145/118 453/143/118
f 454/144/118 452/145/118 451/146/118
f 455/146/119 456/143/119 457/148/119
f 457/148/119 456/143/119 458/147/119
f 459/148/117 460/147/117 461/146/117
f 461/146/117 460/147/117 462/143/117
f 463/146/116 464/143/116 465/144/116
f 465/144/116 464/143/116 466/145/116
f 467/79/184 468/146/185 469/148/184
f 470/76/185 468/146/185 467/79/184
f 470/76/185 471/144/186 468/146/185
f 472/74/186 471/144/186 470/76/185
f 472/74/186 473/146/187 471/144/186
f 474/76/187 473/146/187 472/74/186
f 474/76/187 475/148/188 473/146/187
f 476/79/188 475/148/188 474/76/187
f 477/85/132 478/84/129 479/80/132
f 479/80/132 478/84/129 480/82/136
f 478/84/129 481/77/130 480/82/136
f 480/82/136 481/77/130 482/75/128
f 480/82/136 482/75/128 483/83/134
f 484/81/135 480/82/136 483/83/134
f 485/80/135 480/82/136 484/81/135
f 483/83/134 482/75/128 486/78/133
f 487/84/125 488/75/123 489/77/124
f 490/82/121 488/75/123 487/84/125
f 490/82/121 491/78/127 488/75/123
f 492/83/122 491/78/127 490/82/121
f 493/80/137 492/83/122 490/82/121
f 494/81/137 492/83/122 493/80/137
f 495/149/126 490/82/121 487/84/125
f 496/80/126 490/82/121 495/149/126
f 497/150/189 498/151/190 499/152/191
f 499/152/191 500/153/192 497/150/189
f 497/150/189 500/153/192 501/154/193
f 501/154/193 500/153/192 502/155/194
f 502/155/194 500/153/192 503/156/195
f 502/155/194 503/156/195 504/157/196
f 504/157/196 503/156/195 505/158/197
f 506/159/198 500/153/192 499/152/191
f 507/160/199 500/153/192 506/159/198
f 503/156/195 500/153/192 507/160/199
f 508/161/200 503/156/195 507/160/199
f 509/162/201 503/156/195 508/161/200
f 505/158/197 503/156/195 509/162/201
f 509/162/201 510/156/202 505/158/197
f 505/158/197 510/156/202 511/157/203
f 510/156/202 512/155/204 511/157/203
f 506/159/198 513/163/205 507/160/199
f 507/160/199 513/163/205 508/161/200
f 509/162/201 514/161/206 510/156/202
f 510/156/202 514/161/206 515/160/207
f 516/153/208 510/156/202 515/160/207
f 516/153/208 512/155/204 510/156/202
f 517/154/209 512/155/204 516/153/208
f 517/154/209 516/153/208 518/150/210
f 518/150/210 516/153/208 519/152/211
f 520/151/212 518/150/210 519/152/211
f 521/163/213 515/160/207 514/161/206
f 522/159/214 515/160/207 521/163/213
f 515/160/207 522/159/214 516/153/208
f 516/153/208 522/159/214 519/152/211
f 523/98/215 524/97/216 525/94/217
f 524/97/216 526/96/218 525/94/217
f 526/96/218 527/95/219 525/94/217
f 527/95/219 528/93/220 525/94/217
f 525/94/217 528/93/220 529/92/221
f 530/101/222 526/96/218 524/97/216
f 530/101/222 531/100/223 526/96/218
f 531/100/223 532/99/224 526/96/218
f 526/96/218 532/99/224 527/95/219
f 527/95/219 532/99/224 528/93/220
f 528/93/220 532/99/224 533/102/225
f 532/99/224 534/103/226 533/102/225
f 531/100/223 534/103/226 532/99/224
f 535/104/227 534/103/226 531/100/223
f 534/103/226 535/104/227 536/106/228
f 536/106/228 535/104/227 537/107/229
f 538/105/230 531/100/223 530/101/222
f 538/105/230 535/104/227 531/100/223
f 539/108/231 535/104/227 538/105/230
f 535/104/227 539/108/231 537/107/229
f 540/107/232 541/164/233 542/106/234
f 542/106/234 541/164/233 543/165/235
f 544/166/236 542/106/234 543/165/235
f 545/103/237 542/106/234 544/166/236
f 544/166/236 546/102/238 545/103/237
f 547/167/239 546/102/238 544/166/236
f 548/168/240 546/102/238 547/167/239
f 549/169/241 546/102/238 548/168/240
f 543/165/235 541/164/233 550/170/242
f 543/165/235 550/170/242 551/171/243
f 547/167/239 543/165/235 551/171/243
f 544/166/236 543/165/235 547/167/239
f 551/171/243 550/170/242 552/172/244
f 551/171/243 552/172/244 553/173/245
f 548/168/240 551/171/243 553/173/245
f 547/167/239 551/171/243 548/168/240
f 553/173/245 552/172/244 554/174/246
f 554/174/246 555/175/247 553/173/245
f 549/169/241 553/173/245 555/175/247
f 548/168/240 553/173/245 549/169/241
f 556/176/248 555/175/247 554/174/246
f 557/177/249 558/178/250 559/179/249
f 560/180/251 558/178/250 557/177/249
f 560/180/251 561/181/252 558/178/250
f 561/181/252 562/182/253 558/178/250
f 558/178/250 562/182/253 563/183/254
f 562/182/253 564/184/255 563/183/254
f 563/183/254 564/184/255 565/185/256
f 564/184/255 566/186/257 565/185/256
f 565/185/256 566/186/257 567/187/258
f 568/188/259 561/181/252 560/180/251
f 568/188/259 569/189/260 561/181/252
f 569/189/260 570/190/261 561/181/252
f 561/181/252 570/190/261 562/182/253
f 570/190/261 571/191/262 562/182/253
f 562/182/253 571/191/262 564/184/255
f 571/191/262 572/192/263 564/184/255
f 564/184/255 572/192/263 566/186/257
f 572/192/263 573/193/264 566/186/257
f 566/186/257 573/193/264 574/194/265
f 566/186/257 574/194/265 567/187/258
f 567/187/258 574/194/265 575/195/266
f 576/196/267 569/189/260 568/188/259
f 573/193/264 577/197/268 574/194/265
f 574/194/265 577/197/268 578/198/269
f 574/194/265 578/198/269 575/195/266
f 575/195/266 578/198/269 579/199/55
f 575/195/266 579/199/55 580/200/270
f 580/200/270 579/199/55 581/201/271
f 579/199/55 582/202/272 581/201/271
f 581/201/271 582/202/272 583/203/273
f 583/203/273 582/202/272 584/204/274
f 577/197/268 585/205/275 578/198/269
f 578/198/269 585/205/275 586/206/276
f 578/198/269 586/206/276 579/199/55
f 579/199/55 586/206/276 582/202/272
f 586/206/276 587/207/277 582/202/272
f 582/202/272 587/207/277 588/208/278
f 584/204/274 582/202/272 588/208/278
f 585/205/275 589/209/279 586/206/276
f 586/206/276 589/209/279 587/207/277
f 590/178/280 591/177/281 592/179/282
f 593/180/278 591/177/281 590/178/280
f 594/181/276 593/180/278 590/178/280
f 595/188/277 593/180/278 594/181/276
f 596/189/275 595/188/277 594/181/276
f 597/196/279 595/188/277 596/189/275
f 594/181/276 590/178/280 598/182/269
f 599/190/268 594/181/276 598/182/269
f 596/189/275 594/181/276 599/190/268
f 598/182/269 590/178/280 600/183/283
f 598/182/269 600/183/283 601/184/265
f 602/191/264 598/182/269 601/184/265
f 599/190/268 598/182/269 602/191/264
f 601/184/265 600/183/283 603/185/284
f 601/184/265 603/185/284 604/186/285
f 605/192/263 601/184/265 604/186/285
f 602/191/264 601/184/265 605/192/263
f 604/186/285 603/185/284 606/187/258
f 604/186/285 606/187/258 607/194/255
f 608/193/262 604/186/285 607/194/255
f 605/192/263 604/186/285 608/193/262
f 607/194/255 606/187/258 609/195/286
f 607/194/255 609/195/286 610/198/253
f 611/197/261 607/194/255 610/198/253
f 608/193/262 607/194/255 611/197/261
f 610/198/253 609/195/286 612/199/54
f 610/198/253 612/199/54 613/206/252
f 614/205/260 610/198/253 613/206/252
f 611/197/261 610/198/253 614/205/260
f 609/195/286 615/200/287 612/199/54
f 612/199/54 615/200/287 616/201/288
f 612/199/54 616/201/288 617/202/289
f 613/206/252 612/199/54 617/202/289
f 613/206/252 617/202/289 618/207/259
f 619/209/267 613/206/252 618/207/259
f 614/205/260 613/206/252 619/209/267
f 617/202/289 616/201/288 620/203/290
f 621/204/291 617/202/289 620/203/290
f 622/208/251 617/202/289 621/204/291
f 618/207/259 617/202/289 622/208/251
f 623/85/126 624/80/126 625/84/125
f 625/84/125 624/80/126 626/82/121
f 625/84/125 626/82/121 627/77/124
f 627/77/124 626/82/121 628/75/123
f 626/82/121 629/83/122 628/75/123
f 628/75/123 629/83/122 630/78/127
f 626/82/121 631/81/137 629/83/122
f 632/80/137 631/81/137 626/82/121
f 633/75/128 634/84/129 635/77/130
f 636/82/131 634/84/129 633/75/128
f 636/82/131 637/149/132 634/84/129
f 638/80/132 637/149/132 636/82/131
f 639/78/133 636/82/131 633/75/128
f 640/83/134 636/82/131 639/78/133
f 640/83/134 641/80/135 636/82/131
f 642/81/135 641/80/135 640/83/134
f 643/146/187 644/79/188 645/148/188
f 646/76/187 644/79/188 643/146/187
f 647/144/186 646/76/187 643/146/187
f 648/74/186 646/76/187 647/144/186
f 649/146/292 648/74/186 647/144/186
f 650/76/292 648/74/186 649/146/292
f 651/148/184 650/76/292 649/146/292
f 652/79/184 650/76/292 651/148/184
f 653/164/293 654/107/294 655/106/295
f 656/165/296 653/164/293 655/106/295
f 657/170/297 653/164/293 656/165/296
f 658/171/298 657/170/297 656/165/296
f 659/172/299 657/170/297 658/171/298
f 660/173/300 659/172/299 658/171/298
f 661/174/301 659/172/299 660/173/300
f 656/165/296 655/106/295 662/166/302
f 663/167/303 656/165/296 662/166/302
f 658/171/298 656/165/296 663/167/303
f 664/168/304 658/171/298 663/167/303
f 660/173/300 658/171/298 664/168/304
f 665/169/305 660/173/300 664/168/304
f 666/175/306 660/173/300 665/169/305
f 666/175/306 661/174/301 660/173/300
f 667/176/307 661/174/301 666/175/306
f 662/166/302 655/106/295 668/103/308
f 669/102/309 662/166/302 668/103/308
f 669/102/309 663/167/303 662/166/302
f 669/102/309 664/168/304 663/167/303
f 669/102/309 665/169/305 664/168/304
f 670/210/310 671/211/311 672/212/312
f 673/213/313 671/211/311 670/210/310
f 673/213/313 670/210/310 674/214/314
f 675/215/315 673/213/313 674/214/314
f 676/216/316 673/213/313 675/215/315
f 674/214/314 670/210/310 677/217/317
f 678/218/318 674/214/314 677/217/317
f 678/218/318 677/217/317 679/219/319
f 679/219/319 677/217/317 680/220/320
f 681/217/321 682/219/322 683/220/323
f 684/218/324 682/219/322 681/217/321
f 685/214/325 684/218/324 681/217/321
f 686/210/326 685/214/325 681/217/321
f 687/213/327 685/214/325 686/210/326
f 687/213/327 688/215/328 685/214/325
f 689/216/329 688/215/328 687/213/327
f 687/213/327 686/210/326 690/211/330
f 690/211/330 686/210/326 691/212/331
f 692/221/332 693/222/333 694/98/334
f 694/98/334 693/222/333 695/97/335
f 695/97/335 693/222/333 696/101/336
f 693/222/333 697/223/337 696/101/336
f 697/223/337 698/105/338 696/101/336
f 697/223/337 699/108/339 698/105/338
f 700/224/340 699/108/339 697/223/337
f 700/224/340 701/225/341 699/108/339
f 699/108/339 701/225/341 702/107/342
f 701/225/341 700/224/340 703/226/343
f 701/225/341 703/226/343 704/227/344
f 704/227/344 703/226/343 705/228/345
f 705/228/345 706/229/346 704/227/344
f 704/227/344 706/229/346 707/230/347
f 708/231/348 707/230/347 706/229/346
f 709/232/348 707/230/347 708/231/348
f 703/226/343 700/224/340 710/233/349
f 711/232/348 712/231/348 713/230/347
f 713/230/347 712/231/348 714/229/346
f 714/229/346 715/227/344 713/230/347
f 716/228/345 715/227/344 714/229/346
f 716/228/345 717/226/350 715/227/344
f 715/227/344 717/226/350 718/225/351
f 718/225/351 717/226/350 719/224/352
f 720/108/353 718/225/351 719/224/352
f 721/107/354 718/225/351 720/108/353
f 719/224/352 717/226/350 722/233/355
f 719/224/352 723/223/356 720/108/353
f 720/108/353 723/223/356 724/105/357
f 724/105/357 723/223/356 725/101/358
f 723/223/356 726/222/359 725/101/358
f 726/222/359 727/97/360 725/101/358
f 727/97/360 726/222/359 728/98/361
f 728/98/361 726/222/359 729/221/362
f 730/234/56 731/235/56 732/236/56
f 733/237/56 731/235/56 730/234/56
f 734/237/56 735/234/56 736/235/56
f 736/235/56 735/234/56 737/236/56
f 738/238/362 739/239/363 740/240/364
f 740/240/364 739/239/363 741/241/365
f 741/241/365 739/239/363 742/242/366
f 743/243/367 741/241/365 742/242/366
f 744/244/368 741/241/365 743/243/367
f 745/245/369 744/244/368 743/243/367
f 742/242/366 746/246/370 743/243/367
f 747/239/371 748/238/332 749/240/372
f 749/240/372 750/241/373 747/239/371
f 747/239/371 750/241/373 751/242/374
f 750/241/373 752/243/375 751/242/374
f 753/246/376 751/242/374 752/243/375
f 754/244/377 752/243/375 750/241/373
f 754/244/377 755/245/378 752/243/375
f 756/247/55 757/236/55 758/235/55
f 759/248/55 757/236/55 756/247/55
f 756/247/55 760/249/55 759/248/55
f 759/248/55 760/249/55 761/250/55
f 760/249/55 762/251/55 761/250/55
f 761/250/55 762/251/55 763/252/55
f 764/253/379 765/254/380 766/255/381
f 766/255/381 765/254/380 767/256/382
f 765/254/380 768/257/383 767/256/382
f 767/256/382 768/257/383 769/258/384
f 770/259/385 771/260/386 772/261/387
f 772/261/387 771/260/386 773/262/388
f 773/262/388 771/260/386 774/263/389
f 771/260/386 775/264/390 774/263/389
f 774/263/389 775/264/390 776/265/391
f 777/266/392 778/265/393 779/267/393
f 780/263/394 778/265/393 777/266/392
f 777/266/392 781/262/395 780/263/394
f 782/268/396 783/269/397 784/270/398
f 784/270/398 783/269/397 785/271/399
f 786/272/400 785/271/399 783/269/397
f 786/272/400 787/273/401 785/271/399
f 788/68/61 789/274/61 790/275/61
f 791/69/61 789/274/61 788/68/61
f 791/69/61 788/68/61 792/62/61
f 793/276/402 794/277/403 795/272/404
f 795/272/404 794/277/403 796/273/405
f 796/273/405 794/277/403 797/278/406
f 798/279/407 799/280/408 800/216/409
f 800/216/409 799/280/408 801/213/410
f 799/280/408 802/281/411 801/213/410
f 801/213/410 802/281/411 803/211/412
f 804/282/413 805/283/414 806/284/415
f 807/285/416 805/283/414 804/282/413
f 804/282/413 808/286/417 807/285/416
f 807/285/416 808/286/417 809/287/418
f 810/286/419 811/285/420 812/287/421
f 813/282/422 811/285/420 810/286/419
f 811/285/420 813/282/422 814/283/423
f 814/283/423 813/282/422 815/284/424
f 816/283/425 817/288/426 818/284/427
f 818/284/427 817/288/426 819/289/428
f 817/288/426 820/290/429 819/289/428
f 821/291/176 822/292/176 823/293/176
f 824/294/176 822/292/176 821/291/176
f 825/295/176 824/294/176 821/291/176
f 825/295/176 826/296/176 824/294/176
f 824/294/176 826/296/176 827/297/176
f 826/296/176 825/295/176 828/298/176
f 825/295/176 829/299/176 828/298/176
f 828/298/176 829/299/176 830/300/176
f 825/295/176 831/301/176 829/299/176
f 832/302/176 829/299/176 831/301/176
f 833/303/176 829/299/176 832/302/176
f 832/302/176 834/304/430 833/303/176
f 833/303/176 834/304/430 835/305/431
f 834/304/430 836/306/432 835/305/431
f 835/305/431 836/306/432 837/307/432
f 838/308/176 831/301/176 825/295/176
f 839/307/432 840/306/432 841/305/431
f 841/305/431 840/306/432 842/304/430
f 841/305/431 842/304/430 843/303/176
f 843/303/176 842/304/430 844/302/176
f 843/303/176 844/302/176 845/299/176
f 845/299/176 844/302/176 846/301/176
f 845/299/176 846/301/176 847/295/176
f 848/298/176 845/299/176 847/295/176
f 849/300/176 845/299/176 848/298/176
f 847/295/176 846/301/176 850/308/176
f 847/295/176 851/296/176 848/298/176
f 852/294/176 851/296/176 847/295/176
f 853/297/176 851/296/176 852/294/176
f 852/294/176 847/295/176 854/291/176
f 852/294/176 854/291/176 855/292/176
f 855/292/176 854/291/176 856/293/176
f 857/236/54 858/247/54 859/235/54
f 860/248/54 858/247/54 857/236/54
f 858/247/54 860/248/54 861/249/54
f 861/249/54 860/248/54 862/250/54
f 861/249/54 862/250/54 863/251/54
f 863/251/54 862/250/54 864/252/54
f 865/255/433 866/254/434 867/253/435
f 868/256/436 866/254/434 865/255/433
f 868/256/436 869/257/437 866/254/434
f 870/258/438 869/257/437 868/256/436
f 871/277/439 872/273/440 873/278/441
f 871/277/439 874/272/442 872/273/440
f 875/276/443 874/272/442 871/277/439
f 876/268/444 877/270/445 878/269/446
f 878/269/446 877/270/445 879/271/447
f 879/271/447 880/272/448 878/269/446
f 881/273/449 880/272/448 879/271/447
f 882/290/450 883/288/451 884/289/452
f 883/288/451 885/284/453 884/289/452
f 886/283/454 885/284/453 883/288/451
f 887/309/455 888/155/456 889/157/457
f 887/309/455 889/157/457 890/310/458
f 890/310/458 889/157/457 891/158/459
f 892/157/460 893/310/461 894/158/462
f 895/309/463 893/310/461 892/157/460
f 896/155/464 895/309/463 892/157/460
f 897/216/465 898/280/466 899/279/407
f 900/213/467 898/280/466 897/216/465
f 900/213/467 901/281/468 898/280/466
f 902/211/469 901/281/468 900/213/467
f 903/262/470 904/266/471 905/263/472
f 904/266/471 906/265/473 905/263/472
f 907/267/473 906/265/473 904/266/471
f 908/259/474 909/261/475 910/260/476
f 910/260/476 909/261/475 911/262/477
f 910/260/476 911/262/477 912/263/478
f 912/263/478 913/264/479 910/260/476
f 914/265/480 913/264/479 912/263/478
f 915/311/481 916/70/482 917/312/483
f 917/312/483 916/70/482 918/72/484
f 919/70/485 920/312/486 921/72/484
f 922/311/487 920/312/486 919/70/485
f 923/260/488 924/264/489 925/268/490
f 925/268/490 924/264/489 926/269/491
f 927/269/492 928/264/493 929/272/494
f 929/272/494 928/264/493 930/265/495
f 931/69/61 932/68/61 933/274/61
f 933/274/61 932/68/61 934/275/61
f 935/62/496 936/69/497 937/64/498
f 937/64/498 936/69/497 938/313/499
f 939/314/62 940/55/62 941/315/62
f 941/315/62 940/55/62 942/53/62
f 943/316/500 944/317/500 945/318/501
f 945/318/501 944/317/500 946/319/501
f 947/59/502 948/311/503 949/61/504
f 949/61/504 948/311/503 950/70/505
f 951/278/506 952/320/507 953/273/508
f 951/278/506 954/321/509 952/320/507
f 955/322/510 956/323/510 957/324/510
f 957/324/510 956/323/510 958/325/510
f 959/326/56 960/327/56 961/328/56
f 961/328/56 960/327/56 962/329/56
f 963/58/63 964/56/63 965/330/63
f 965/330/63 964/56/63 966/331/63
f 967/332/62 968/333/62 969/314/62
f 969/314/62 968/333/62 970/55/62
f 971/322/54 972/328/54 973/323/54
f 973/323/54 972/328/54 974/329/54
f 975/334/63 976/331/63 977/335/63
f 977/335/63 976/331/63 978/56/63
f 979/336/176 980/337/176 981/338/176
f 981/338/176 980/337/176 982/339/176
f 983/340/511 984/341/511 985/336/511
f 985/336/511 984/341/511 986/337/511
f 987/342/512 988/343/512 989/340/512
f 989/340/512 988/343/512 990/341/512
f 991/344/176 992/345/176 993/346/176
f 993/346/176 992/345/176 994/347/176
f 995/348/511 996/349/511 997/344/511
f 997/344/511 996/349/511 998/345/511
f 999/350/512 1000/351/512 1001/348/512
f 1001/348/512 1000/351/512 1002/349/512
f 1003/352/172 1004/353/172 1005/354/172
f 1005/354/172 1004/353/172 1006/355/172
f 1007/356/512 1008/357/512 1009/352/512
f 1009/352/512 1008/357/512 1010/353/512
f 1011/358/513 1012/359/513 1013/360/513
f 1013/360/513 1012/359/513 1014/361/513
f 1015/362/176 1016/363/176 1017/358/176
f 1017/358/176 1016/363/176 1018/359/176
f 1019/364/514 1020/365/514 1021/362/514
f 1021/362/514 1020/365/514 1022/363/514
f 1023/354/511 1024/355/511 1025/364/511
f 1025/364/511 1024/355/511 1026/365/511
f 1027/52/56 1028/50/56 1029/366/56
f 1029/366/56 1028/50/56 1030/367/56
f 1031/368/515 1032/369/515 1033/370/515
f 1033/370/515 1032/369/515 1034/371/515
f 1035/372/61 1036/66/61 1037/373/61
f 1037/373/61 1036/66/61 1038/67/61
f 1039/374/61 1040/375/61 1041/376/61
f 1041/376/61 1040/375/61 1042/377/61
f 1043/53/57 1044/55/57 1045/315/57
f 1045/315/57 1044/55/57 1046/314/57
f 1047/322/516 1048/324/516 1049/323/516
f 1049/323/516 1048/324/516 1050/325/516
f 1051/58/58 1052/330/58 1053/56/58
f 1053/56/58 1052/330/58 1054/331/58
f 1055/327/55 1056/374/55 1057/326/55
f 1057/326/55 1056/374/55 1058/376/55
f 1059/368/517 1060/378/517 1061/370/517
f 1061/370/517 1060/378/517 1062/379/517
f 1063/380/518 1064/381/518 1065/382/518
f 1065/382/518 1064/381/518 1066/383/518
f 1067/369/519 1068/371/519 1069/382/519
f 1069/382/519 1068/371/519 1070/380/519
f 1071/260/520 1072/268/521 1073/264/522
f 1073/264/522 1072/268/521 1074/269/523
f 1075/265/524 1076/264/525 1077/272/526
f 1077/272/526 1076/264/525 1078/269/527
f 1079/313/528 1080/69/529 1081/64/530
f 1081/64/530 1080/69/529 1082/62/531
f 1083/327/54 1084/326/54 1085/374/54
f 1085/374/54 1084/326/54 1086/376/54
f 1087/321/532 1088/278/533 1089/320/534
f 1089/320/534 1088/278/533 1090/273/535
f 1091/319/536 1092/317/537 1093/318/536
f 1093/318/536 1092/317/537 1094/316/500
f 1095/59/538 1096/61/539 1097/311/540
f 1097/311/540 1096/61/539 1098/70/541
f 1099/326/56 1100/328/56 1101/327/56
f 1101/327/56 1100/328/56 1102/329/56
f 1103/374/61 1104/376/61 1105/375/61
f 1105/375/61 1104/376/61 1106/377/61
f 1107/368/542 1108/370/542 1109/378/542
f 1109/378/542 1108/370/542 1110/379/542
f 1111/55/57 1112/333/57 1113/314/57
f 1113/314/57 1112/333/57 1114/332/57
f 1115/322/55 1116/323/55 1117/328/55
f 1117/328/55 1116/323/55 1118/329/55
f 1119/334/58 1120/335/58 1121/331/58
f 1121/331/58 1120/335/58 1122/56/58
f 1123/336/176 1124/338/176 1125/337/176
f 1125/337/176 1124/338/176 1126/339/176
f 1127/340/512 1128/336/512 1129/341/512
f 1129/341/512 1128/336/512 1130/337/512
f 1131/342/511 1132/340/511 1133/343/511
f 1133/343/511 1132/340/511 1134/341/511
f 1135/344/176 1136/346/176 1137/345/176
f 1137/345/176 1136/346/176 1138/347/176
f 1139/348/512 1140/344/512 1141/349/512
f 1141/349/512 1140/344/512 1142/345/512
f 1143/350/511 1144/348/511 1145/351/511
f 1145/351/511 1144/348/511 1146/349/511
f 1147/352/172 1148/354/172 1149/353/172
f 1149/353/172 1148/354/172 1150/355/172
f 1151/356/511 1152/352/511 1153/357/511
f 1153/357/511 1152/352/511 1154/353/511
f 1155/358/514 1156/360/514 1157/359/514
f 1157/359/514 1156/360/514 1158/361/514
f 1159/362/176 1160/358/176 1161/363/176
f 1161/363/176 1160/358/176 1162/359/176
f 1163/364/513 1164/362/513 1165/365/513
f 1165/365/513 1164/362/513 1166/363/513
f 1167/354/512 1168/364/512 1169/355/512
f 1169/355/512 1168/364/512 1170/365/512
f 1171/380/543 1172/382/543 1173/381/543
f 1173/381/543 1172/382/543 1174/383/543
f 1175/368/544 1176/370/544 1177/369/544
f 1177/369/544 1176/370/544 1178/371/544
f 1179/369/545 1180/382/545 1181/371/545
f 1181/371/545 1180/382/545 1182/380/545
f 1183/372/61 1184/373/61 1185/66/61
f 1185/66/61 1184/373/61 1186/67/61
f 1187/367/56 1188/50/56 1189/366/56
f 1189/366/56 1188/50/56 1190/52/56
f 1191/384/546 1192/385/547 1193/386/548
f 1194/387/549 1192/385/547 1191/384/546
f 1194/387/549 1195/388/550 1192/385/547
f 1196/389/551 1195/388/550 1194/387/549
f 1196/389/551 1197/390/552 1195/388/550
f 1198/391/553 1197/390/552 1196/389/551
f 1198/391/553 1199/392/554 1197/390/552
f 1191/384/546 1193/386/548 1200/393/555
f 1201/394/61 1191/384/546 1200/393/555
f 1201/394/61 1194/387/549 1191/384/546
f 1201/394/61 1196/389/551 1194/387/549
f 1201/394/61 1198/391/553 1196/389/551
f 1201/394/61 1202/395/556 1198/391/553
f 1202/395/556 1199/392/554 1198/391/553
f 1202/395/556 1203/396/557 1199/392/554
f 1204/397/558 1203/396/557 1202/395/556
f 1204/397/558 1205/398/559 1203/396/557
f 1200/393/555 1193/386/548 1206/399/560
f 1200/393/555 1206/399/560 1207/400/561
f 1201/394/61 1200/393/555 1207/400/561
f 1201/394/61 1207/400/561 1204/397/558
f 1201/394/61 1204/397/558 1202/395/556
f 1207/400/561 1206/399/560 1205/398/559
f 1207/400/561 1205/398/559 1204/397/558
f 1208/392/559 1209/391/555 1210/390/560
f 1211/395/561 1209/391/555 1208/392/559
f 1211/395/561 1212/394/61 1209/391/555
f 1209/391/555 1212/394/61 1213/389/546
f 1209/391/555 1213/389/546 1210/390/560
f 1210/390/560 1213/389/546 1214/388/548
f 1213/389/546 1215/387/549 1214/388/548
f 1214/388/548 1215/387/549 1216/385/562
f 1217/396/563 1211/395/561 1208/392/559
f 1218/397/558 1211/395/561 1217/396/563
f 1218/397/558 1212/394/61 1211/395/561
f 1219/400/556 1212/394/61 1218/397/558
f 1220/393/553 1212/394/61 1219/400/556
f 1221/384/551 1212/394/61 1220/393/553
f 1215/387/549 1212/394/61 1221/384/551
f 1213/389/546 1212/394/61 1215/387/549
f 1222/398/554 1218/397/558 1217/396/563
f 1219/400/556 1218/397/558 1222/398/554
f 1223/399/552 1219/400/556 1222/398/554
f 1220/393/553 1219/400/556 1223/399/552
f 1224/386/550 1220/393/553 1223/399/552
f 1221/384/551 1220/393/553 1224/386/550
f 1216/385/562 1221/384/551 1224/386/550
f 1215/387/549 1221/384/551 1216/385/562
f 1225/401/564 1226/402/565 1227/403/566
f 1228/404/567 1226/402/565 1225/401/564
f 1229/405/568 1226/402/565 1228/404/567
f 1230/406/569 1226/402/565 1229/405/568
f 1231/407/570 1226/402/565 1230/406/569
f 1232/408/571 1226/402/565 1231/407/570
f 1233/409/572 1226/402/565 1232/408/571
f 1234/410/573 1226/402/565 1233/409/572
f 1227/403/566 1226/402/565 1234/410/573
f 1235/402/574 1236/401/575 1237/403/576
f 1235/402/574 1238/404/577 1236/401/575
f 1235/402/574 1239/405/578 1238/404/577
f 1235/402/574 1240/406/579 1239/405/578
f 1235/402/574 1241/407/580 1240/406/579
f 1235/402/574 1242/408/581 1241/407/580
f 1235/402/574 1243/409/582 1242/408/581
f 1235/402/574 1237/403/576 1244/410/583
f 1235/402/574 1244/410/583 1243/409/582
f 1245/76/584 1246/146/584 1247/74/186
f 1245/76/584 1248/148/585 1246/146/584
f 1249/79/585 1248/148/585 1245/76/584
f 1249/79/585 1250/146/185 1248/148/585
f 1251/76/292 1250/146/185 1249/79/585
f 1251/76/292 1252/144/186 1250/146/185
f 1247/74/186 1252/144/186 1251/76/292
f 1247/74/186 1246/146/584 1252/144/186
f 1253/74/186 1254/76/187 1255/144/186
f 1255/144/186 1254/76/187 1256/146/187
f 1254/76/187 1257/79/585 1256/146/187
f 1256/146/187 1257/79/585 1258/148/585
f 1257/79/585 1259/76/185 1258/148/585
f 1258/148/585 1259/76/185 1260/146/292
f 1259/76/185 1253/74/186 1260/146/292
f 1260/146/292 1253/74/186 1255/144/186
f 1261/411/586 1262/412/55 1263/413/587
f 1264/414/588 1262/412/55 1261/411/586
f 1265/415/589 1262/412/55 1264/414/588
f 1266/416/590 1262/412/55 1265/415/589
f 1267/417/591 1262/412/55 1266/416/590
f 1263/413/587 1262/412/55 1267/417/591
f 1268/412/54 1269/417/592 1270/416/593
f 1268/412/54 1271/413/594 1269/417/592
f 1268/412/54 1272/411/595 1271/413/594
f 1268/412/54 1273/414/596 1272/411/595
f 1268/412/54 1274/415/597 1273/414/596
f 1268/412/54 1270/416/593 1274/415/597
