# Blender 4.2.3 LTS
# www.blender.org
o 60in_square_cross
v -21.580511 0.002197 21.524683
v 21.580511 0.002197 -21.524683
v -21.580511 0.202197 21.524683
v 21.580511 0.202197 -21.524683
v 21.580511 0.002197 21.524683
v -21.580511 0.002197 -21.524683
v 21.580511 0.202197 21.524683
v -21.580511 0.202197 -21.524683
vn 0.7062 -0.0000 0.7080
vn -0.7062 -0.0000 0.7080
vt 0.000000 0.000000
vt 1.000000 0.000000
vt 1.000000 1.000000
vt 0.000000 1.000000
s 0
f 1/1/1 2/2/1 4/3/1 3/4/1
f 5/1/2 7/4/2 8/3/2 6/2/2
