# Blender 4.2.3 LTS
# www.blender.org
o cir_40
v -0.444455 0.000000 0.665175
v -0.565685 0.000000 0.565687
v 0.000000 0.000000 0.000000
v -0.306145 0.000000 0.739104
v -0.668392 0.119773 0.276857
v -0.601536 0.119773 0.401935
v -0.597484 0.127400 0.399228
v -0.663889 0.127400 0.274993
v 0.401935 0.119773 -0.601536
v 0.276857 0.119773 -0.668392
v 0.274993 0.127400 -0.663889
v 0.399226 0.127400 -0.597484
v 0.000000 0.119773 0.723463
v 0.141141 0.119773 0.709561
v 0.140189 0.127400 0.704780
v 0.000000 0.127400 0.718589
v -0.511564 0.119773 0.511566
v -0.508117 0.127400 0.508119
v 0.141140 0.119773 -0.709561
v 0.140189 0.127400 -0.704780
v 0.276857 0.119773 0.668392
v 0.274993 0.127400 0.663889
v -0.401933 0.119773 0.601538
v -0.399226 0.127400 0.597486
v 0.000000 0.119773 -0.723463
v 0.000000 0.127400 -0.718589
v 0.401935 0.119773 0.601536
v 0.399226 0.127400 0.597484
v -0.276855 0.119773 0.668392
v -0.274991 0.127400 0.663889
v -0.141141 0.119773 -0.709561
v -0.140189 0.127400 -0.704780
v 0.511566 0.119773 0.511566
v 0.508119 0.127400 0.508119
v -0.141140 0.119773 0.709561
v -0.140189 0.127400 0.704782
v -0.276857 0.119773 -0.668392
v -0.274993 0.127400 -0.663889
v 0.601536 0.119773 0.401935
v 0.597484 0.127400 0.399226
v -0.401935 0.119773 -0.601536
v -0.399226 0.127400 -0.597484
v 0.668392 0.119773 0.276857
v 0.663889 0.127400 0.274993
v -0.511566 0.119773 -0.511564
v -0.508119 0.127400 -0.508119
v 0.709561 0.119773 0.141141
v 0.704780 0.127400 0.140189
v -0.601538 0.119773 -0.401933
v -0.597484 0.127400 -0.399226
v 0.723463 0.119773 -0.000000
v 0.718589 0.127400 -0.000000
v -0.668392 0.119773 -0.276857
v -0.663889 0.127400 -0.274991
v 0.709561 0.119773 -0.141140
v 0.704780 0.127400 -0.140189
v -0.709561 0.119773 -0.141140
v -0.704782 0.127400 -0.140189
v 0.668392 0.119773 -0.276857
v 0.663889 0.127400 -0.274991
v -0.723463 0.119773 -0.000000
v -0.718589 0.127400 -0.000000
v 0.601536 0.119773 -0.401935
v 0.597484 0.127400 -0.399226
v -0.709561 0.119773 0.141141
v -0.704780 0.127400 0.140191
v 0.511566 0.119773 -0.511566
v 0.508119 0.127400 -0.508119
v 0.444455 -0.000000 -0.665175
v 0.565685 -0.000000 -0.565685
v 0.306147 -0.000000 -0.739104
v 0.000000 0.127400 -0.000000
v -0.665175 0.000000 0.444457
v -0.739104 0.000000 0.306147
v -0.784629 0.000000 0.156073
v -0.800000 0.000000 0.000000
v 0.665175 -0.000000 -0.444455
v 0.739104 -0.000000 -0.306147
v -0.784629 -0.000000 -0.156072
v -0.739104 -0.000000 -0.306147
v 0.784629 -0.000000 -0.156072
v 0.800000 0.000000 0.000000
v -0.665175 -0.000000 -0.444455
v -0.565687 -0.000000 -0.565685
v 0.784629 0.000000 0.156072
v 0.739104 0.000000 0.306147
v 0.156072 0.000000 0.784629
v 0.000000 0.000000 0.800000
v 0.306147 0.000000 0.739104
v -0.444457 -0.000000 -0.665175
v -0.306147 -0.000000 -0.739104
v 0.665175 0.000000 0.444455
v 0.565685 0.000000 0.565685
v -0.156072 0.000000 0.784629
v 0.444455 0.000000 0.665175
v 0.156072 -0.000000 -0.784629
v 0.000000 -0.000000 -0.800000
v -0.156072 -0.000000 -0.784629
v 0.561123 0.010098 -0.561123
v 0.440872 0.010098 -0.659811
v -0.778299 0.010098 0.154815
v -0.733141 0.010098 0.303678
v 0.659811 0.010098 -0.440872
v -0.793548 0.010098 -0.000000
v 0.733143 0.010098 -0.303677
v -0.778300 0.010098 -0.154813
v 0.778300 0.010098 -0.154813
v -0.733143 0.010098 -0.303677
v 0.793548 0.010098 -0.000000
v -0.659811 0.010098 -0.440870
v 0.778299 0.010098 0.154813
v -0.561123 0.010098 -0.561122
v 0.733143 0.010098 0.303677
v -0.440872 0.010098 -0.659811
v 0.659811 0.010098 0.440872
v -0.303678 0.010098 -0.733141
v -0.154811 0.010098 0.778300
v 0.000000 0.010098 0.793548
v 0.561123 0.010098 0.561123
v -0.154813 0.010098 -0.778299
v -0.303677 0.010098 0.733143
v 0.440872 0.010098 0.659811
v 0.000000 0.010098 -0.793548
v -0.440870 0.010098 0.659811
v 0.303677 0.010098 0.733143
v 0.154813 0.010098 -0.778300
v -0.561122 0.010098 0.561123
v 0.154813 0.010098 0.778299
v 0.303677 0.010098 -0.733143
v -0.659811 0.010098 0.440872
vn -0.3832 -0.7241 0.5734
vn -0.4877 -0.7241 0.4877
vn -0.0000 -1.0000 -0.0000
vn -0.2639 -0.7241 0.6371
vn -0.7785 0.5385 0.3225
vn -0.7006 0.5385 0.4682
vn -0.3373 0.9140 0.2254
vn -0.3748 0.9140 0.1553
vn 0.4681 0.5385 -0.7006
vn 0.3225 0.5385 -0.7785
vn 0.1553 0.9140 -0.3748
vn 0.2254 0.9140 -0.3373
vn -0.0000 0.5385 0.8427
vn 0.1644 0.5385 0.8265
vn 0.0791 0.9140 0.3979
vn -0.0000 0.9140 0.4057
vn -0.5958 0.5385 0.5958
vn -0.2869 0.9140 0.2869
vn 0.1644 0.5385 -0.8265
vn 0.0791 0.9140 -0.3979
vn 0.3225 0.5385 0.7785
vn 0.1553 0.9140 0.3748
vn -0.4682 0.5385 0.7006
vn -0.2254 0.9140 0.3373
vn -0.0000 0.5385 -0.8426
vn -0.0000 0.9140 -0.4057
vn 0.4681 0.5385 0.7006
vn 0.2254 0.9140 0.3373
vn -0.3225 0.5384 0.7785
vn -0.1553 0.9140 0.3748
vn -0.1644 0.5385 -0.8265
vn -0.0791 0.9140 -0.3979
vn 0.5958 0.5385 0.5958
vn 0.2869 0.9140 0.2869
vn -0.1644 0.5384 0.8265
vn -0.0792 0.9140 0.3979
vn -0.3225 0.5385 -0.7785
vn -0.1553 0.9140 -0.3748
vn 0.7006 0.5385 0.4681
vn 0.3373 0.9140 0.2254
vn -0.4682 0.5385 -0.7006
vn -0.2254 0.9140 -0.3373
vn 0.7785 0.5385 0.3225
vn 0.3748 0.9140 0.1553
vn -0.5958 0.5385 -0.5958
vn -0.2869 0.9140 -0.2869
vn 0.8265 0.5385 0.1644
vn 0.3979 0.9140 0.0791
vn -0.7006 0.5385 -0.4681
vn -0.3373 0.9140 -0.2254
vn 0.8426 0.5385 -0.0000
vn 0.4057 0.9140 -0.0000
vn -0.7785 0.5385 -0.3225
vn -0.3748 0.9140 -0.1552
vn 0.8265 0.5385 -0.1644
vn 0.3979 0.9140 -0.0791
vn -0.8265 0.5384 -0.1644
vn -0.3979 0.9140 -0.0792
vn 0.7785 0.5385 -0.3225
vn 0.3748 0.9140 -0.1552
vn -0.8427 0.5385 -0.0000
vn -0.4057 0.9140 -0.0000
vn 0.7006 0.5385 -0.4681
vn 0.3373 0.9140 -0.2254
vn -0.8265 0.5385 0.1644
vn -0.3979 0.9140 0.0792
vn 0.5958 0.5385 -0.5958
vn 0.2869 0.9140 -0.2869
vn 0.3831 -0.7241 -0.5734
vn 0.4876 -0.7242 -0.4876
vn 0.2639 -0.7241 -0.6371
vn -0.0000 1.0000 -0.0000
vn -0.5734 -0.7241 0.3832
vn -0.6372 -0.7241 0.2639
vn -0.6764 -0.7241 0.1345
vn -0.6897 -0.7241 -0.0000
vn 0.5734 -0.7241 -0.3831
vn 0.6371 -0.7241 -0.2639
vn -0.6764 -0.7241 -0.1345
vn -0.6372 -0.7241 -0.2639
vn 0.6764 -0.7241 -0.1345
vn 0.6897 -0.7241 -0.0000
vn -0.5734 -0.7241 -0.3832
vn -0.4877 -0.7241 -0.4877
vn 0.6764 -0.7241 0.1345
vn 0.6372 -0.7241 0.2639
vn 0.1345 -0.7241 0.6764
vn -0.0000 -0.7241 0.6897
vn 0.2639 -0.7241 0.6372
vn -0.3832 -0.7241 -0.5734
vn -0.2639 -0.7241 -0.6372
vn 0.5734 -0.7241 0.3831
vn 0.4876 -0.7242 0.4876
vn -0.1345 -0.7241 0.6764
vn 0.3831 -0.7241 0.5734
vn 0.1345 -0.7241 -0.6764
vn -0.0000 -0.7241 -0.6897
vn -0.1345 -0.7241 -0.6764
vn 0.5959 0.5384 -0.5959
vn 0.4682 0.5384 -0.7006
vn -0.8264 0.5385 0.1644
vn 0.7007 0.5384 -0.4682
vn -0.8265 0.5385 -0.1644
vn 0.8427 0.5385 -0.0000
vn -0.4681 0.5385 -0.7006
vn 0.7007 0.5384 0.4682
vn -0.1644 0.5385 0.8265
vn -0.0000 0.5385 0.8426
vn 0.5959 0.5384 0.5959
vn -0.1644 0.5385 -0.8264
vn -0.3225 0.5385 0.7785
vn 0.4682 0.5384 0.7006
vn -0.4681 0.5385 0.7006
vn -0.7006 0.5385 0.4681
vt 0.983662 0.208361
vt 0.983664 0.208361
vt 0.983664 0.208360
vt 0.983662 0.208361
vt 0.983662 0.208355
vt 0.983661 0.208356
vt 0.983667 0.208356
vt 0.983661 0.208357
vt 0.983662 0.208357
vt 0.983662 0.208357
vt 0.983666 0.208355
vt 0.983664 0.208357
vt 0.983665 0.208355
vt 0.983665 0.208357
vt 0.983664 0.208355
vt 0.983666 0.208357
vt 0.983662 0.208355
vt 0.983667 0.208357
vt 0.983665 0.208359
vt 0.983664 0.208359
vt 0.983666 0.208359
vt 0.753261 0.149232
vt 0.750849 0.125026
vt 0.874939 0.124886
vt 0.760349 0.172502
vt 0.978193 0.193709
vt 0.962782 0.212531
vt 0.989636 0.172243
vt 0.943996 0.227984
vt 0.922555 0.239476
vt 0.771684 0.056062
vt 0.787095 0.037240
vt 0.760241 0.077528
vt 0.899285 0.246563
vt 0.875079 0.248975
vt 0.805882 0.021787
vt 0.827322 0.010296
vt 0.943762 0.021631
vt 0.962584 0.037042
vt 0.922296 0.010188
vt 0.850868 0.246618
vt 0.827581 0.239583
vt 0.850592 0.003208
vt 0.874798 0.000796
vt 0.978037 0.055829
vt 0.989529 0.077269
vt 0.806115 0.228140
vt 0.787293 0.212730
vt 0.899010 0.003153
vt 0.996616 0.100540
vt 0.999028 0.124745
vt 0.771840 0.193943
vt 0.983665 0.208361
vt 0.983666 0.208361
vt 0.983662 0.208359
vt 0.983667 0.208361
vt 0.983662 0.208359
vt 0.983667 0.208360
vt 0.983661 0.208359
vt 0.983661 0.208361
vt 0.983661 0.208360
vt 0.983667 0.208359
vt 0.753206 0.100814
vt 0.996671 0.148957
vt 0.983661 0.208355
vt 0.983667 0.208355
s 1
f 1/1/1 2/2/2 3/3/3 4/4/4
f 5/5/5 6/6/6 7/6/7 8/5/8
f 9/7/9 10/7/10 11/7/11 12/7/12
f 13/8/13 14/9/14 15/9/15 16/8/16
f 6/6/6 17/6/17 18/6/18 7/6/7
f 10/7/10 19/7/19 20/7/20 11/7/11
f 14/9/14 21/9/21 22/9/22 15/9/15
f 17/6/17 23/6/23 24/6/24 18/6/18
f 19/7/19 25/7/25 26/7/26 20/7/20
f 21/9/21 27/10/27 28/10/28 22/9/22
f 23/6/23 29/6/29 30/6/30 24/6/24
f 25/7/25 31/11/31 32/11/32 26/7/26
f 27/10/27 33/10/33 34/10/34 28/10/28
f 29/6/29 35/6/35 36/6/36 30/6/30
f 31/11/31 37/11/37 38/11/38 32/11/32
f 33/10/33 39/12/39 40/12/40 34/10/34
f 35/6/35 13/8/13 16/8/16 36/6/36
f 37/11/37 41/13/41 42/13/42 38/11/38
f 39/12/39 43/12/43 44/12/44 40/12/40
f 41/13/41 45/13/45 46/13/46 42/13/42
f 43/12/43 47/14/47 48/14/48 44/12/44
f 45/13/45 49/15/49 50/15/50 46/13/46
f 47/14/47 51/14/51 52/14/52 48/14/48
f 49/15/49 53/15/53 54/15/54 50/15/50
f 51/14/51 55/16/55 56/16/56 52/14/52
f 53/15/53 57/17/57 58/17/58 54/15/54
f 55/16/55 59/16/59 60/16/60 56/16/56
f 57/17/57 61/17/61 62/17/62 58/17/58
f 59/16/59 63/18/63 64/18/64 60/16/60
f 61/17/61 65/5/65 66/5/66 62/17/62
f 63/18/63 67/7/67 68/7/68 64/18/64
f 65/5/65 5/5/5 8/5/8 66/5/66
f 67/7/67 9/7/9 12/7/12 68/7/68
f 69/19/69 70/20/70 3/3/3 71/21/71
f 58/22/58 62/23/62 72/24/72 54/25/54
f 64/26/64 68/27/68 72/24/72 60/28/60
f 12/29/12 11/30/11 72/24/72 68/27/68
f 7/31/7 18/32/18 72/24/72 8/33/8
f 20/34/20 26/35/26 72/24/72 11/30/11
f 24/36/24 30/37/30 72/24/72 18/32/18
f 28/38/28 34/39/34 72/24/72 22/40/22
f 32/41/32 38/42/38 72/24/72 26/35/26
f 36/43/36 16/44/16 72/24/72 30/37/30
f 40/45/40 44/46/44 72/24/72 34/39/34
f 42/47/42 46/48/46 72/24/72 38/42/38
f 15/49/15 22/40/22 72/24/72 16/44/16
f 44/46/44 48/50/48 52/51/52 72/24/72
f 46/48/46 50/52/50 54/25/54 72/24/72
f 2/2/2 73/2/73 74/53/74 3/3/3
f 74/53/74 75/54/75 76/54/76 3/3/3
f 77/20/77 78/55/78 3/3/3 70/20/70
f 79/56/79 80/56/80 3/3/3 76/54/76
f 81/57/81 82/57/82 3/3/3 78/55/78
f 83/58/83 84/58/84 3/3/3 80/56/80
f 85/59/85 86/59/86 3/3/3 82/57/82
f 87/60/87 88/60/88 3/3/3 89/61/89
f 90/58/90 91/62/91 3/3/3 84/58/84
f 92/59/92 93/61/93 3/3/3 86/59/86
f 94/4/94 4/4/4 3/3/3 88/60/88
f 95/61/95 89/61/89 3/3/3 93/61/93
f 96/21/96 71/21/71 3/3/3 97/62/97
f 66/63/66 8/33/8 72/24/72 62/23/62
f 56/64/56 60/28/60 72/24/72 52/51/52
f 98/62/98 97/62/97 3/3/3 91/62/91
f 99/7/99 100/7/100 9/7/9 67/7/67
f 101/5/101 102/65/5 5/5/5 65/5/65
f 103/18/102 99/7/99 67/7/67 63/18/63
f 104/5/61 101/5/101 65/5/65 61/17/61
f 105/18/59 103/18/102 63/18/63 59/16/59
f 106/17/103 104/5/61 61/17/61 57/17/57
f 107/16/55 105/18/59 59/16/59 55/16/55
f 108/15/53 106/17/103 57/17/57 53/15/53
f 109/16/104 107/16/55 55/16/55 51/14/51
f 110/15/49 108/15/53 53/15/53 49/15/49
f 111/14/47 109/16/104 51/14/51 47/14/47
f 112/13/45 110/15/49 49/15/49 45/13/45
f 113/12/43 111/14/47 47/14/47 43/12/43
f 114/11/105 112/13/45 45/13/45 41/13/41
f 115/12/106 113/12/43 43/12/43 39/12/39
f 116/11/37 114/11/105 41/13/41 37/11/37
f 117/6/107 118/8/108 13/8/13 35/6/35
f 119/10/109 115/12/106 39/12/39 33/10/33
f 120/66/110 116/11/37 37/11/37 31/11/31
f 121/6/111 117/6/107 35/6/35 29/6/29
f 122/9/112 119/10/109 33/10/33 27/10/27
f 123/66/25 120/66/110 31/11/31 25/7/25
f 124/6/113 121/6/111 29/6/29 23/6/23
f 125/9/21 122/9/112 27/10/27 21/9/21
f 126/7/19 123/66/25 25/7/25 19/7/19
f 127/6/17 124/6/113 23/6/23 17/6/17
f 128/8/14 125/9/21 21/9/21 14/9/14
f 129/7/10 126/7/19 19/7/19 10/7/10
f 130/65/114 127/6/17 17/6/17 6/6/6
f 118/8/108 128/8/14 14/9/14 13/8/13
f 100/7/100 129/7/10 10/7/10 9/7/9
f 102/65/5 130/65/114 6/6/6 5/5/5
f 74/53/74 73/2/73 130/65/114 102/65/5
f 69/19/69 71/21/71 129/7/10 100/7/100
f 88/60/88 87/60/87 128/8/14 118/8/108
f 73/2/73 2/2/2 127/6/17 130/65/114
f 71/21/71 96/21/96 126/7/19 129/7/10
f 87/60/87 89/61/89 125/9/21 128/8/14
f 2/2/2 1/1/1 124/6/113 127/6/17
f 96/21/96 97/62/97 123/66/25 126/7/19
f 89/61/89 95/61/95 122/9/112 125/9/21
f 1/1/1 4/4/4 121/6/111 124/6/113
f 97/62/97 98/62/98 120/66/110 123/66/25
f 95/61/95 93/61/93 119/10/109 122/9/112
f 4/4/4 94/4/94 117/6/107 121/6/111
f 98/62/98 91/62/91 116/11/37 120/66/110
f 93/61/93 92/59/92 115/12/106 119/10/109
f 94/4/94 88/60/88 118/8/108 117/6/107
f 91/62/91 90/58/90 114/11/105 116/11/37
f 92/59/92 86/59/86 113/12/43 115/12/106
f 90/58/90 84/58/84 112/13/45 114/11/105
f 86/59/86 85/59/85 111/14/47 113/12/43
f 84/58/84 83/58/83 110/15/49 112/13/45
f 85/59/85 82/57/82 109/16/104 111/14/47
f 83/58/83 80/56/80 108/15/53 110/15/49
f 82/57/82 81/57/81 107/16/55 109/16/104
f 80/56/80 79/56/79 106/17/103 108/15/53
f 81/57/81 78/55/78 105/18/59 107/16/55
f 79/56/79 76/54/76 104/5/61 106/17/103
f 78/55/78 77/20/77 103/18/102 105/18/59
f 76/54/76 75/54/75 101/5/101 104/5/61
f 77/20/77 70/20/70 99/7/99 103/18/102
f 75/54/75 74/53/74 102/65/5 101/5/101
f 70/20/70 69/19/69 100/7/100 99/7/99
