# Blender 4.2.3 LTS
# www.blender.org
o cir_28
v -0.311119 0.000000 0.465623
v -0.395979 0.000000 0.395981
v 0.000000 0.000000 0.000000
v -0.214302 0.000000 0.517373
v -0.467874 0.119773 0.193800
v -0.421075 0.119773 0.281354
v -0.418239 0.127400 0.279459
v -0.464722 0.127400 0.192495
v 0.281354 0.119773 -0.421075
v 0.193800 0.119773 -0.467874
v 0.192495 0.127400 -0.464722
v 0.279458 0.127400 -0.418239
v 0.000000 0.119773 0.506424
v 0.098799 0.119773 0.496693
v 0.098133 0.127400 0.493346
v 0.000000 0.127400 0.503013
v -0.358095 0.119773 0.358096
v -0.355682 0.127400 0.355683
v 0.098798 0.119773 -0.496693
v 0.098133 0.127400 -0.493346
v 0.193800 0.119773 0.467874
v 0.192495 0.127400 0.464722
v -0.281353 0.119773 0.421077
v -0.279458 0.127400 0.418240
v 0.000000 0.119773 -0.506424
v 0.000000 0.127400 -0.503013
v 0.281354 0.119773 0.421075
v 0.279458 0.127400 0.418239
v -0.193799 0.119773 0.467874
v -0.192494 0.127400 0.464722
v -0.098799 0.119773 -0.496693
v -0.098133 0.127400 -0.493346
v 0.358096 0.119773 0.358096
v 0.355683 0.127400 0.355683
v -0.098798 0.119773 0.496693
v -0.098133 0.127400 0.493347
v -0.193800 0.119773 -0.467874
v -0.192495 0.127400 -0.464722
v 0.421075 0.119773 0.281354
v 0.418239 0.127400 0.279458
v -0.281354 0.119773 -0.421075
v -0.279458 0.127400 -0.418239
v 0.467874 0.119773 0.193800
v 0.464722 0.127400 0.192495
v -0.358096 0.119773 -0.358095
v -0.355683 0.127400 -0.355683
v 0.496693 0.119773 0.098799
v 0.493346 0.127400 0.098133
v -0.421077 0.119773 -0.281353
v -0.418239 0.127400 -0.279458
v 0.506424 0.119773 -0.000000
v 0.503013 0.127400 -0.000000
v -0.467874 0.119773 -0.193800
v -0.464722 0.127400 -0.192494
v 0.496693 0.119773 -0.098798
v 0.493346 0.127400 -0.098133
v -0.496693 0.119773 -0.098798
v -0.493347 0.127400 -0.098133
v 0.467874 0.119773 -0.193800
v 0.464722 0.127400 -0.192494
v -0.506424 0.119773 -0.000000
v -0.503013 0.127400 -0.000000
v 0.421075 0.119773 -0.281354
v 0.418239 0.127400 -0.279458
v -0.496693 0.119773 0.098799
v -0.493346 0.127400 0.098134
v 0.358096 0.119773 -0.358096
v 0.355683 0.127400 -0.355683
v 0.311119 -0.000000 -0.465623
v 0.395979 -0.000000 -0.395979
v 0.214303 -0.000000 -0.517373
v 0.000000 0.127400 -0.000000
v -0.465623 0.000000 0.311120
v -0.517373 0.000000 0.214303
v -0.549240 0.000000 0.109251
v -0.560000 0.000000 0.000000
v 0.465623 -0.000000 -0.311119
v 0.517373 -0.000000 -0.214303
v -0.549240 -0.000000 -0.109250
v -0.517373 -0.000000 -0.214303
v 0.549240 -0.000000 -0.109250
v 0.560000 0.000000 0.000000
v -0.465623 -0.000000 -0.311119
v -0.395981 -0.000000 -0.395979
v 0.549240 0.000000 0.109250
v 0.517373 0.000000 0.214303
v 0.109250 0.000000 0.549240
v 0.000000 0.000000 0.560000
v 0.214303 0.000000 0.517373
v -0.311120 -0.000000 -0.465623
v -0.214303 -0.000000 -0.517373
v 0.465623 0.000000 0.311119
v 0.395979 0.000000 0.395979
v -0.109250 0.000000 0.549240
v 0.311119 0.000000 0.465623
v 0.109250 -0.000000 -0.549240
v 0.000000 -0.000000 -0.560000
v -0.109250 -0.000000 -0.549240
v 0.392786 0.010098 -0.392786
v 0.308610 0.010098 -0.461867
v -0.544809 0.010098 0.108370
v -0.513199 0.010098 0.212575
v 0.461867 0.010098 -0.308610
v -0.555483 0.010098 -0.000000
v 0.513200 0.010098 -0.212574
v -0.544810 0.010098 -0.108369
v 0.544810 0.010098 -0.108369
v -0.513200 0.010098 -0.212574
v 0.555483 0.010098 -0.000000
v -0.461867 0.010098 -0.308609
v 0.544809 0.010098 0.108369
v -0.392786 0.010098 -0.392785
v 0.513200 0.010098 0.212574
v -0.308610 0.010098 -0.461867
v 0.461867 0.010098 0.308610
v -0.212575 0.010098 -0.513199
v -0.108368 0.010098 0.544810
v 0.000000 0.010098 0.555483
v 0.392786 0.010098 0.392786
v -0.108369 0.010098 -0.544809
v -0.212574 0.010098 0.513200
v 0.308610 0.010098 0.461867
v 0.000000 0.010098 -0.555483
v -0.308609 0.010098 0.461867
v 0.212574 0.010098 0.513200
v 0.108369 0.010098 -0.544810
v -0.392785 0.010098 0.392786
v 0.108369 0.010098 0.544809
v 0.212574 0.010098 -0.513200
v -0.461867 0.010098 0.308610
vn -0.4477 -0.5922 0.6700
vn -0.5698 -0.5922 0.5698
vn -0.0000 -1.0000 -0.0000
vn -0.3083 -0.5922 0.7444
vn -0.8434 0.4083 0.3493
vn -0.7590 0.4083 0.5071
vn -0.4453 0.8445 0.2975
vn -0.4947 0.8445 0.2049
vn 0.5071 0.4083 -0.7590
vn 0.3493 0.4083 -0.8434
vn 0.2049 0.8445 -0.4947
vn 0.2975 0.8445 -0.4453
vn -0.0000 0.4083 0.9128
vn 0.1781 0.4083 0.8953
vn 0.1045 0.8445 0.5252
vn -0.0000 0.8445 0.5355
vn -0.6455 0.4083 0.6455
vn -0.3787 0.8445 0.3787
vn 0.1781 0.4083 -0.8953
vn 0.1045 0.8445 -0.5252
vn 0.3493 0.4083 0.8433
vn 0.2049 0.8445 0.4947
vn -0.5071 0.4083 0.7590
vn -0.2975 0.8445 0.4453
vn -0.0000 0.4083 -0.9128
vn -0.0000 0.8445 -0.5355
vn 0.5071 0.4083 0.7590
vn 0.2975 0.8445 0.4453
vn -0.3493 0.4083 0.8434
vn -0.2049 0.8445 0.4948
vn -0.1781 0.4083 -0.8953
vn -0.1045 0.8445 -0.5252
vn 0.6455 0.4083 0.6455
vn 0.3787 0.8445 0.3787
vn -0.1781 0.4083 0.8953
vn -0.1045 0.8445 0.5252
vn -0.3493 0.4083 -0.8434
vn -0.2049 0.8445 -0.4947
vn 0.7590 0.4083 0.5071
vn 0.4453 0.8445 0.2975
vn -0.5071 0.4083 -0.7590
vn -0.2975 0.8445 -0.4453
vn 0.8434 0.4083 0.3493
vn 0.4947 0.8445 0.2049
vn -0.6455 0.4083 -0.6455
vn -0.3787 0.8445 -0.3787
vn 0.8953 0.4083 0.1781
vn 0.5252 0.8445 0.1045
vn -0.7590 0.4083 -0.5071
vn -0.4452 0.8445 -0.2975
vn 0.9128 0.4083 -0.0000
vn 0.5355 0.8445 -0.0000
vn -0.8433 0.4083 -0.3493
vn -0.4947 0.8445 -0.2049
vn 0.8953 0.4083 -0.1781
vn 0.5252 0.8445 -0.1045
vn -0.8953 0.4083 -0.1781
vn -0.5252 0.8445 -0.1045
vn 0.8433 0.4083 -0.3493
vn 0.4947 0.8445 -0.2049
vn -0.9128 0.4083 -0.0000
vn -0.5355 0.8445 -0.0000
vn 0.7590 0.4083 -0.5071
vn 0.4453 0.8445 -0.2975
vn -0.8953 0.4083 0.1781
vn -0.5252 0.8445 0.1045
vn 0.6455 0.4083 -0.6455
vn 0.3787 0.8445 -0.3787
vn 0.4477 -0.5922 -0.6700
vn 0.5697 -0.5923 -0.5697
vn 0.3084 -0.5922 -0.7444
vn -0.0000 1.0000 -0.0000
vn -0.6700 -0.5922 0.4477
vn -0.7444 -0.5922 0.3084
vn -0.7903 -0.5922 0.1572
vn -0.8058 -0.5922 -0.0000
vn 0.6700 -0.5922 -0.4477
vn 0.7444 -0.5922 -0.3084
vn -0.7903 -0.5922 -0.1572
vn -0.7444 -0.5922 -0.3084
vn 0.7903 -0.5922 -0.1572
vn 0.8058 -0.5922 -0.0000
vn -0.6700 -0.5922 -0.4477
vn -0.5698 -0.5922 -0.5698
vn 0.7903 -0.5922 0.1572
vn 0.7444 -0.5922 0.3084
vn 0.1572 -0.5922 0.7903
vn -0.0000 -0.5922 0.8058
vn 0.3084 -0.5922 0.7444
vn -0.4477 -0.5922 -0.6700
vn -0.3084 -0.5922 -0.7444
vn 0.6700 -0.5922 0.4477
vn 0.5697 -0.5923 0.5697
vn -0.1572 -0.5922 0.7903
vn 0.4477 -0.5922 0.6700
vn 0.1572 -0.5922 -0.7903
vn -0.0000 -0.5922 -0.8058
vn -0.1572 -0.5922 -0.7903
vn 0.5072 0.4083 -0.7590
vn -0.8433 0.4083 0.3493
vn 0.7590 0.4083 -0.5072
vn 0.8434 0.4083 -0.3493
vn -0.8434 0.4083 -0.3493
vn 0.7590 0.4083 0.5072
vn -0.3493 0.4083 -0.8433
vn 0.5072 0.4083 0.7590
vn 0.3493 0.4083 0.8434
vt 0.962263 0.030648
vt 0.962264 0.030648
vt 0.962264 0.030648
vt 0.962263 0.030648
vt 0.962263 0.030644
vt 0.962262 0.030644
vt 0.962267 0.030644
vt 0.962262 0.030645
vt 0.962263 0.030645
vt 0.962263 0.030645
vt 0.962266 0.030644
vt 0.962264 0.030645
vt 0.962265 0.030644
vt 0.962265 0.030645
vt 0.962264 0.030644
vt 0.962266 0.030645
vt 0.962263 0.030644
vt 0.962267 0.030645
vt 0.962265 0.030647
vt 0.962264 0.030647
vt 0.962266 0.030647
vt 0.762639 0.144874
vt 0.760659 0.125001
vt 0.862537 0.124886
vt 0.768459 0.163979
vt 0.947309 0.181390
vt 0.934657 0.196843
vt 0.956704 0.163766
vt 0.919233 0.209530
vt 0.901630 0.218964
vt 0.777765 0.068381
vt 0.790418 0.052929
vt 0.768371 0.086005
vt 0.882525 0.224783
vt 0.862652 0.226763
vt 0.805841 0.040241
vt 0.823444 0.030807
vt 0.919041 0.040114
vt 0.934494 0.052766
vt 0.901418 0.030719
vt 0.842775 0.224828
vt 0.823657 0.219052
vt 0.842549 0.024988
vt 0.862422 0.023008
vt 0.947181 0.068190
vt 0.956616 0.085792
vt 0.806033 0.209658
vt 0.790580 0.197006
vt 0.882299 0.024943
vt 0.962435 0.104897
vt 0.964415 0.124771
vt 0.777893 0.181582
vt 0.962265 0.030648
vt 0.962266 0.030648
vt 0.962263 0.030647
vt 0.962267 0.030648
vt 0.962263 0.030647
vt 0.962267 0.030648
vt 0.962262 0.030647
vt 0.962262 0.030648
vt 0.962262 0.030648
vt 0.962267 0.030647
vt 0.762595 0.105123
vt 0.962479 0.144648
vt 0.999085 0.096285
vt 0.999089 0.103637
vt 0.978659 0.115649
vt 0.978656 0.108947
vt 0.999134 0.191855
vt 0.999138 0.199206
vt 0.978704 0.202779
vt 0.978700 0.196077
vt 0.999082 0.088934
vt 0.978652 0.102245
vt 0.999130 0.184503
vt 0.978697 0.189374
vt 0.999078 0.081582
vt 0.978649 0.095542
vt 0.999127 0.177152
vt 0.978694 0.182672
vt 0.999074 0.074230
vt 0.978645 0.088840
vt 0.999123 0.169800
vt 0.978690 0.175970
vt 0.999070 0.066879
vt 0.978642 0.082138
vt 0.999119 0.162449
vt 0.978687 0.169268
vt 0.999067 0.059527
vt 0.978638 0.075435
vt 0.999116 0.155097
vt 0.978683 0.162565
vt 0.999063 0.052176
vt 0.978635 0.068733
vt 0.999112 0.147746
vt 0.978680 0.155863
vt 0.999059 0.044824
vt 0.978631 0.062031
vt 0.999108 0.140394
vt 0.978676 0.149161
vt 0.999158 0.236127
vt 0.999158 0.243154
vt 0.978723 0.243154
vt 0.978723 0.236127
vt 0.999055 0.037473
vt 0.978628 0.055329
vt 0.999104 0.133043
vt 0.978673 0.142458
vt 0.999153 0.228612
vt 0.999157 0.235964
vt 0.978721 0.236291
vt 0.978718 0.229588
vt 0.999052 0.030121
vt 0.978625 0.048626
vt 0.999101 0.125691
vt 0.978669 0.135756
vt 0.999149 0.221261
vt 0.978714 0.222886
vt 0.999048 0.022770
vt 0.978621 0.041924
vt 0.999097 0.118340
vt 0.978666 0.129054
vt 0.999145 0.213909
vt 0.978711 0.216184
vt 0.999044 0.015418
vt 0.978618 0.035222
vt 0.999093 0.110988
vt 0.978662 0.122352
vt 0.999142 0.206558
vt 0.978707 0.209481
vt 0.999041 0.008067
vt 0.978614 0.028519
vt 0.962262 0.030644
vt 0.962267 0.030644
s 1
f 1/1/1 2/2/2 3/3/3 4/4/4
f 5/5/5 6/6/6 7/6/7 8/5/8
f 9/7/9 10/7/10 11/7/11 12/7/12
f 13/8/13 14/9/14 15/9/15 16/8/16
f 6/6/6 17/6/17 18/6/18 7/6/7
f 10/7/10 19/7/19 20/7/20 11/7/11
f 14/9/14 21/9/21 22/9/22 15/9/15
f 17/6/17 23/6/23 24/6/24 18/6/18
f 19/7/19 25/7/25 26/7/26 20/7/20
f 21/9/21 27/10/27 28/10/28 22/9/22
f 23/6/23 29/6/29 30/6/30 24/6/24
f 25/7/25 31/11/31 32/11/32 26/7/26
f 27/10/27 33/10/33 34/10/34 28/10/28
f 29/6/29 35/6/35 36/6/36 30/6/30
f 31/11/31 37/11/37 38/11/38 32/11/32
f 33/10/33 39/12/39 40/12/40 34/10/34
f 35/6/35 13/8/13 16/8/16 36/6/36
f 37/11/37 41/13/41 42/13/42 38/11/38
f 39/12/39 43/12/43 44/12/44 40/12/40
f 41/13/41 45/13/45 46/13/46 42/13/42
f 43/12/43 47/14/47 48/14/48 44/12/44
f 45/13/45 49/15/49 50/15/50 46/13/46
f 47/14/47 51/14/51 52/14/52 48/14/48
f 49/15/49 53/15/53 54/15/54 50/15/50
f 51/14/51 55/16/55 56/16/56 52/14/52
f 53/15/53 57/17/57 58/17/58 54/15/54
f 55/16/55 59/16/59 60/16/60 56/16/56
f 57/17/57 61/17/61 62/17/62 58/17/58
f 59/16/59 63/18/63 64/18/64 60/16/60
f 61/17/61 65/5/65 66/5/66 62/17/62
f 63/18/63 67/7/67 68/7/68 64/18/64
f 65/5/65 5/5/5 8/5/8 66/5/66
f 67/7/67 9/7/9 12/7/12 68/7/68
f 69/19/69 70/20/70 3/3/3 71/21/71
f 58/22/58 62/23/62 72/24/72 54/25/54
f 64/26/64 68/27/68 72/24/72 60/28/60
f 12/29/12 11/30/11 72/24/72 68/27/68
f 7/31/7 18/32/18 72/24/72 8/33/8
f 20/34/20 26/35/26 72/24/72 11/30/11
f 24/36/24 30/37/30 72/24/72 18/32/18
f 28/38/28 34/39/34 72/24/72 22/40/22
f 32/41/32 38/42/38 72/24/72 26/35/26
f 36/43/36 16/44/16 72/24/72 30/37/30
f 40/45/40 44/46/44 72/24/72 34/39/34
f 42/47/42 46/48/46 72/24/72 38/42/38
f 15/49/15 22/40/22 72/24/72 16/44/16
f 44/46/44 48/50/48 52/51/52 72/24/72
f 46/48/46 50/52/50 54/25/54 72/24/72
f 2/2/2 73/2/73 74/53/74 3/3/3
f 74/53/74 75/54/75 76/54/76 3/3/3
f 77/20/77 78/55/78 3/3/3 70/20/70
f 79/56/79 80/56/80 3/3/3 76/54/76
f 81/57/81 82/57/82 3/3/3 78/55/78
f 83/58/83 84/58/84 3/3/3 80/56/80
f 85/59/85 86/59/86 3/3/3 82/57/82
f 87/60/87 88/60/88 3/3/3 89/61/89
f 90/58/90 91/62/91 3/3/3 84/58/84
f 92/59/92 93/61/93 3/3/3 86/59/86
f 94/4/94 4/4/4 3/3/3 88/60/88
f 95/61/95 89/61/89 3/3/3 93/61/93
f 96/21/96 71/21/71 3/3/3 97/62/97
f 66/63/66 8/33/8 72/24/72 62/23/62
f 56/64/56 60/28/60 72/24/72 52/51/52
f 98/62/98 97/62/97 3/3/3 91/62/91
f 99/65/67 100/66/99 9/67/9 67/68/67
f 101/69/65 102/70/100 5/71/5 65/72/65
f 103/73/101 99/65/67 67/68/67 63/74/63
f 104/75/61 101/69/65 65/72/65 61/76/61
f 105/77/102 103/73/101 63/74/63 59/78/59
f 106/79/57 104/75/61 61/76/61 57/80/57
f 107/81/55 105/77/102 59/78/59 55/82/55
f 108/83/103 106/79/57 57/80/57 53/84/53
f 109/85/51 107/81/55 55/82/55 51/86/51
f 110/87/49 108/83/103 53/84/53 49/88/49
f 111/89/47 109/85/51 51/86/51 47/90/47
f 112/91/45 110/87/49 49/88/49 45/92/45
f 113/93/43 111/89/47 47/90/47 43/94/43
f 114/95/41 112/91/45 45/92/45 41/96/41
f 115/97/104 113/93/43 43/94/43 39/98/39
f 116/99/105 114/95/41 41/96/41 37/100/37
f 117/101/35 118/102/13 13/103/13 35/104/35
f 119/105/33 115/97/104 39/98/39 33/106/33
f 120/107/31 116/99/105 37/100/37 31/108/31
f 121/109/29 117/110/35 35/111/35 29/112/29
f 122/113/106 119/105/33 33/106/33 27/114/27
f 123/115/25 120/107/31 31/108/31 25/116/25
f 124/117/23 121/109/29 29/112/29 23/118/23
f 125/119/107 122/113/106 27/114/27 21/120/21
f 126/121/19 123/115/25 25/116/25 19/122/19
f 127/123/17 124/117/23 23/118/23 17/124/17
f 128/125/14 125/119/107 21/120/21 14/126/14
f 129/127/10 126/121/19 19/122/19 10/128/10
f 130/129/6 127/123/17 17/124/17 6/130/6
f 118/131/13 128/125/14 14/126/14 13/132/13
f 100/66/99 129/127/10 10/128/10 9/67/9
f 102/70/100 130/129/6 6/130/6 5/71/5
f 74/53/74 73/2/73 130/133/6 102/133/100
f 69/19/69 71/21/71 129/7/10 100/7/99
f 88/60/88 87/60/87 128/8/14 118/8/13
f 73/2/73 2/2/2 127/6/17 130/133/6
f 71/21/71 96/21/96 126/7/19 129/7/10
f 87/60/87 89/61/89 125/9/107 128/8/14
f 2/2/2 1/1/1 124/6/23 127/6/17
f 96/21/96 97/62/97 123/134/25 126/7/19
f 89/61/89 95/61/95 122/9/106 125/9/107
f 1/1/1 4/4/4 121/6/29 124/6/23
f 97/62/97 98/62/98 120/134/31 123/134/25
f 95/61/95 93/61/93 119/10/33 122/9/106
f 4/4/4 94/4/94 117/6/35 121/6/29
f 98/62/98 91/62/91 116/11/105 120/134/31
f 93/61/93 92/59/92 115/12/104 119/10/33
f 94/4/94 88/60/88 118/8/13 117/6/35
f 91/62/91 90/58/90 114/11/41 116/11/105
f 92/59/92 86/59/86 113/12/43 115/12/104
f 90/58/90 84/58/84 112/13/45 114/11/41
f 86/59/86 85/59/85 111/14/47 113/12/43
f 84/58/84 83/58/83 110/15/49 112/13/45
f 85/59/85 82/57/82 109/16/51 111/14/47
f 83/58/83 80/56/80 108/15/103 110/15/49
f 82/57/82 81/57/81 107/16/55 109/16/51
f 80/56/80 79/56/79 106/17/57 108/15/103
f 81/57/81 78/55/78 105/18/102 107/16/55
f 79/56/79 76/54/76 104/5/61 106/17/57
f 78/55/78 77/20/77 103/18/101 105/18/102
f 76/54/76 75/54/75 101/5/65 104/5/61
f 77/20/77 70/20/70 99/7/67 103/18/101
f 75/54/75 74/53/74 102/133/100 101/5/65
f 70/20/70 69/19/69 100/7/99 99/7/67
