# Blender 4.2.3 LTS
# www.blender.org
o 32_cir.001
v -0.355564 0.000000 0.532140
v -0.452548 0.000000 0.452549
v 0.000000 0.000000 0.000000
v -0.244916 0.000000 0.591283
v -0.534713 0.119773 0.221486
v -0.481229 0.119773 0.321548
v -0.477987 0.127400 0.319382
v -0.531111 0.127400 0.219994
v 0.321548 0.119773 -0.481229
v 0.221486 0.119773 -0.534713
v 0.219994 0.127400 -0.531111
v 0.319381 0.127400 -0.477987
v 0.000000 0.119773 0.578770
v 0.112913 0.119773 0.567649
v 0.112152 0.127400 0.563824
v 0.000000 0.127400 0.574871
v -0.409251 0.119773 0.409253
v -0.406494 0.127400 0.406495
v 0.112912 0.119773 -0.567649
v 0.112152 0.127400 -0.563824
v 0.221486 0.119773 0.534713
v 0.219994 0.127400 0.531111
v -0.321546 0.119773 0.481230
v -0.319381 0.127400 0.477989
v 0.000000 0.119773 -0.578770
v 0.000000 0.127400 -0.574871
v 0.321548 0.119773 0.481229
v 0.319381 0.127400 0.477987
v -0.221484 0.119773 0.534713
v -0.219993 0.127400 0.531111
v -0.112913 0.119773 -0.567649
v -0.112152 0.127400 -0.563824
v 0.409253 0.119773 0.409253
v 0.406495 0.127400 0.406495
v -0.112912 0.119773 0.567649
v -0.112152 0.127400 0.563826
v -0.221486 0.119773 -0.534713
v -0.219994 0.127400 -0.531111
v 0.481229 0.119773 0.321548
v 0.477987 0.127400 0.319381
v -0.321548 0.119773 -0.481229
v -0.319381 0.127400 -0.477987
v 0.534713 0.119773 0.221486
v 0.531111 0.127400 0.219994
v -0.409253 0.119773 -0.409251
v -0.406495 0.127400 -0.406495
v 0.567649 0.119773 0.112913
v 0.563824 0.127400 0.112151
v -0.481230 0.119773 -0.321546
v -0.477987 0.127400 -0.319381
v 0.578770 0.119773 -0.000000
v 0.574871 0.127400 -0.000000
v -0.534713 0.119773 -0.221486
v -0.531111 0.127400 -0.219993
v 0.567649 0.119773 -0.112912
v 0.563824 0.127400 -0.112152
v -0.567649 0.119773 -0.112912
v -0.563826 0.127400 -0.112152
v 0.534713 0.119773 -0.221486
v 0.531111 0.127400 -0.219993
v -0.578770 0.119773 -0.000000
v -0.574871 0.127400 -0.000000
v 0.481229 0.119773 -0.321548
v 0.477987 0.127400 -0.319381
v -0.567649 0.119773 0.112913
v -0.563824 0.127400 0.112153
v 0.409253 0.119773 -0.409253
v 0.406495 0.127400 -0.406495
v 0.355564 -0.000000 -0.532140
v 0.452548 -0.000000 -0.452548
v 0.244918 -0.000000 -0.591283
v 0.000000 0.127400 -0.000000
v -0.532140 0.000000 0.355566
v -0.591283 0.000000 0.244918
v -0.627703 0.000000 0.124859
v -0.640000 0.000000 0.000000
v 0.532140 -0.000000 -0.355564
v 0.591283 -0.000000 -0.244918
v -0.627703 -0.000000 -0.124857
v -0.591283 -0.000000 -0.244918
v 0.627703 -0.000000 -0.124857
v 0.640000 0.000000 0.000000
v -0.532140 -0.000000 -0.355564
v -0.452549 -0.000000 -0.452548
v 0.627703 0.000000 0.124857
v 0.591283 0.000000 0.244918
v 0.124857 0.000000 0.627703
v 0.000000 0.000000 0.640000
v 0.244918 0.000000 0.591283
v -0.355566 -0.000000 -0.532140
v -0.244918 -0.000000 -0.591283
v 0.532140 0.000000 0.355564
v 0.452548 0.000000 0.452548
v -0.124857 0.000000 0.627703
v 0.355564 0.000000 0.532140
v 0.124857 -0.000000 -0.627703
v 0.000000 -0.000000 -0.640000
v -0.124857 -0.000000 -0.627703
v 0.448899 0.010098 -0.448899
v 0.352697 0.010098 -0.527848
v -0.622639 0.010098 0.123852
v -0.586513 0.010098 0.242943
v 0.527848 0.010098 -0.352697
v -0.634838 0.010098 -0.000000
v 0.586514 0.010098 -0.242941
v -0.622640 0.010098 -0.123850
v 0.622640 0.010098 -0.123850
v -0.586514 0.010098 -0.242941
v 0.634838 0.010098 -0.000000
v -0.527848 0.010098 -0.352696
v 0.622639 0.010098 0.123850
v -0.448899 0.010098 -0.448897
v 0.586514 0.010098 0.242941
v -0.352697 0.010098 -0.527848
v 0.527848 0.010098 0.352697
v -0.242943 0.010098 -0.586513
v -0.123849 0.010098 0.622640
v 0.000000 0.010098 0.634838
v 0.448899 0.010098 0.448899
v -0.123850 0.010098 -0.622639
v -0.242941 0.010098 0.586514
v 0.352697 0.010098 0.527848
v 0.000000 0.010098 -0.634838
v -0.352696 0.010098 0.527848
v 0.242941 0.010098 0.586514
v 0.123850 0.010098 -0.622640
v -0.448897 0.010098 0.448899
v 0.123850 0.010098 0.622639
v 0.242941 0.010098 -0.586514
v -0.527848 0.010098 0.352697
vn -0.4254 -0.6432 0.6367
vn -0.5414 -0.6432 0.5414
vn -0.0000 -1.0000 -0.0000
vn -0.2930 -0.6432 0.7074
vn -0.8226 0.4552 0.3407
vn -0.7403 0.4552 0.4947
vn -0.4034 0.8744 0.2695
vn -0.4482 0.8744 0.1857
vn 0.4947 0.4552 -0.7403
vn 0.3407 0.4552 -0.8226
vn 0.1857 0.8744 -0.4482
vn 0.2695 0.8744 -0.4034
vn -0.0000 0.4552 0.8904
vn 0.1737 0.4552 0.8733
vn 0.0946 0.8744 0.4758
vn -0.0000 0.8744 0.4852
vn -0.6296 0.4552 0.6296
vn -0.3431 0.8744 0.3431
vn 0.1737 0.4552 -0.8733
vn 0.0947 0.8744 -0.4758
vn 0.3407 0.4552 0.8226
vn 0.1857 0.8744 0.4482
vn -0.4947 0.4552 0.7403
vn -0.2695 0.8744 0.4034
vn -0.0000 0.4552 -0.8904
vn -0.0000 0.8744 -0.4852
vn 0.4947 0.4552 0.7403
vn 0.2695 0.8744 0.4034
vn -0.3407 0.4552 0.8226
vn -0.1857 0.8744 0.4482
vn -0.1737 0.4552 -0.8733
vn -0.0946 0.8744 -0.4758
vn 0.6296 0.4552 0.6296
vn 0.3430 0.8744 0.3430
vn -0.1737 0.4552 0.8733
vn -0.0947 0.8744 0.4759
vn -0.3407 0.4552 -0.8226
vn -0.1857 0.8744 -0.4482
vn 0.7403 0.4552 0.4947
vn 0.4034 0.8744 0.2695
vn -0.4947 0.4552 -0.7403
vn -0.2695 0.8744 -0.4034
vn 0.8226 0.4552 0.3407
vn 0.4482 0.8744 0.1857
vn -0.6296 0.4552 -0.6296
vn -0.3431 0.8744 -0.3431
vn 0.8733 0.4552 0.1737
vn 0.4758 0.8744 0.0946
vn -0.7403 0.4552 -0.4947
vn -0.4034 0.8744 -0.2695
vn 0.8904 0.4552 -0.0000
vn 0.4852 0.8744 -0.0000
vn -0.8226 0.4552 -0.3407
vn -0.4482 0.8744 -0.1857
vn 0.8733 0.4552 -0.1737
vn 0.4758 0.8744 -0.0947
vn -0.8733 0.4552 -0.1737
vn -0.4759 0.8744 -0.0947
vn 0.8226 0.4552 -0.3407
vn 0.4482 0.8744 -0.1857
vn -0.8904 0.4552 -0.0000
vn -0.4852 0.8744 -0.0000
vn 0.7403 0.4552 -0.4947
vn 0.4034 0.8744 -0.2695
vn -0.8733 0.4552 0.1737
vn -0.4758 0.8744 0.0947
vn 0.6296 0.4552 -0.6296
vn 0.3430 0.8744 -0.3431
vn 0.4254 -0.6432 -0.6367
vn 0.5414 -0.6432 -0.5414
vn 0.2930 -0.6432 -0.7074
vn -0.0000 1.0000 -0.0000
vn -0.6367 -0.6432 0.4254
vn -0.7074 -0.6432 0.2930
vn -0.7510 -0.6432 0.1494
vn -0.7657 -0.6432 -0.0000
vn 0.6367 -0.6432 -0.4254
vn 0.7074 -0.6432 -0.2930
vn -0.7510 -0.6432 -0.1494
vn -0.7074 -0.6432 -0.2930
vn 0.7510 -0.6432 -0.1494
vn 0.7657 -0.6432 -0.0000
vn -0.6367 -0.6432 -0.4254
vn -0.5414 -0.6432 -0.5414
vn 0.7510 -0.6432 0.1494
vn 0.7074 -0.6432 0.2930
vn 0.1494 -0.6432 0.7510
vn -0.0000 -0.6432 0.7657
vn 0.2930 -0.6432 0.7074
vn -0.4254 -0.6432 -0.6367
vn -0.2930 -0.6432 -0.7074
vn 0.6367 -0.6432 0.4254
vn 0.5414 -0.6432 0.5414
vn -0.1494 -0.6432 0.7510
vn 0.4254 -0.6432 0.6367
vn 0.1494 -0.6432 -0.7510
vn -0.0000 -0.6432 -0.7657
vn -0.1494 -0.6432 -0.7510
vn 0.6296 0.4551 -0.6296
vn 0.6296 0.4551 0.6296
vt 0.859473 0.230215
vt 0.859475 0.230215
vt 0.859475 0.230214
vt 0.859473 0.230215
vt 0.859473 0.230209
vt 0.859471 0.230210
vt 0.859478 0.230210
vt 0.859471 0.230211
vt 0.859473 0.230211
vt 0.859473 0.230211
vt 0.859477 0.230209
vt 0.859475 0.230211
vt 0.859475 0.230209
vt 0.859475 0.230211
vt 0.859475 0.230209
vt 0.859477 0.230211
vt 0.859473 0.230209
vt 0.859478 0.230211
vt 0.859475 0.230213
vt 0.859475 0.230213
vt 0.859477 0.230213
vt 0.859475 0.230210
vt 0.859475 0.230215
vt 0.859477 0.230215
vt 0.859473 0.230213
vt 0.859478 0.230215
vt 0.859473 0.230213
vt 0.859478 0.230214
vt 0.859471 0.230213
vt 0.859471 0.230215
vt 0.859471 0.230214
vt 0.859478 0.230213
vt 0.859471 0.230209
vt 0.859478 0.230209
s 1
f 1/1/1 2/2/2 3/3/3 4/4/4
f 5/5/5 6/6/6 7/6/7 8/5/8
f 9/7/9 10/7/10 11/7/11 12/7/12
f 13/8/13 14/9/14 15/9/15 16/8/16
f 6/6/6 17/6/17 18/6/18 7/6/7
f 10/7/10 19/7/19 20/7/20 11/7/11
f 14/9/14 21/9/21 22/9/22 15/9/15
f 17/6/17 23/6/23 24/6/24 18/6/18
f 19/7/19 25/7/25 26/7/26 20/7/20
f 21/9/21 27/10/27 28/10/28 22/9/22
f 23/6/23 29/6/29 30/6/30 24/6/24
f 25/7/25 31/11/31 32/11/32 26/7/26
f 27/10/27 33/10/33 34/10/34 28/10/28
f 29/6/29 35/6/35 36/6/36 30/6/30
f 31/11/31 37/11/37 38/11/38 32/11/32
f 33/10/33 39/12/39 40/12/40 34/10/34
f 35/6/35 13/8/13 16/8/16 36/6/36
f 37/11/37 41/13/41 42/13/42 38/11/38
f 39/12/39 43/12/43 44/12/44 40/12/40
f 41/13/41 45/13/45 46/13/46 42/13/42
f 43/12/43 47/14/47 48/14/48 44/12/44
f 45/13/45 49/15/49 50/15/50 46/13/46
f 47/14/47 51/14/51 52/14/52 48/14/48
f 49/15/49 53/15/53 54/15/54 50/15/50
f 51/14/51 55/16/55 56/16/56 52/14/52
f 53/15/53 57/17/57 58/17/58 54/15/54
f 55/16/55 59/16/59 60/16/60 56/16/56
f 57/17/57 61/17/61 62/17/62 58/17/58
f 59/16/59 63/18/63 64/18/64 60/16/60
f 61/17/61 65/5/65 66/5/66 62/17/62
f 63/18/63 67/7/67 68/7/68 64/18/64
f 65/5/65 5/5/5 8/5/8 66/5/66
f 67/7/67 9/7/9 12/7/12 68/7/68
f 69/19/69 70/20/70 3/3/3 71/21/71
f 58/17/58 62/17/62 72/22/72 54/15/54
f 64/18/64 68/7/68 72/22/72 60/16/60
f 12/7/12 11/7/11 72/22/72 68/7/68
f 7/6/7 18/6/18 72/22/72 8/5/8
f 20/7/20 26/7/26 72/22/72 11/7/11
f 24/6/24 30/6/30 72/22/72 18/6/18
f 28/10/28 34/10/34 72/22/72 22/9/22
f 32/11/32 38/11/38 72/22/72 26/7/26
f 36/6/36 16/8/16 72/22/72 30/6/30
f 40/12/40 44/12/44 72/22/72 34/10/34
f 42/13/42 46/13/46 72/22/72 38/11/38
f 15/9/15 22/9/22 72/22/72 16/8/16
f 44/12/44 48/14/48 52/14/52 72/22/72
f 46/13/46 50/15/50 54/15/54 72/22/72
f 2/2/2 73/2/73 74/23/74 3/3/3
f 74/23/74 75/24/75 76/24/76 3/3/3
f 77/20/77 78/25/78 3/3/3 70/20/70
f 79/26/79 80/26/80 3/3/3 76/24/76
f 81/27/81 82/27/82 3/3/3 78/25/78
f 83/28/83 84/28/84 3/3/3 80/26/80
f 85/29/85 86/29/86 3/3/3 82/27/82
f 87/30/87 88/30/88 3/3/3 89/31/89
f 90/28/90 91/32/91 3/3/3 84/28/84
f 92/29/92 93/31/93 3/3/3 86/29/86
f 94/4/94 4/4/4 3/3/3 88/30/88
f 95/31/95 89/31/89 3/3/3 93/31/93
f 96/21/96 71/21/71 3/3/3 97/32/97
f 66/5/66 8/5/8 72/22/72 62/17/62
f 56/16/56 60/16/60 72/22/72 52/14/52
f 98/32/98 97/32/97 3/3/3 91/32/91
f 99/7/99 100/7/9 9/7/9 67/7/67
f 101/5/65 102/33/5 5/5/5 65/5/65
f 103/18/63 99/7/99 67/7/67 63/18/63
f 104/5/61 101/5/65 65/5/65 61/17/61
f 105/18/59 103/18/63 63/18/63 59/16/59
f 106/17/57 104/5/61 61/17/61 57/17/57
f 107/16/55 105/18/59 59/16/59 55/16/55
f 108/15/53 106/17/57 57/17/57 53/15/53
f 109/16/51 107/16/55 55/16/55 51/14/51
f 110/15/49 108/15/53 53/15/53 49/15/49
f 111/14/47 109/16/51 51/14/51 47/14/47
f 112/13/45 110/15/49 49/15/49 45/13/45
f 113/12/43 111/14/47 47/14/47 43/12/43
f 114/11/41 112/13/45 45/13/45 41/13/41
f 115/12/39 113/12/43 43/12/43 39/12/39
f 116/11/37 114/11/41 41/13/41 37/11/37
f 117/6/35 118/8/13 13/8/13 35/6/35
f 119/10/100 115/12/39 39/12/39 33/10/33
f 120/34/31 116/11/37 37/11/37 31/11/31
f 121/6/29 117/6/35 35/6/35 29/6/29
f 122/9/27 119/10/100 33/10/33 27/10/27
f 123/34/25 120/34/31 31/11/31 25/7/25
f 124/6/23 121/6/29 29/6/29 23/6/23
f 125/9/21 122/9/27 27/10/27 21/9/21
f 126/7/19 123/34/25 25/7/25 19/7/19
f 127/6/17 124/6/23 23/6/23 17/6/17
f 128/8/14 125/9/21 21/9/21 14/9/14
f 129/7/10 126/7/19 19/7/19 10/7/10
f 130/33/6 127/6/17 17/6/17 6/6/6
f 118/8/13 128/8/14 14/9/14 13/8/13
f 100/7/9 129/7/10 10/7/10 9/7/9
f 102/33/5 130/33/6 6/6/6 5/5/5
f 74/23/74 73/2/73 130/33/6 102/33/5
f 69/19/69 71/21/71 129/7/10 100/7/9
f 88/30/88 87/30/87 128/8/14 118/8/13
f 73/2/73 2/2/2 127/6/17 130/33/6
f 71/21/71 96/21/96 126/7/19 129/7/10
f 87/30/87 89/31/89 125/9/21 128/8/14
f 2/2/2 1/1/1 124/6/23 127/6/17
f 96/21/96 97/32/97 123/34/25 126/7/19
f 89/31/89 95/31/95 122/9/27 125/9/21
f 1/1/1 4/4/4 121/6/29 124/6/23
f 97/32/97 98/32/98 120/34/31 123/34/25
f 95/31/95 93/31/93 119/10/100 122/9/27
f 4/4/4 94/4/94 117/6/35 121/6/29
f 98/32/98 91/32/91 116/11/37 120/34/31
f 93/31/93 92/29/92 115/12/39 119/10/100
f 94/4/94 88/30/88 118/8/13 117/6/35
f 91/32/91 90/28/90 114/11/41 116/11/37
f 92/29/92 86/29/86 113/12/43 115/12/39
f 90/28/90 84/28/84 112/13/45 114/11/41
f 86/29/86 85/29/85 111/14/47 113/12/43
f 84/28/84 83/28/83 110/15/49 112/13/45
f 85/29/85 82/27/82 109/16/51 111/14/47
f 83/28/83 80/26/80 108/15/53 110/15/49
f 82/27/82 81/27/81 107/16/55 109/16/51
f 80/26/80 79/26/79 106/17/57 108/15/53
f 81/27/81 78/25/78 105/18/59 107/16/55
f 79/26/79 76/24/76 104/5/61 106/17/57
f 78/25/78 77/20/77 103/18/63 105/18/59
f 76/24/76 75/24/75 101/5/65 104/5/61
f 77/20/77 70/20/70 99/7/99 103/18/63
f 75/24/75 74/23/74 102/33/5 101/5/65
f 70/20/70 69/19/69 100/7/9 99/7/99
