# Blender 4.2.3 LTS
# www.blender.org
o rec_50x25
v -0.500000 0.003986 1.000000
v -0.474307 0.128861 0.948614
v -0.500000 0.003986 -1.000000
v -0.474307 0.128861 -0.948614
v 0.500000 0.003986 1.000000
v 0.474307 0.128861 0.948614
v 0.500000 0.003986 -1.000000
v 0.474307 0.128861 -0.948614
vn -0.9795 0.2015 -0.0000
vn -0.0000 0.3805 -0.9248
vn 0.9795 0.2015 -0.0000
vn -0.0000 0.3805 0.9248
vn -0.0000 -1.0000 -0.0000
vn -0.0000 1.0000 -0.0000
vt 0.141146 0.215757
vt 0.138860 0.215387
vt 0.138860 0.201711
vt 0.141146 0.201340
vt 0.136574 0.215790
vt 0.134288 0.215419
vt 0.134288 0.201712
vt 0.136574 0.201340
vt 0.143432 0.215757
vt 0.141146 0.215387
vt 0.141146 0.201711
vt 0.143432 0.201340
vt 0.138860 0.215790
vt 0.136574 0.215419
vt 0.136574 0.201712
vt 0.138860 0.201340
vt 0.134288 0.201340
vt 0.134288 0.215790
vt 0.119871 0.215790
vt 0.119871 0.201340
vt 0.000884 0.248185
vt 0.000884 0.000886
vt 0.249129 0.000886
vt 0.249129 0.248185
s 0
f 1/1/1 2/2/1 4/3/1 3/4/1
f 3/5/2 4/6/2 8/7/2 7/8/2
f 7/9/3 8/10/3 6/11/3 5/12/3
f 5/13/4 6/14/4 2/15/4 1/16/4
f 3/17/5 7/18/5 5/19/5 1/20/5
f 8/21/6 4/22/6 2/23/6 6/24/6
