# Blender 4.2.3 LTS
# www.blender.org
o rec_25x50_wide
v 1.000000 0.003986 0.500000
v 0.948614 0.128861 0.474307
v -1.000000 0.003986 0.500000
v -0.948614 0.128861 0.474307
v 1.000000 0.003986 -0.500000
v 0.948614 0.128861 -0.474307
v -1.000000 0.003986 -0.500000
v -0.948614 0.128861 -0.474307
vn -0.0000 0.2015 0.9795
vn -0.9248 0.3805 -0.0000
vn -0.0000 0.2015 -0.9795
vn 0.9248 0.3805 -0.0000
vn -0.0000 -1.0000 -0.0000
vn -0.0000 1.0000 -0.0000
vt 0.250677 0.247536
vt 0.250775 0.244390
vt 0.254410 0.244390
vt 0.254508 0.247536
vt 0.250681 0.247577
vt 0.250779 0.244431
vt 0.254423 0.244431
vt 0.254521 0.247577
vt 0.250670 0.247549
vt 0.250769 0.244402
vt 0.254403 0.244402
vt 0.254502 0.247549
vt 0.250674 0.247523
vt 0.250773 0.244377
vt 0.254416 0.244377
vt 0.254515 0.247523
vt 0.050470 0.167192
vt 0.036021 0.167192
vt 0.036021 0.152775
vt 0.050470 0.152775
vt 0.129687 0.000586
vt 0.249333 0.000586
vt 0.249333 0.248830
vt 0.129687 0.248830
s 0
f 1/1/1 2/2/1 4/3/1 3/4/1
f 3/5/2 4/6/2 8/7/2 7/8/2
f 7/9/3 8/10/3 6/11/3 5/12/3
f 5/13/4 6/14/4 2/15/4 1/16/4
f 3/17/5 7/18/5 5/19/5 1/20/5
f 8/21/6 4/22/6 2/23/6 6/24/6
