# Blender 4.2.3 LTS
# www.blender.org
o sq_40_color
v -0.800000 0.003986 0.800000
v -0.758891 0.128861 0.758891
v -0.800000 0.003986 -0.800000
v -0.758891 0.128861 -0.758891
v 0.800000 0.003986 0.800000
v 0.758891 0.128861 0.758891
v 0.800000 0.003986 -0.800000
v 0.758891 0.128861 -0.758891
vn -0.9499 0.3127 -0.0000
vn -0.0000 0.3127 -0.9499
vn 0.9499 0.3127 -0.0000
vn -0.0000 0.3127 0.9499
vt 0.254413 0.001366
vt 0.250985 0.001448
vt 0.250985 0.004490
vt 0.254413 0.004573
vt 0.254476 0.001376
vt 0.251048 0.001459
vt 0.251048 0.004507
vt 0.254476 0.004590
vt 0.254728 0.001366
vt 0.251300 0.001448
vt 0.251300 0.004490
vt 0.254728 0.004573
vt 0.254329 0.001359
vt 0.250901 0.001441
vt 0.250901 0.004490
vt 0.254329 0.004573
s 0
f 1/1/1 2/2/1 4/3/1 3/4/1
f 3/5/2 4/6/2 8/7/2 7/8/2
f 7/9/3 8/10/3 6/11/3 5/12/3
f 5/13/4 6/14/4 2/15/4 1/16/4
o sq_40_color-base
v -0.800000 0.003986 0.800000
v -0.758891 0.128861 0.758891
v -0.800000 0.003986 -0.800000
v -0.758891 0.128861 -0.758891
v 0.800000 0.003986 0.800000
v 0.758891 0.128861 0.758891
v 0.800000 0.003986 -0.800000
v 0.758891 0.128861 -0.758891
vn -0.0000 -1.0000 -0.0000
vn -0.0000 1.0000 -0.0000
vt 0.095713 0.189866
vt 0.095713 0.204315
vt 0.081296 0.204315
vt 0.081296 0.189866
vt 0.000884 0.248185
vt 0.000884 0.000886
vt 0.249129 0.000886
vt 0.249129 0.248185
s 0
f 11/17/5 15/18/5 13/19/5 9/20/5
f 16/21/6 12/22/6 10/23/6 14/24/6
