# Blender 4.2.3 LTS
# www.blender.org
o sq_50
v -1.000000 0.003986 1.000000
v -0.948614 0.128861 0.948614
v -1.000000 0.003986 -1.000000
v -0.948614 0.128861 -0.948614
v 1.000000 0.003986 1.000000
v 0.948614 0.128861 0.948614
v 1.000000 0.003986 -1.000000
v 0.948614 0.128861 -0.948614
vn -0.9248 0.3805 -0.0000
vn -0.0000 0.3805 -0.9248
vn 0.9248 0.3805 -0.0000
vn -0.0000 0.3805 0.9248
vn -0.0000 -1.0000 -0.0000
vn -0.0000 1.0000 -0.0000
vt 0.126742 0.219025
vt 0.123197 0.218451
vt 0.123197 0.197245
vt 0.126742 0.196670
vt 0.126687 0.219076
vt 0.123142 0.218500
vt 0.123142 0.197246
vt 0.126687 0.196670
vt 0.126709 0.219025
vt 0.123164 0.218451
vt 0.123164 0.197245
vt 0.126709 0.196670
vt 0.127012 0.219076
vt 0.123468 0.218500
vt 0.123468 0.197246
vt 0.127012 0.196670
vt 0.105066 0.192728
vt 0.105066 0.207177
vt 0.090649 0.207177
vt 0.090649 0.192728
vt 0.000884 0.248185
vt 0.000884 0.000886
vt 0.249129 0.000886
vt 0.249129 0.248185
s 0
f 1/1/1 2/2/1 4/3/1 3/4/1
f 3/5/2 4/6/2 8/7/2 7/8/2
f 7/9/3 8/10/3 6/11/3 5/12/3
f 5/13/4 6/14/4 2/15/4 1/16/4
f 3/17/5 7/18/5 5/19/5 1/20/5
f 8/21/6 4/22/6 2/23/6 6/24/6
