# Blender 4.2.3 LTS
# www.blender.org
o cir_40
v -0.444455 0.000000 0.665175
v -0.565685 0.000000 0.565687
v 0.000000 0.000000 0.000000
v -0.306145 0.000000 0.739104
v -0.668392 0.119773 0.276857
v -0.601536 0.119773 0.401935
v -0.597484 0.127400 0.399228
v -0.663889 0.127400 0.274993
v 0.401935 0.119773 -0.601536
v 0.276857 0.119773 -0.668392
v 0.274993 0.127400 -0.663889
v 0.399226 0.127400 -0.597484
v 0.000000 0.119773 0.723463
v 0.141141 0.119773 0.709561
v 0.140189 0.127400 0.704780
v 0.000000 0.127400 0.718589
v -0.511564 0.119773 0.511566
v -0.508117 0.127400 0.508119
v 0.141140 0.119773 -0.709561
v 0.140189 0.127400 -0.704780
v 0.276857 0.119773 0.668392
v 0.274993 0.127400 0.663889
v -0.401933 0.119773 0.601538
v -0.399226 0.127400 0.597486
v 0.000000 0.119773 -0.723463
v 0.000000 0.127400 -0.718589
v 0.401935 0.119773 0.601536
v 0.399226 0.127400 0.597484
v -0.276855 0.119773 0.668392
v -0.274991 0.127400 0.663889
v -0.141141 0.119773 -0.709561
v -0.140189 0.127400 -0.704780
v 0.511566 0.119773 0.511566
v 0.508119 0.127400 0.508119
v -0.141140 0.119773 0.709561
v -0.140189 0.127400 0.704782
v -0.276857 0.119773 -0.668392
v -0.274993 0.127400 -0.663889
v 0.601536 0.119773 0.401935
v 0.597484 0.127400 0.399226
v -0.401935 0.119773 -0.601536
v -0.399226 0.127400 -0.597484
v 0.668392 0.119773 0.276857
v 0.663889 0.127400 0.274993
v -0.511566 0.119773 -0.511564
v -0.508119 0.127400 -0.508119
v 0.709561 0.119773 0.141141
v 0.704780 0.127400 0.140189
v -0.601538 0.119773 -0.401933
v -0.597484 0.127400 -0.399226
v 0.723463 0.119773 -0.000000
v 0.718589 0.127400 -0.000000
v -0.668392 0.119773 -0.276857
v -0.663889 0.127400 -0.274991
v 0.709561 0.119773 -0.141140
v 0.704780 0.127400 -0.140189
v -0.709561 0.119773 -0.141140
v -0.704782 0.127400 -0.140189
v 0.668392 0.119773 -0.276857
v 0.663889 0.127400 -0.274991
v -0.723463 0.119773 -0.000000
v -0.718589 0.127400 -0.000000
v 0.601536 0.119773 -0.401935
v 0.597484 0.127400 -0.399226
v -0.709561 0.119773 0.141141
v -0.704780 0.127400 0.140191
v 0.511566 0.119773 -0.511566
v 0.508119 0.127400 -0.508119
v 0.444455 -0.000000 -0.665175
v 0.565685 -0.000000 -0.565685
v 0.306147 -0.000000 -0.739104
v 0.000000 0.127400 -0.000000
v -0.665175 0.000000 0.444457
v -0.739104 0.000000 0.306147
v -0.784629 0.000000 0.156073
v -0.800000 0.000000 0.000000
v 0.665175 -0.000000 -0.444455
v 0.739104 -0.000000 -0.306147
v -0.784629 -0.000000 -0.156072
v -0.739104 -0.000000 -0.306147
v 0.784629 -0.000000 -0.156072
v 0.800000 0.000000 0.000000
v -0.665175 -0.000000 -0.444455
v -0.565687 -0.000000 -0.565685
v 0.784629 0.000000 0.156072
v 0.739104 0.000000 0.306147
v 0.156072 0.000000 0.784629
v 0.000000 0.000000 0.800000
v 0.306147 0.000000 0.739104
v -0.444457 -0.000000 -0.665175
v -0.306147 -0.000000 -0.739104
v 0.665175 0.000000 0.444455
v 0.565685 0.000000 0.565685
v -0.156072 0.000000 0.784629
v 0.444455 0.000000 0.665175
v 0.156072 -0.000000 -0.784629
v 0.000000 -0.000000 -0.800000
v -0.156072 -0.000000 -0.784629
v 0.561123 0.010098 -0.561123
v 0.440872 0.010098 -0.659811
v -0.778299 0.010098 0.154815
v -0.733141 0.010098 0.303678
v 0.659811 0.010098 -0.440872
v -0.793548 0.010098 -0.000000
v 0.733143 0.010098 -0.303677
v -0.778300 0.010098 -0.154813
v 0.778300 0.010098 -0.154813
v -0.733143 0.010098 -0.303677
v 0.793548 0.010098 -0.000000
v -0.659811 0.010098 -0.440870
v 0.778299 0.010098 0.154813
v -0.561123 0.010098 -0.561122
v 0.733143 0.010098 0.303677
v -0.440872 0.010098 -0.659811
v 0.659811 0.010098 0.440872
v -0.303678 0.010098 -0.733141
v -0.154811 0.010098 0.778300
v 0.000000 0.010098 0.793548
v 0.561123 0.010098 0.561123
v -0.154813 0.010098 -0.778299
v -0.303677 0.010098 0.733143
v 0.440872 0.010098 0.659811
v 0.000000 0.010098 -0.793548
v -0.440870 0.010098 0.659811
v 0.303677 0.010098 0.733143
v 0.154813 0.010098 -0.778300
v -0.561122 0.010098 0.561123
v 0.154813 0.010098 0.778299
v 0.303677 0.010098 -0.733143
v -0.659811 0.010098 0.440872
vn -0.3832 -0.7241 0.5734
vn -0.4877 -0.7241 0.4877
vn -0.0000 -1.0000 -0.0000
vn -0.2639 -0.7241 0.6371
vn -0.7785 0.5385 0.3225
vn -0.7006 0.5385 0.4682
vn -0.3373 0.9140 0.2254
vn -0.3748 0.9140 0.1553
vn 0.4681 0.5385 -0.7006
vn 0.3225 0.5385 -0.7785
vn 0.1553 0.9140 -0.3748
vn 0.2254 0.9140 -0.3373
vn -0.0000 0.5385 0.8427
vn 0.1644 0.5385 0.8265
vn 0.0791 0.9140 0.3979
vn -0.0000 0.9140 0.4057
vn -0.5958 0.5385 0.5958
vn -0.2869 0.9140 0.2869
vn 0.1644 0.5385 -0.8265
vn 0.0791 0.9140 -0.3979
vn 0.3225 0.5385 0.7785
vn 0.1553 0.9140 0.3748
vn -0.4682 0.5385 0.7006
vn -0.2254 0.9140 0.3373
vn -0.0000 0.5385 -0.8426
vn -0.0000 0.9140 -0.4057
vn 0.4681 0.5385 0.7006
vn 0.2254 0.9140 0.3373
vn -0.3225 0.5384 0.7785
vn -0.1553 0.9140 0.3748
vn -0.1644 0.5385 -0.8265
vn -0.0791 0.9140 -0.3979
vn 0.5958 0.5385 0.5958
vn 0.2869 0.9140 0.2869
vn -0.1644 0.5384 0.8265
vn -0.0792 0.9140 0.3979
vn -0.3225 0.5385 -0.7785
vn -0.1553 0.9140 -0.3748
vn 0.7006 0.5385 0.4681
vn 0.3373 0.9140 0.2254
vn -0.4682 0.5385 -0.7006
vn -0.2254 0.9140 -0.3373
vn 0.7785 0.5385 0.3225
vn 0.3748 0.9140 0.1553
vn -0.5958 0.5385 -0.5958
vn -0.2869 0.9140 -0.2869
vn 0.8265 0.5385 0.1644
vn 0.3979 0.9140 0.0791
vn -0.7006 0.5385 -0.4681
vn -0.3373 0.9140 -0.2254
vn 0.8426 0.5385 -0.0000
vn 0.4057 0.9140 -0.0000
vn -0.7785 0.5385 -0.3225
vn -0.3748 0.9140 -0.1552
vn 0.8265 0.5385 -0.1644
vn 0.3979 0.9140 -0.0791
vn -0.8265 0.5384 -0.1644
vn -0.3979 0.9140 -0.0792
vn 0.7785 0.5385 -0.3225
vn 0.3748 0.9140 -0.1552
vn -0.8427 0.5385 -0.0000
vn -0.4057 0.9140 -0.0000
vn 0.7006 0.5385 -0.4681
vn 0.3373 0.9140 -0.2254
vn -0.8265 0.5385 0.1644
vn -0.3979 0.9140 0.0792
vn 0.5958 0.5385 -0.5958
vn 0.2869 0.9140 -0.2869
vn 0.3831 -0.7241 -0.5734
vn 0.4876 -0.7242 -0.4876
vn 0.2639 -0.7241 -0.6371
vn -0.0000 1.0000 -0.0000
vn -0.5734 -0.7241 0.3832
vn -0.6372 -0.7241 0.2639
vn -0.6764 -0.7241 0.1345
vn -0.6897 -0.7241 -0.0000
vn 0.5734 -0.7241 -0.3831
vn 0.6371 -0.7241 -0.2639
vn -0.6764 -0.7241 -0.1345
vn -0.6372 -0.7241 -0.2639
vn 0.6764 -0.7241 -0.1345
vn 0.6897 -0.7241 -0.0000
vn -0.5734 -0.7241 -0.3832
vn -0.4877 -0.7241 -0.4877
vn 0.6764 -0.7241 0.1345
vn 0.6372 -0.7241 0.2639
vn 0.1345 -0.7241 0.6764
vn -0.0000 -0.7241 0.6897
vn 0.2639 -0.7241 0.6372
vn -0.3832 -0.7241 -0.5734
vn -0.2639 -0.7241 -0.6372
vn 0.5734 -0.7241 0.3831
vn 0.4876 -0.7242 0.4876
vn -0.1345 -0.7241 0.6764
vn 0.3831 -0.7241 0.5734
vn 0.1345 -0.7241 -0.6764
vn -0.0000 -0.7241 -0.6897
vn -0.1345 -0.7241 -0.6764
vn 0.5959 0.5384 -0.5959
vn 0.4682 0.5384 -0.7006
vn -0.8264 0.5385 0.1644
vn 0.7007 0.5384 -0.4682
vn -0.8265 0.5385 -0.1644
vn 0.8427 0.5385 -0.0000
vn -0.4681 0.5385 -0.7006
vn 0.7007 0.5384 0.4682
vn -0.1644 0.5385 0.8265
vn -0.0000 0.5385 0.8426
vn 0.5959 0.5384 0.5959
vn -0.1644 0.5385 -0.8264
vn -0.3225 0.5385 0.7785
vn 0.4682 0.5384 0.7006
vn -0.4681 0.5385 0.7006
vn -0.7006 0.5385 0.4681
vt 0.971944 0.032092
vt 0.971945 0.032092
vt 0.971945 0.032091
vt 0.971943 0.032092
vt 0.971943 0.032086
vt 0.971942 0.032087
vt 0.971948 0.032087
vt 0.974747 0.026209
vt 0.974748 0.026209
vt 0.974747 0.026208
vt 0.974749 0.026209
vt 0.971947 0.032086
vt 0.974750 0.026209
vt 0.971946 0.032086
vt 0.974751 0.026209
vt 0.971945 0.032086
vt 0.974752 0.026209
vt 0.971944 0.032086
vt 0.974753 0.026209
vt 0.974753 0.026208
vt 0.971946 0.032090
vt 0.971945 0.032090
vt 0.971947 0.032090
vt 0.764010 0.153824
vt 0.761911 0.132759
vt 0.869900 0.132637
vt 0.770178 0.174075
vt 0.959758 0.192531
vt 0.946347 0.208911
vt 0.969716 0.173850
vt 0.929998 0.222359
vt 0.911339 0.232359
vt 0.780043 0.072742
vt 0.793454 0.056363
vt 0.770085 0.091424
vt 0.891088 0.238527
vt 0.870023 0.240626
vt 0.809803 0.042914
vt 0.828462 0.032914
vt 0.929795 0.042779
vt 0.946174 0.056190
vt 0.911114 0.032821
vt 0.848953 0.238575
vt 0.828687 0.232453
vt 0.848713 0.026746
vt 0.869778 0.024647
vt 0.959623 0.072540
vt 0.969623 0.091198
vt 0.810006 0.222494
vt 0.793627 0.209083
vt 0.890848 0.026699
vt 0.975791 0.111449
vt 0.977890 0.132515
vt 0.780178 0.192734
vt 0.971946 0.032092
vt 0.971947 0.032092
vt 0.971944 0.032090
vt 0.971948 0.032092
vt 0.971943 0.032090
vt 0.971948 0.032091
vt 0.971942 0.032090
vt 0.971942 0.032092
vt 0.971942 0.032091
vt 0.971948 0.032090
vt 0.763962 0.111689
vt 0.975839 0.153585
vt 0.971942 0.032086
vt 0.971948 0.032086
vt 0.974747 0.026213
vt 0.974747 0.026212
vt 0.974750 0.026213
vt 0.974749 0.026213
vt 0.974748 0.026213
vt 0.974747 0.026211
vt 0.974748 0.026211
vt 0.974749 0.026211
vt 0.974750 0.026211
vt 0.974751 0.026211
s 1
f 1/1/1 2/2/2 3/3/3 4/4/4
f 5/5/5 6/6/6 7/6/7 8/5/8
f 9/7/9 10/7/10 11/7/11 12/7/12
f 13/8/13 14/9/14 15/9/15 16/8/16
f 6/6/6 17/6/17 18/6/18 7/6/7
f 10/7/10 19/7/19 20/7/20 11/7/11
f 14/9/14 21/9/21 22/9/22 15/9/15
f 17/10/17 23/10/23 24/10/24 18/10/18
f 19/7/19 25/7/25 26/7/26 20/7/20
f 21/9/21 27/11/27 28/11/28 22/9/22
f 23/10/23 29/10/29 30/10/30 24/10/24
f 25/7/25 31/12/31 32/12/32 26/7/26
f 27/11/27 33/11/33 34/11/34 28/11/28
f 29/10/29 35/10/35 36/10/36 30/10/30
f 31/12/31 37/12/37 38/12/38 32/12/32
f 33/11/33 39/13/39 40/13/40 34/11/34
f 35/10/35 13/8/13 16/8/16 36/10/36
f 37/12/37 41/14/41 42/14/42 38/12/38
f 39/13/39 43/13/43 44/13/44 40/13/40
f 41/14/41 45/14/45 46/14/46 42/14/42
f 43/13/43 47/15/47 48/15/48 44/13/44
f 45/14/45 49/16/49 50/16/50 46/14/46
f 47/15/47 51/15/51 52/15/52 48/15/48
f 49/16/49 53/16/53 54/16/54 50/16/50
f 51/15/51 55/17/55 56/17/56 52/15/52
f 53/16/53 57/18/57 58/18/58 54/16/54
f 55/17/55 59/17/59 60/17/60 56/17/56
f 57/18/57 61/18/61 62/18/62 58/18/58
f 59/17/59 63/19/63 64/19/64 60/17/60
f 61/18/61 65/5/65 66/5/66 62/18/62
f 63/19/63 67/20/67 68/20/68 64/19/64
f 65/5/65 5/5/5 8/5/8 66/5/66
f 67/20/67 9/20/9 12/20/12 68/20/68
f 69/21/69 70/22/70 3/3/3 71/23/71
f 58/24/58 62/25/62 72/26/72 54/27/54
f 64/28/64 68/29/68 72/26/72 60/30/60
f 12/31/12 11/32/11 72/26/72 68/29/68
f 7/33/7 18/34/18 72/26/72 8/35/8
f 20/36/20 26/37/26 72/26/72 11/32/11
f 24/38/24 30/39/30 72/26/72 18/34/18
f 28/40/28 34/41/34 72/26/72 22/42/22
f 32/43/32 38/44/38 72/26/72 26/37/26
f 36/45/36 16/46/16 72/26/72 30/39/30
f 40/47/40 44/48/44 72/26/72 34/41/34
f 42/49/42 46/50/46 72/26/72 38/44/38
f 15/51/15 22/42/22 72/26/72 16/46/16
f 44/48/44 48/52/48 52/53/52 72/26/72
f 46/50/46 50/54/50 54/27/54 72/26/72
f 2/2/2 73/2/73 74/55/74 3/3/3
f 74/55/74 75/56/75 76/56/76 3/3/3
f 77/22/77 78/57/78 3/3/3 70/22/70
f 79/58/79 80/58/80 3/3/3 76/56/76
f 81/59/81 82/59/82 3/3/3 78/57/78
f 83/60/83 84/60/84 3/3/3 80/58/80
f 85/61/85 86/61/86 3/3/3 82/59/82
f 87/62/87 88/62/88 3/3/3 89/63/89
f 90/60/90 91/64/91 3/3/3 84/60/84
f 92/61/92 93/63/93 3/3/3 86/61/86
f 94/4/94 4/4/4 3/3/3 88/62/88
f 95/63/95 89/63/89 3/3/3 93/63/93
f 96/23/96 71/23/71 3/3/3 97/64/97
f 66/65/66 8/35/8 72/26/72 62/25/62
f 56/66/56 60/30/60 72/26/72 52/53/52
f 98/64/98 97/64/97 3/3/3 91/64/91
f 99/20/99 100/20/100 9/20/9 67/20/67
f 101/5/101 102/67/5 5/5/5 65/5/65
f 103/19/102 99/20/99 67/20/67 63/19/63
f 104/5/61 101/5/101 65/5/65 61/18/61
f 105/19/59 103/19/102 63/19/63 59/17/59
f 106/18/103 104/5/61 61/18/61 57/18/57
f 107/17/55 105/19/59 59/17/59 55/17/55
f 108/16/53 106/18/103 57/18/57 53/16/53
f 109/17/104 107/17/55 55/17/55 51/15/51
f 110/16/49 108/16/53 53/16/53 49/16/49
f 111/15/47 109/17/104 51/15/51 47/15/47
f 112/14/45 110/16/49 49/16/49 45/14/45
f 113/13/43 111/15/47 47/15/47 43/13/43
f 114/12/105 112/14/45 45/14/45 41/14/41
f 115/13/106 113/13/43 43/13/43 39/13/39
f 116/12/37 114/12/105 41/14/41 37/12/37
f 117/10/107 118/8/108 13/8/13 35/10/35
f 119/11/109 115/13/106 39/13/39 33/11/33
f 120/68/110 116/12/37 37/12/37 31/12/31
f 121/10/111 117/10/107 35/10/35 29/10/29
f 122/9/112 119/11/109 33/11/33 27/11/27
f 123/68/25 120/68/110 31/12/31 25/7/25
f 124/10/113 121/10/111 29/10/29 23/10/23
f 125/9/21 122/9/112 27/11/27 21/9/21
f 126/7/19 123/68/25 25/7/25 19/7/19
f 127/10/17 124/10/113 23/10/23 17/10/17
f 128/8/14 125/9/21 21/9/21 14/9/14
f 129/7/10 126/7/19 19/7/19 10/7/10
f 130/67/114 127/6/17 17/6/17 6/6/6
f 118/8/108 128/8/14 14/9/14 13/8/13
f 100/7/100 129/7/10 10/7/10 9/7/9
f 102/67/5 130/67/114 6/6/6 5/5/5
f 74/55/74 73/2/73 130/67/114 102/67/5
f 69/21/69 71/23/71 129/7/10 100/7/100
f 88/69/88 87/69/87 128/8/14 118/8/108
f 73/2/73 2/2/2 127/6/17 130/67/114
f 71/23/71 96/23/96 126/7/19 129/7/10
f 87/69/87 89/70/89 125/9/21 128/8/14
f 2/71/2 1/72/1 124/10/113 127/10/17
f 96/23/96 97/64/97 123/68/25 126/7/19
f 89/70/89 95/70/95 122/9/112 125/9/21
f 1/72/1 4/73/4 121/10/111 124/10/113
f 97/64/97 98/64/98 120/68/110 123/68/25
f 95/70/95 93/70/93 119/11/109 122/9/112
f 4/73/4 94/73/94 117/10/107 121/10/111
f 98/64/98 91/64/91 116/12/37 120/68/110
f 93/70/93 92/74/92 115/13/106 119/11/109
f 94/73/94 88/69/88 118/8/108 117/10/107
f 91/64/91 90/60/90 114/12/105 116/12/37
f 92/74/92 86/74/86 113/13/43 115/13/106
f 90/60/90 84/60/84 112/14/45 114/12/105
f 86/74/86 85/74/85 111/15/47 113/13/43
f 84/60/84 83/60/83 110/16/49 112/14/45
f 85/74/85 82/75/82 109/17/104 111/15/47
f 83/60/83 80/58/80 108/16/53 110/16/49
f 82/75/82 81/75/81 107/17/55 109/17/104
f 80/58/80 79/58/79 106/18/103 108/16/53
f 81/75/81 78/76/78 105/19/59 107/17/55
f 79/58/79 76/56/76 104/5/61 106/18/103
f 78/76/78 77/77/77 103/19/102 105/19/59
f 76/56/76 75/56/75 101/5/101 104/5/61
f 77/77/77 70/77/70 99/20/99 103/19/102
f 75/56/75 74/55/74 102/67/5 101/5/101
f 70/77/70 69/78/69 100/20/100 99/20/99
o 40mm
v -0.644154 1.126009 0.000000
v 0.644154 1.126009 0.000000
v -0.644154 0.122330 -0.000000
v 0.644154 0.122330 -0.000000
vn -0.0000 -0.0000 -1.0000
vt 0.746584 0.994529
vt 0.005876 0.994529
vt 0.005876 0.253821
vt 0.746584 0.253821
s 0
f 131/79/115 132/80/115 134/81/115 133/82/115
