# Blender 4.2.3 LTS
# www.blender.org
o gr75_col
v -2.200526 -0.236377 2.301207
v -1.830081 2.043505 1.848104
v -2.200526 -0.236377 -0.901638
v -1.830081 1.939035 -0.815562
v 2.200526 -0.236377 2.301207
v 1.830081 2.043505 1.848104
v 2.200526 -0.236377 -0.901638
v 1.830081 1.939035 -0.815562
v -0.388091 1.042143 -6.828601
v -0.388091 -0.236377 -6.191306
v 0.388091 -0.236377 -6.191306
v 0.388091 1.042143 -6.828601
v 1.645214 1.939035 -1.950779
v 1.420699 1.939035 -2.957976
v 1.282986 1.939035 -3.760379
v 1.053944 1.939035 -4.894372
v -1.053944 1.939035 -4.894372
v -1.282986 1.939035 -3.760379
v -1.420699 1.939035 -2.957976
v -1.645214 1.939035 -1.950779
v -1.267283 -0.236377 -5.273569
v -1.542687 -0.236377 -4.442545
v -1.708277 -0.236377 -3.477719
v -1.978238 -0.236377 -2.266646
v 1.978238 -0.236377 -2.266646
v 1.708277 -0.236377 -3.477719
v 1.542687 -0.236377 -4.442545
v 1.267283 -0.236377 -5.273569
v -0.571813 0.633053 6.314110
v -0.571813 1.433053 6.314110
v 0.571813 1.433053 6.314110
v 0.571813 0.633053 6.314110
v -1.991980 -0.236377 3.802462
v -1.574540 0.633053 5.025427
v -1.309476 1.941509 4.113719
v -1.656643 2.129325 3.096632
v 1.991980 -0.236377 3.802462
v 1.574540 0.633053 5.025427
v 1.309476 1.941509 4.113719
v 1.656643 2.129325 3.096632
v -2.074559 0.538879 2.147133
v -2.074559 0.503355 -0.872368
v 2.074559 0.503355 -0.872368
v 2.074559 0.538879 2.147133
v -0.388091 0.198374 -6.408013
v 0.388091 0.198374 -6.408013
v 1.864996 0.503355 -2.159238
v 1.610488 0.503355 -3.300985
v 1.454378 0.503355 -4.210580
v 1.194739 0.503355 -5.144627
v -1.864996 0.503355 -2.159238
v -1.610488 0.503355 -3.300985
v -1.454378 0.503355 -4.210580
v -1.194739 0.503355 -5.144627
v -0.571813 0.905087 6.314110
v 0.571813 0.905087 6.314110
v 1.877951 0.568062 3.562450
v 1.484407 1.077983 4.715407
v -1.877951 0.568062 3.562450
v -1.484407 1.077983 4.715407
vn -0.9865 0.1637 -0.0040
vn -0.0000 0.9072 -0.4207
vn 0.9865 0.1637 -0.0040
vn -0.7776 0.3293 0.5356
vn -0.0000 -1.0000 -0.0000
vn -0.0000 0.9992 -0.0392
vn -0.0000 -0.4461 -0.8950
vn -0.9046 0.0241 -0.4256
vn 0.7910 0.0031 -0.6118
vn 0.9723 0.1718 -0.1583
vn 0.9604 0.1781 -0.2141
vn 0.9715 0.1683 -0.1667
vn 0.9427 0.1722 -0.2858
vn -0.9723 0.1718 -0.1583
vn -0.9604 0.1781 -0.2141
vn -0.9715 0.1683 -0.1667
vn -0.9607 0.1598 -0.2270
vn -0.0000 1.0000 -0.0000
vn -0.0000 -0.0000 1.0000
vn -0.0000 0.9743 0.2251
vn 0.8572 0.2914 0.4246
vn 0.9753 0.1800 0.1277
vn 0.9224 0.2716 0.2745
vn -0.0000 0.9976 -0.0686
vn -0.0000 0.9834 0.1816
vn -0.0000 -0.8150 0.5794
vn -0.9743 0.1813 0.1335
vn -0.9531 0.2381 0.1871
vn -0.9224 0.2716 0.2745
vn -0.9753 0.1800 0.1277
vn 0.9531 0.2381 0.1871
vn 0.9743 0.1813 0.1335
vn 0.7776 0.3293 0.5356
vn -0.9427 0.1722 -0.2858
vn 0.9607 0.1598 -0.2270
vn 0.9046 0.0241 -0.4256
vn -0.7910 0.0031 -0.6118
vn -0.8572 0.2914 0.4246
vn 0.9865 0.1640 -0.0009
vn -0.9865 0.1640 -0.0009
vt 0.460011 0.000000
vt 0.625000 0.000000
vt 0.625000 0.250000
vt 0.460010 0.250000
vt 0.875000 0.500000
vt 0.625000 0.500000
vt 0.460010 0.500000
vt 0.625000 0.750000
vt 0.460011 0.750000
vt 0.375000 0.000000
vt 0.125000 0.500000
vt 0.375000 0.500000
vt 0.375000 0.750000
vt 0.125000 0.750000
vt 0.875000 0.750000
vt 0.460011 0.250000
vt 0.460011 0.500000
vt 0.460011 0.250000
vt 0.460010 0.500000
vt 0.460011 0.500000
vt 0.460010 0.250000
vt 0.625000 1.000000
vt 0.460011 1.000000
vt 0.375000 1.000000
vt 0.375000 0.250000
s 0
f 41/1/1 2/2/1 4/3/1 42/4/1
f 17/5/2 16/6/2 12/6/2 9/5/2
f 43/7/3 8/6/3 6/8/3 44/9/3
f 60/1/4 34/10/4 29/10/4 55/1/4
f 3/11/5 7/12/5 5/13/5 1/14/5
f 8/6/6 4/5/6 2/15/6 6/8/6
f 45/16/7 9/3/7 12/6/7 46/17/7
f 54/18/8 17/3/8 9/3/8 45/16/8
f 50/19/9 28/12/9 11/12/9 46/17/9
f 28/12/5 21/11/5 10/11/5 11/12/5
f 7/12/5 3/11/5 24/11/5 25/12/5
f 25/12/5 24/11/5 23/11/5 26/12/5
f 26/12/5 23/11/5 22/11/5 27/12/5
f 27/12/5 22/11/5 21/11/5 28/12/5
f 43/7/10 7/12/10 25/12/10 47/17/10
f 47/17/11 25/12/11 26/12/11 48/20/11
f 48/20/12 26/12/12 27/12/12 49/17/12
f 49/17/13 27/12/13 28/12/13 50/19/13
f 42/4/14 4/3/14 20/3/14 51/16/14
f 51/16/15 20/3/15 19/3/15 52/21/15
f 52/21/16 19/3/16 18/3/16 53/16/16
f 53/16/17 18/3/17 17/3/17 54/18/17
f 4/5/18 8/6/18 13/6/18 20/5/18
f 20/5/18 13/6/18 14/6/18 19/5/18
f 19/5/18 14/6/18 15/6/18 18/5/18
f 18/5/18 15/6/18 16/6/18 17/5/18
f 56/9/19 31/8/19 30/22/19 55/23/19
f 34/14/5 38/13/5 32/13/5 29/14/5
f 39/8/20 35/15/20 30/15/20 31/8/20
f 58/9/21 39/8/21 31/8/21 56/9/21
f 44/9/22 6/8/22 40/8/22 57/9/22
f 57/9/23 40/8/23 39/8/23 58/9/23
f 6/8/24 2/15/24 36/15/24 40/8/24
f 40/8/25 36/15/25 35/15/25 39/8/25
f 1/14/5 5/13/5 37/13/5 33/14/5
f 33/14/26 37/13/26 38/13/26 34/14/26
f 41/1/27 1/10/27 33/10/27 59/1/27
f 59/1/28 33/10/28 34/10/28 60/1/28
f 36/2/29 59/1/29 60/1/29 35/2/29
f 2/2/30 41/1/30 59/1/30 36/2/30
f 37/13/31 57/9/31 58/9/31 38/13/31
f 5/13/32 44/9/32 57/9/32 37/13/32
f 38/13/33 58/9/33 56/9/33 32/13/33
f 32/13/19 56/9/19 55/23/19 29/24/19
f 22/25/34 53/16/34 54/18/34 21/25/34
f 23/25/16 52/21/16 53/16/16 22/25/16
f 24/25/15 51/16/15 52/21/15 23/25/15
f 3/25/14 42/4/14 51/16/14 24/25/14
f 15/6/35 49/17/35 50/19/35 16/6/35
f 14/6/12 48/20/12 49/17/12 15/6/12
f 13/6/11 47/17/11 48/20/11 14/6/11
f 8/6/10 43/7/10 47/17/10 13/6/10
f 16/6/36 50/19/36 46/17/36 12/6/36
f 21/25/37 54/18/37 45/16/37 10/25/37
f 10/25/7 45/16/7 46/17/7 11/12/7
f 35/2/38 60/1/38 55/1/38 30/2/38
f 7/12/39 43/7/39 44/9/39 5/13/39
f 1/10/40 41/1/40 42/4/40 3/25/40
